<svg width="338" height="360" viewBox="0 0 338 360" fill="none" xmlns="http://www.w3.org/2000/svg">
<circle cx="98.0939" cy="347.094" r="3.09387" fill="#A5D8FF"/>
<circle cx="327.282" cy="85.2816" r="9.28161" fill="#A5D8FF"/>
<circle cx="109.667" cy="14.6628" r="8.66284" fill="#A5D8FF"/>
<circle cx="312.95" cy="354.95" r="4.95019" fill="#A5D8FF"/>
<circle cx="25.9502" cy="222.95" r="4.95019" fill="#A5D8FF"/>
<path fill-rule="evenodd" clip-rule="evenodd" d="M166.017 39.9288C166.623 42.339 165.161 44.7844 162.751 45.3909C159.559 46.1943 156.769 48.1358 154.907 50.8507C153.045 53.5656 152.239 56.867 152.639 60.1346C153.039 63.4023 154.619 66.4113 157.082 68.5962C159.543 70.78 162.716 71.9905 166.007 72.0005H170.5C172.985 72.0005 175 74.0152 175 76.5005C175 78.9857 172.985 81.0005 170.5 81.0005H166L165.988 81.0004C160.503 80.9859 155.212 78.9689 151.108 75.3282C147.005 71.6876 144.373 66.674 143.706 61.2293C143.039 55.7847 144.383 50.2838 147.485 45.7602C150.588 41.2366 155.235 38.0016 160.555 36.663C162.965 36.0565 165.411 37.5187 166.017 39.9288ZM194.95 49.9437C195.279 50.1018 195.593 50.3016 195.881 50.5423L207.061 59.4865C209.002 61.0391 209.316 63.8709 207.764 65.8116C206.211 67.7523 203.38 68.0669 201.439 66.5144L197.5 63.3633V94.5005C197.5 96.9857 195.485 99.0005 193 99.0005C190.515 99.0005 188.5 96.9857 188.5 94.5005V63.3633L184.561 66.5144C182.62 68.0669 179.789 67.7523 178.236 65.8116C176.684 63.8709 176.998 61.0391 178.939 59.4865L190.119 50.5423C190.407 50.3017 190.721 50.1018 191.05 49.9437C191.152 49.8949 191.255 49.8498 191.36 49.8086C191.548 49.735 191.74 49.6747 191.933 49.6276C192.284 49.5422 192.643 49.5001 193 49.5003C193.41 49.5 193.822 49.5556 194.222 49.6685C194.45 49.7327 194.675 49.8154 194.893 49.917C194.912 49.9258 194.931 49.9346 194.95 49.9437ZM197.5 54.0362V54.0005C197.5 53.6376 197.457 53.2848 197.376 52.9468C197.462 53.3054 197.503 53.6714 197.5 54.0362Z" fill="white"/>
<path fill-rule="evenodd" clip-rule="evenodd" d="M180.962 9.4111C188.264 8.07191 195.802 9.55932 202.048 13.5718C208.294 17.5843 212.78 23.8216 214.598 31.0194C215.207 33.429 213.746 35.8757 211.337 36.4842C208.927 37.0928 206.48 35.6327 205.872 33.223C204.614 28.24 201.507 23.9218 197.183 21.1439C192.859 18.3661 187.641 17.3363 182.585 18.2635C177.53 19.1906 173.017 22.0052 169.96 26.1368C166.931 30.2298 165.557 35.312 166.107 40.3702C166.123 40.4561 166.149 40.5862 166.184 40.751C166.257 41.0946 166.368 41.5747 166.514 42.1102C166.837 43.2917 167.224 44.3188 167.564 44.8625C168.883 46.969 168.244 49.7458 166.138 51.0645C164.031 52.3832 161.254 51.7445 159.936 49.6379C158.868 47.9316 158.206 45.8492 157.833 44.4837C157.631 43.7457 157.481 43.093 157.381 42.622C157.331 42.3852 157.292 42.1909 157.265 42.0507L157.234 41.8815L157.224 41.8294L157.221 41.8119L157.22 41.8054C157.206 41.7219 157.193 41.6339 157.183 41.5494C156.328 34.175 158.309 26.7515 162.725 20.7837C167.14 14.8159 173.66 10.7503 180.962 9.4111Z" fill="white"/>
<path fill-rule="evenodd" clip-rule="evenodd" d="M209.185 27.7452C212.892 26.8556 216.746 26.7613 220.493 27.4685C224.239 28.1757 227.793 29.6683 230.921 31.848C234.049 34.0278 236.68 36.8454 238.641 40.1152C240.602 43.385 241.848 47.033 242.297 50.8191C242.746 54.6052 242.388 58.4434 241.247 62.0813C240.106 65.7191 238.207 69.074 235.676 71.9252C233.145 74.7763 230.039 77.0591 226.562 78.6232C223.085 80.1874 219.316 80.9974 215.503 81C213.018 81.0017 211.002 78.9883 211 76.5031C210.998 74.0178 213.012 72.0017 215.497 72C218.039 71.9983 220.551 71.4582 222.869 70.4155C225.187 69.3727 227.258 67.8509 228.946 65.9501C230.633 64.0493 231.899 61.8127 232.66 59.3875C233.42 56.9623 233.659 54.4034 233.359 51.8794C233.06 49.3554 232.229 46.9234 230.922 44.7435C229.615 42.5636 227.861 40.6852 225.776 39.232C223.69 37.7788 221.321 36.7838 218.823 36.3123C216.347 35.8449 213.8 35.9027 211.348 36.4819L205.432 38.092C203.034 38.7447 200.561 37.3299 199.908 34.9318C199.255 32.5338 200.67 30.0607 203.068 29.408L209.053 27.779C209.097 27.767 209.141 27.7558 209.185 27.7452Z" fill="white"/>
<rect x="48" y="140" width="290" height="48" rx="8" fill="white"/>
<rect x="99" y="146" width="144" height="36" rx="8" fill="#F1F3F5"/>
<rect x="115" y="159" width="92" height="10" rx="5" fill="#74C0FC"/>
<rect x="56" y="146" width="36" height="36" rx="8" fill="#F1F3F5"/>
<rect x="63" y="153" width="22" height="22" rx="4" fill="#74C0FC"/>
<rect x="294" y="146" width="36" height="36" rx="8" fill="#F1F3F5"/>
<rect x="301" y="153" width="22" height="22" rx="4" fill="#74C0FC"/>
<rect x="250" y="146" width="36" height="36" rx="8" fill="#F1F3F5"/>
<rect x="257" y="153" width="22" height="22" rx="4" fill="#74C0FC"/>
<rect x="48" y="212" width="290" height="48" rx="8" fill="white"/>
<rect x="99" y="218" width="144" height="36" rx="8" fill="#F1F3F5"/>
<rect x="115" y="231" width="92" height="10" rx="5" fill="#74C0FC"/>
<rect x="56" y="218" width="36" height="36" rx="8" fill="#F1F3F5"/>
<rect x="63" y="225" width="22" height="22" rx="4" fill="#74C0FC"/>
<rect x="294" y="218" width="36" height="36" rx="8" fill="#F1F3F5"/>
<rect x="301" y="225" width="22" height="22" rx="4" fill="#74C0FC"/>
<rect x="250" y="218" width="36" height="36" rx="8" fill="#F1F3F5"/>
<rect x="257" y="225" width="22" height="22" rx="4" fill="#74C0FC"/>
<rect x="48" y="284" width="290" height="48" rx="8" fill="white"/>
<rect x="99" y="290" width="144" height="36" rx="8" fill="#F1F3F5"/>
<rect x="115" y="303" width="92" height="10" rx="5" fill="#74C0FC"/>
<rect x="56" y="290" width="36" height="36" rx="8" fill="#F1F3F5"/>
<rect x="63" y="297" width="22" height="22" rx="4" fill="#74C0FC"/>
<rect x="294" y="290" width="36" height="36" rx="8" fill="#F1F3F5"/>
<rect x="301" y="297" width="22" height="22" rx="4" fill="#74C0FC"/>
<rect x="250" y="290" width="36" height="36" rx="8" fill="#F1F3F5"/>
<rect x="257" y="297" width="22" height="22" rx="4" fill="#74C0FC"/>
<circle cx="4" cy="158" r="4" fill="#74C0FC"/>
<circle cx="131" cy="88" r="4" fill="#74C0FC"/>
</svg>
