<svg width="316" height="328" viewBox="0 0 316 328" fill="none" xmlns="http://www.w3.org/2000/svg">
<circle cx="261.95" cy="320.95" r="4.95019" fill="#A5D8FF"/>
<circle cx="77.0939" cy="324.094" r="3.09387" fill="#A5D8FF"/>
<circle cx="306.282" cy="79.2816" r="9.28161" fill="#A5D8FF"/>
<circle cx="88.6667" cy="8.66284" r="8.66284" fill="#A5D8FF"/>
<circle cx="4.95019" cy="216.95" r="4.95019" fill="#A5D8FF"/>
<path d="M243.895 68.1712C209.796 70.4592 179.17 51.0104 168.119 41L151.307 53.3939C168.546 76.4655 206.007 87.3181 222.583 89.8604C220.689 135.813 192.746 166.686 179.012 176.379L199.614 187.82C245.647 146.252 248.315 90.7343 243.895 68.1712Z" fill="#F8F9FA"/>
<path d="M154.859 75.7981C147.849 70.8406 141.045 62.4509 138.519 58.8758C120.712 67.6468 99.8423 69.5218 91.6333 69.3629C80.5038 164.939 162.199 210.939 167.883 209.985C172.429 209.223 183.353 201.087 188.247 197.115C127.816 167.751 113.024 113.377 113.182 89.8604C129.284 88.7164 147.676 80.0089 154.859 75.7981Z" fill="#F8F9FA"/>
<path d="M167.646 84.3784C150.597 94.6749 133.863 99.3146 127.627 100.347C130.848 132.762 155.806 159.139 167.883 168.275C198.383 144.441 207.428 113.059 208.139 100.347C192.036 97.2966 174.434 88.4303 167.646 84.3784Z" fill="#F8F9FA"/>
<path d="M86.816 269V246.6H96.48C97.888 246.6 99.136 246.92 100.224 247.56C101.333 248.2 102.208 249.075 102.848 250.184C103.509 251.293 103.84 252.541 103.84 253.928C103.84 255.379 103.509 256.68 102.848 257.832C102.208 258.963 101.333 259.859 100.224 260.52C99.136 261.181 97.888 261.512 96.48 261.512H92.256V269H86.816ZM92.16 256.744H95.712C96.1813 256.744 96.608 256.627 96.992 256.392C97.376 256.157 97.6853 255.837 97.92 255.432C98.1547 255.027 98.272 254.557 98.272 254.024C98.272 253.469 98.1547 253 97.92 252.616C97.6853 252.232 97.376 251.933 96.992 251.72C96.608 251.507 96.1813 251.4 95.712 251.4H92.16V256.744ZM113.419 269.288C111.99 269.288 110.71 268.915 109.579 268.168C108.47 267.4 107.584 266.355 106.923 265.032C106.262 263.688 105.931 262.173 105.931 260.488C105.931 258.76 106.262 257.235 106.923 255.912C107.584 254.589 108.491 253.555 109.643 252.808C110.795 252.04 112.107 251.656 113.579 251.656C114.39 251.656 115.126 251.773 115.787 252.008C116.47 252.243 117.067 252.573 117.579 253C118.091 253.405 118.528 253.885 118.891 254.44C119.254 254.973 119.52 255.549 119.691 256.168L118.635 256.04V252.008H123.723V269H118.539V264.904L119.691 264.872C119.52 265.469 119.243 266.035 118.859 266.568C118.475 267.101 118.006 267.571 117.451 267.976C116.896 268.381 116.278 268.701 115.595 268.936C114.912 269.171 114.187 269.288 113.419 269.288ZM114.827 264.968C115.616 264.968 116.299 264.787 116.875 264.424C117.451 264.061 117.899 263.549 118.219 262.888C118.539 262.205 118.699 261.405 118.699 260.488C118.699 259.571 118.539 258.781 118.219 258.12C117.899 257.437 117.451 256.915 116.875 256.552C116.299 256.168 115.616 255.976 114.827 255.976C114.059 255.976 113.387 256.168 112.811 256.552C112.256 256.915 111.819 257.437 111.499 258.12C111.179 258.781 111.019 259.571 111.019 260.488C111.019 261.405 111.179 262.205 111.499 262.888C111.819 263.549 112.256 264.061 112.811 264.424C113.387 264.787 114.059 264.968 114.827 264.968ZM133.969 269.32C132.305 269.32 130.833 269.053 129.553 268.52C128.294 267.987 127.291 267.272 126.545 266.376L129.649 263.688C130.31 264.349 131.057 264.84 131.889 265.16C132.721 265.459 133.51 265.608 134.257 265.608C134.555 265.608 134.822 265.576 135.057 265.512C135.291 265.448 135.483 265.363 135.633 265.256C135.803 265.128 135.931 264.989 136.017 264.84C136.102 264.669 136.145 264.477 136.145 264.264C136.145 263.837 135.953 263.507 135.569 263.272C135.377 263.165 135.057 263.037 134.609 262.888C134.161 262.739 133.585 262.568 132.881 262.376C131.878 262.12 131.003 261.821 130.257 261.48C129.531 261.117 128.934 260.701 128.465 260.232C128.038 259.784 127.707 259.293 127.473 258.76C127.238 258.205 127.121 257.587 127.121 256.904C127.121 256.115 127.302 255.4 127.665 254.76C128.049 254.12 128.55 253.565 129.169 253.096C129.809 252.627 130.534 252.275 131.345 252.04C132.177 251.784 133.03 251.656 133.905 251.656C134.843 251.656 135.739 251.763 136.593 251.976C137.446 252.189 138.235 252.488 138.961 252.872C139.707 253.256 140.369 253.715 140.945 254.248L138.257 257.256C137.873 256.893 137.435 256.573 136.945 256.296C136.475 255.997 135.985 255.763 135.473 255.592C134.961 255.421 134.491 255.336 134.065 255.336C133.745 255.336 133.457 255.368 133.201 255.432C132.966 255.475 132.763 255.56 132.593 255.688C132.422 255.795 132.294 255.933 132.209 256.104C132.123 256.253 132.081 256.435 132.081 256.648C132.081 256.861 132.134 257.064 132.241 257.256C132.369 257.448 132.539 257.608 132.753 257.736C132.966 257.864 133.307 258.013 133.777 258.184C134.246 258.333 134.886 258.525 135.697 258.76C136.699 259.037 137.563 259.347 138.289 259.688C139.014 260.029 139.59 260.435 140.017 260.904C140.358 261.267 140.614 261.693 140.785 262.184C140.955 262.653 141.041 263.165 141.041 263.72C141.041 264.808 140.731 265.779 140.113 266.632C139.515 267.464 138.683 268.125 137.617 268.616C136.55 269.085 135.334 269.32 133.969 269.32ZM149.812 269.32C148.149 269.32 146.677 269.053 145.397 268.52C144.138 267.987 143.135 267.272 142.389 266.376L145.493 263.688C146.154 264.349 146.901 264.84 147.733 265.16C148.565 265.459 149.354 265.608 150.101 265.608C150.399 265.608 150.666 265.576 150.901 265.512C151.135 265.448 151.327 265.363 151.477 265.256C151.647 265.128 151.775 264.989 151.861 264.84C151.946 264.669 151.989 264.477 151.989 264.264C151.989 263.837 151.797 263.507 151.413 263.272C151.221 263.165 150.901 263.037 150.453 262.888C150.005 262.739 149.429 262.568 148.725 262.376C147.722 262.12 146.847 261.821 146.101 261.48C145.375 261.117 144.778 260.701 144.309 260.232C143.882 259.784 143.551 259.293 143.317 258.76C143.082 258.205 142.965 257.587 142.965 256.904C142.965 256.115 143.146 255.4 143.509 254.76C143.893 254.12 144.394 253.565 145.013 253.096C145.653 252.627 146.378 252.275 147.189 252.04C148.021 251.784 148.874 251.656 149.749 251.656C150.687 251.656 151.583 251.763 152.437 251.976C153.29 252.189 154.079 252.488 154.805 252.872C155.551 253.256 156.213 253.715 156.789 254.248L154.101 257.256C153.717 256.893 153.279 256.573 152.789 256.296C152.319 255.997 151.829 255.763 151.317 255.592C150.805 255.421 150.335 255.336 149.909 255.336C149.589 255.336 149.301 255.368 149.045 255.432C148.81 255.475 148.607 255.56 148.437 255.688C148.266 255.795 148.138 255.933 148.053 256.104C147.967 256.253 147.925 256.435 147.925 256.648C147.925 256.861 147.978 257.064 148.085 257.256C148.213 257.448 148.383 257.608 148.597 257.736C148.81 257.864 149.151 258.013 149.621 258.184C150.09 258.333 150.73 258.525 151.541 258.76C152.543 259.037 153.407 259.347 154.133 259.688C154.858 260.029 155.434 260.435 155.861 260.904C156.202 261.267 156.458 261.693 156.629 262.184C156.799 262.653 156.885 263.165 156.885 263.72C156.885 264.808 156.575 265.779 155.957 266.632C155.359 267.464 154.527 268.125 153.461 268.616C152.394 269.085 151.178 269.32 149.812 269.32ZM160.472 269V246.6H165.336L177.08 262.6L176.024 262.44C175.918 261.736 175.832 261.064 175.768 260.424C175.704 259.784 175.64 259.155 175.576 258.536C175.534 257.917 175.491 257.288 175.448 256.648C175.427 256.008 175.406 255.315 175.384 254.568C175.384 253.821 175.384 253.011 175.384 252.136V246.6H180.664V269H175.736L163.48 252.488L165.112 252.712C165.219 253.736 165.304 254.611 165.368 255.336C165.454 256.04 165.518 256.669 165.56 257.224C165.624 257.779 165.667 258.28 165.688 258.728C165.71 259.176 165.72 259.624 165.72 260.072C165.742 260.499 165.752 260.979 165.752 261.512V269H160.472ZM193.741 269.32C191.97 269.32 190.391 268.936 189.005 268.168C187.639 267.4 186.551 266.355 185.741 265.032C184.951 263.709 184.557 262.195 184.557 260.488C184.557 258.781 184.951 257.267 185.741 255.944C186.551 254.621 187.639 253.576 189.005 252.808C190.391 252.04 191.97 251.656 193.741 251.656C195.511 251.656 197.079 252.04 198.445 252.808C199.831 253.576 200.919 254.621 201.709 255.944C202.498 257.267 202.893 258.781 202.893 260.488C202.893 262.195 202.498 263.709 201.709 265.032C200.919 266.355 199.831 267.4 198.445 268.168C197.079 268.936 195.511 269.32 193.741 269.32ZM193.741 264.904C194.509 264.904 195.191 264.712 195.789 264.328C196.386 263.944 196.855 263.421 197.197 262.76C197.538 262.099 197.698 261.341 197.677 260.488C197.698 259.635 197.538 258.877 197.197 258.216C196.855 257.533 196.386 257 195.789 256.616C195.191 256.232 194.509 256.04 193.741 256.04C192.973 256.04 192.279 256.232 191.661 256.616C191.063 257 190.594 257.533 190.253 258.216C189.911 258.877 189.751 259.635 189.773 260.488C189.751 261.341 189.911 262.099 190.253 262.76C190.594 263.421 191.063 263.944 191.661 264.328C192.279 264.712 192.973 264.904 193.741 264.904ZM207.649 269V247.72H212.769V269H207.649ZM204.641 256.488V252.008H216.065V256.488H204.641ZM226.931 269.32C225.053 269.32 223.421 268.947 222.035 268.2C220.648 267.432 219.571 266.397 218.803 265.096C218.035 263.773 217.651 262.269 217.651 260.584C217.651 259.283 217.864 258.088 218.291 257C218.717 255.912 219.315 254.973 220.083 254.184C220.851 253.373 221.757 252.755 222.803 252.328C223.869 251.88 225.032 251.656 226.291 251.656C227.485 251.656 228.573 251.869 229.555 252.296C230.557 252.723 231.421 253.32 232.147 254.088C232.872 254.856 233.427 255.763 233.811 256.808C234.195 257.853 234.365 258.995 234.323 260.232L234.291 261.608H220.755L220.019 258.728H230.131L229.587 259.336V258.696C229.544 258.163 229.373 257.693 229.075 257.288C228.797 256.861 228.424 256.531 227.955 256.296C227.485 256.061 226.952 255.944 226.355 255.944C225.523 255.944 224.808 256.115 224.211 256.456C223.635 256.776 223.197 257.256 222.899 257.896C222.6 258.515 222.451 259.283 222.451 260.2C222.451 261.139 222.643 261.96 223.027 262.664C223.432 263.347 224.008 263.88 224.755 264.264C225.523 264.648 226.429 264.84 227.475 264.84C228.2 264.84 228.84 264.733 229.395 264.52C229.971 264.307 230.589 263.944 231.251 263.432L233.651 266.824C232.989 267.4 232.285 267.869 231.539 268.232C230.792 268.595 230.024 268.861 229.235 269.032C228.467 269.224 227.699 269.32 226.931 269.32ZM243.312 269.32C241.649 269.32 240.177 269.053 238.897 268.52C237.638 267.987 236.635 267.272 235.889 266.376L238.993 263.688C239.654 264.349 240.401 264.84 241.233 265.16C242.065 265.459 242.854 265.608 243.601 265.608C243.899 265.608 244.166 265.576 244.401 265.512C244.635 265.448 244.827 265.363 244.977 265.256C245.147 265.128 245.275 264.989 245.361 264.84C245.446 264.669 245.489 264.477 245.489 264.264C245.489 263.837 245.297 263.507 244.913 263.272C244.721 263.165 244.401 263.037 243.953 262.888C243.505 262.739 242.929 262.568 242.225 262.376C241.222 262.12 240.347 261.821 239.601 261.48C238.875 261.117 238.278 260.701 237.809 260.232C237.382 259.784 237.051 259.293 236.817 258.76C236.582 258.205 236.465 257.587 236.465 256.904C236.465 256.115 236.646 255.4 237.009 254.76C237.393 254.12 237.894 253.565 238.513 253.096C239.153 252.627 239.878 252.275 240.689 252.04C241.521 251.784 242.374 251.656 243.249 251.656C244.187 251.656 245.083 251.763 245.937 251.976C246.79 252.189 247.579 252.488 248.305 252.872C249.051 253.256 249.713 253.715 250.289 254.248L247.601 257.256C247.217 256.893 246.779 256.573 246.289 256.296C245.819 255.997 245.329 255.763 244.817 255.592C244.305 255.421 243.835 255.336 243.409 255.336C243.089 255.336 242.801 255.368 242.545 255.432C242.31 255.475 242.107 255.56 241.937 255.688C241.766 255.795 241.638 255.933 241.553 256.104C241.467 256.253 241.425 256.435 241.425 256.648C241.425 256.861 241.478 257.064 241.585 257.256C241.713 257.448 241.883 257.608 242.097 257.736C242.31 257.864 242.651 258.013 243.121 258.184C243.59 258.333 244.23 258.525 245.041 258.76C246.043 259.037 246.907 259.347 247.633 259.688C248.358 260.029 248.934 260.435 249.361 260.904C249.702 261.267 249.958 261.693 250.129 262.184C250.299 262.653 250.385 263.165 250.385 263.72C250.385 264.808 250.075 265.779 249.457 266.632C248.859 267.464 248.027 268.125 246.961 268.616C245.894 269.085 244.678 269.32 243.312 269.32Z" fill="white"/>
</svg>
