<svg width="321" height="450" viewBox="0 0 321 450" fill="none" xmlns="http://www.w3.org/2000/svg">
<path d="M98.6455 106.065C91.2601 106.065 88.9512 117.605 88.9512 122.217C88.9512 130.044 97.259 162.37 105.103 162.37C112.947 162.37 121.26 130.503 121.26 126.835C121.26 123.167 111.566 106.065 98.6455 106.065Z" fill="#FFE0B3"/>
<path d="M248.487 83.8057L137.469 62.0249C129.788 60.518 122.218 66.1474 120.56 74.5986L73.9473 312.184C72.2893 320.635 77.1717 328.708 84.8525 330.215L195.87 351.996C203.551 353.502 211.122 347.873 212.78 339.422L259.392 101.836C261.05 93.3852 256.168 85.3126 248.487 83.8057Z" fill="white"/>
<path d="M135.304 222.865C136.272 218.416 140.664 215.594 145.113 216.563L182.076 224.609C186.526 225.577 189.347 229.969 188.379 234.418C187.41 238.867 183.018 241.689 178.569 240.721L141.606 232.675C137.157 231.706 134.335 227.314 135.304 222.865Z" fill="#4DABF7"/>
<path d="M152.645 225.006L153.762 225.25C153.96 224.263 153.3 223.409 152.072 223.142C150.863 222.879 149.832 223.353 149.62 224.356C149.44 225.169 149.912 225.76 150.795 226.186L151.363 226.467C151.931 226.743 152.228 226.988 152.15 227.36C152.059 227.764 151.617 227.955 151.024 227.826C150.419 227.694 150.043 227.319 150.126 226.759L148.998 226.514C148.768 227.713 149.487 228.515 150.825 228.807C152.171 229.1 153.103 228.628 153.326 227.619C153.523 226.701 152.937 226.063 152.025 225.639L151.556 225.412C151.1 225.198 150.738 224.932 150.832 224.538C150.909 224.183 151.281 223.99 151.852 224.115C152.409 224.236 152.696 224.564 152.645 225.006Z" fill="white"/>
<path d="M154.548 224.766L156.236 225.134L155.245 229.687L156.398 229.938L157.389 225.385L159.077 225.752L159.286 224.791L154.757 223.805L154.548 224.766Z" fill="white"/>
<path d="M159.101 230.526L159.784 229.358L161.774 229.791L161.909 231.137L163.158 231.409L162.458 225.481L160.955 225.154L157.851 230.254L159.101 230.526ZM160.278 228.512L161.411 226.573L161.454 226.583L161.678 228.817L160.278 228.512Z" fill="white"/>
<path d="M163.822 231.554L164.988 231.808L165.414 229.853L166.264 230.038L166.884 232.22L168.171 232.5L167.466 230.102C168.152 229.97 168.618 229.499 168.782 228.745C169.021 227.649 168.45 226.786 167.198 226.513L165.022 226.04L163.822 231.554ZM165.618 228.916L165.981 227.247L166.767 227.418C167.44 227.564 167.701 227.934 167.581 228.483C167.462 229.03 167.077 229.234 166.409 229.088L165.618 228.916Z" fill="white"/>
<path d="M169.579 228.038L171.267 228.406L170.276 232.959L171.429 233.21L172.42 228.657L174.108 229.024L174.317 228.063L169.788 227.077L169.579 228.038Z" fill="white"/>
<path d="M89.8793 168.396C80.1849 168.396 73.722 175.776 73.722 183.625C73.722 209.465 88.4928 230.693 94.9668 230.693C108.809 230.693 113.886 223.308 113.886 218.232C113.875 214.514 112.03 168.396 89.8793 168.396Z" fill="#FFE0B3"/>
<path d="M84.8028 236.206C87.5702 238.973 108.798 261.588 108.798 277.275C108.798 287.898 106.489 296.194 87.1062 296.194C77.8759 296.194 52.0355 259.737 52.0355 244.972C52.0355 236.664 57.1119 217.281 71.4186 217.281C75.5725 217.281 84.8028 224.667 86.1837 226.512C87.6059 227.984 89.1143 229.372 90.701 230.665C90.1196 233.668 86.9105 249.461 86.9105 249.461" fill="#FFE0B3"/>
<path fill-rule="evenodd" clip-rule="evenodd" d="M79.9733 231.018C80.4171 230.519 81.182 230.473 81.6817 230.917C83.8277 232.824 86.5562 235.877 88.7179 238.411C89.8059 239.686 90.7627 240.845 91.4476 241.685C91.7901 242.105 92.0649 242.446 92.2544 242.682C92.3491 242.8 92.4225 242.892 92.4725 242.955L92.5294 243.026L92.5491 243.051C92.5491 243.051 92.5495 243.051 91.601 243.803L90.6525 244.554L90.6346 244.532L90.58 244.463C90.5316 244.403 90.4599 244.313 90.3669 244.197C90.1809 243.965 89.91 243.629 89.5718 243.214C88.8951 242.385 87.9501 241.24 86.8765 239.981C84.7152 237.448 82.0822 234.51 80.0743 232.727C79.5747 232.283 79.5294 231.518 79.9733 231.018ZM92.3525 244.751C91.8287 245.166 91.0675 245.078 90.6525 244.554L91.601 243.803L92.5491 243.051C92.9641 243.575 92.8763 244.336 92.3525 244.751Z" fill="#FFAD61" fill-opacity="0.6"/>
<path d="M81.3533 329.045C79.9724 332.74 79.0332 368.421 83.1871 388.262C80.3917 402.569 69.3389 449.201 69.3389 449.201H169.508L179.661 408.59C179.661 408.59 241.472 354.567 247.471 344.884C253.469 335.2 267.547 278.661 267.346 273.356C267.184 269.666 199.966 212.898 198.121 210.589C196.276 208.28 163.817 240.779 217.812 278.181C217.348 282.793 217.376 303.166 217.376 303.166C217.376 303.166 179.817 316.075 176.004 318.859C172.191 321.643 164.896 341.261 163.576 345.661C158.472 344.665 81.3533 329.045 81.3533 329.045Z" fill="#FFE0B3"/>
<path fill-rule="evenodd" clip-rule="evenodd" d="M164.995 341.45C165.622 341.681 165.943 342.376 165.713 343.004C164.191 347.141 158.115 364.351 156.875 369.09C156.706 369.737 156.045 370.124 155.398 369.955C154.752 369.786 154.365 369.124 154.534 368.478C155.81 363.601 161.932 346.271 163.441 342.168C163.672 341.541 164.367 341.22 164.995 341.45Z" fill="#FFAD61" fill-opacity="0.6"/>
<path d="M197.136 145.012C189.848 143.919 184.296 138.407 182.431 135.788L178.317 137.622C180.882 143.278 188.271 147.294 191.645 148.596C189.123 158.187 181.812 163.399 178.471 164.806L182.282 168.167C193.898 161.539 197.025 149.969 197.136 145.012Z" fill="#4DABF7"/>
<path d="M178.03 142.505C176.783 141.137 175.738 139.056 175.371 138.186C171.215 139.211 166.733 138.641 165.011 138.229C158.251 157.845 173.333 171.308 174.574 171.37C175.567 171.419 178.244 170.211 179.458 169.6C168.086 160.623 167.483 148.487 168.603 143.541C172.047 144.044 176.323 143.06 178.03 142.505Z" fill="#4DABF7"/>
<path d="M180.327 144.903C176.261 146.284 172.522 146.488 171.161 146.418C170.341 153.394 174.38 160.102 176.501 162.585C184.026 158.974 187.381 152.782 188.118 150.137C184.868 148.751 181.57 146.07 180.327 144.903Z" fill="#4DABF7"/>
<path d="M143.616 180.698L145.275 173.136L148.537 173.852C149.013 173.956 149.41 174.157 149.73 174.453C150.057 174.751 150.288 175.111 150.422 175.533C150.563 175.957 150.582 176.403 150.479 176.871C150.372 177.36 150.164 177.775 149.855 178.115C149.555 178.45 149.194 178.687 148.77 178.828C148.354 178.971 147.908 178.99 147.433 178.886L146.007 178.573L145.453 181.101L143.616 180.698ZM146.328 176.956L147.527 177.219C147.685 177.254 147.838 177.246 147.985 177.195C148.132 177.145 148.26 177.06 148.369 176.94C148.479 176.821 148.553 176.671 148.592 176.491C148.634 176.304 148.629 176.136 148.578 175.989C148.527 175.842 148.445 175.719 148.331 175.618C148.217 175.518 148.081 175.45 147.923 175.415L146.723 175.152L146.328 176.956Z" fill="#4DABF7"/>
<path d="M152.576 182.765C152.093 182.66 151.689 182.439 151.362 182.103C151.045 181.762 150.823 181.343 150.698 180.848C150.574 180.345 150.575 179.809 150.699 179.24C150.827 178.657 151.052 178.166 151.373 177.769C151.694 177.371 152.077 177.089 152.521 176.922C152.967 176.748 153.438 176.716 153.935 176.825C154.209 176.885 154.449 176.979 154.655 177.107C154.868 177.237 155.045 177.393 155.186 177.575C155.329 177.75 155.441 177.944 155.522 178.158C155.605 178.365 155.653 178.579 155.665 178.801L155.317 178.679L155.616 177.318L157.334 177.695L156.075 183.431L154.325 183.047L154.629 181.665L155.02 181.739C154.918 181.928 154.783 182.098 154.614 182.25C154.444 182.402 154.251 182.525 154.034 182.621C153.817 182.717 153.584 182.779 153.336 182.808C153.088 182.836 152.835 182.822 152.576 182.765ZM153.371 181.411C153.637 181.47 153.881 181.459 154.103 181.379C154.324 181.299 154.513 181.16 154.67 180.96C154.829 180.753 154.942 180.495 155.01 180.186C155.078 179.876 155.082 179.598 155.023 179.351C154.966 179.096 154.853 178.887 154.685 178.722C154.519 178.549 154.303 178.434 154.037 178.376C153.777 178.319 153.536 178.334 153.313 178.421C153.099 178.502 152.913 178.646 152.754 178.853C152.597 179.053 152.485 179.307 152.417 179.617C152.349 179.927 152.344 180.208 152.401 180.463C152.46 180.71 152.57 180.915 152.731 181.078C152.898 181.243 153.112 181.354 153.371 181.411Z" fill="#4DABF7"/>
<path d="M159.511 184.298C158.949 184.175 158.472 183.976 158.079 183.701C157.694 183.428 157.408 183.112 157.222 182.754L158.469 182.077C158.644 182.349 158.859 182.57 159.116 182.74C159.375 182.902 159.631 183.011 159.883 183.066C159.984 183.088 160.076 183.097 160.16 183.093C160.244 183.089 160.315 183.074 160.373 183.049C160.44 183.019 160.494 182.981 160.534 182.937C160.575 182.886 160.604 182.824 160.62 182.752C160.651 182.608 160.611 182.482 160.499 182.375C160.442 182.324 160.343 182.258 160.203 182.174C160.063 182.09 159.881 181.99 159.658 181.873C159.338 181.712 159.065 181.547 158.838 181.376C158.62 181.2 158.449 181.016 158.325 180.822C158.215 180.639 158.139 180.449 158.1 180.252C158.061 180.047 158.068 179.83 158.118 179.599C158.177 179.333 158.291 179.105 158.461 178.916C158.638 178.728 158.848 178.578 159.092 178.465C159.342 178.354 159.613 178.289 159.904 178.27C160.204 178.245 160.502 178.265 160.797 178.33C161.114 178.399 161.408 178.502 161.681 178.637C161.953 178.772 162.197 178.932 162.414 179.115C162.637 179.3 162.827 179.504 162.982 179.726L161.852 180.543C161.749 180.392 161.625 180.251 161.48 180.122C161.343 179.986 161.195 179.87 161.035 179.775C160.875 179.679 160.723 179.616 160.579 179.584C160.471 179.56 160.371 179.55 160.28 179.553C160.197 179.55 160.123 179.563 160.056 179.594C159.99 179.617 159.937 179.655 159.895 179.706C159.855 179.75 159.827 179.808 159.812 179.88C159.796 179.952 159.799 180.025 159.821 180.097C159.85 180.172 159.895 180.238 159.958 180.297C160.02 180.356 160.125 180.432 160.27 180.524C160.418 180.609 160.62 180.722 160.876 180.861C161.194 181.029 161.463 181.197 161.682 181.366C161.902 181.535 162.066 181.715 162.176 181.905C162.264 182.052 162.319 182.215 162.34 182.394C162.363 182.565 162.354 182.744 162.313 182.931C162.232 183.298 162.056 183.603 161.784 183.845C161.521 184.082 161.191 184.244 160.794 184.33C160.399 184.41 159.972 184.399 159.511 184.298Z" fill="#4DABF7"/>
<path d="M164.859 185.471C164.298 185.348 163.82 185.149 163.428 184.874C163.042 184.601 162.757 184.285 162.571 183.928L163.818 183.25C163.992 183.522 164.208 183.743 164.465 183.913C164.724 184.075 164.979 184.184 165.231 184.239C165.332 184.261 165.425 184.27 165.509 184.266C165.593 184.262 165.664 184.247 165.722 184.222C165.789 184.192 165.843 184.154 165.882 184.11C165.924 184.059 165.952 183.997 165.968 183.925C166 183.781 165.96 183.656 165.847 183.548C165.79 183.498 165.692 183.431 165.552 183.347C165.411 183.264 165.23 183.163 165.006 183.046C164.687 182.886 164.414 182.72 164.187 182.55C163.969 182.373 163.798 182.189 163.674 181.996C163.563 181.813 163.488 181.623 163.448 181.425C163.41 181.221 163.416 181.003 163.467 180.773C163.525 180.506 163.639 180.278 163.809 180.089C163.986 179.901 164.197 179.751 164.44 179.639C164.691 179.528 164.962 179.462 165.253 179.443C165.553 179.418 165.85 179.438 166.146 179.503C166.463 179.573 166.757 179.675 167.029 179.81C167.302 179.945 167.546 180.105 167.763 180.288C167.986 180.473 168.175 180.677 168.33 180.9L167.2 181.716C167.097 181.565 166.973 181.425 166.828 181.295C166.692 181.159 166.544 181.044 166.384 180.948C166.223 180.853 166.071 180.789 165.927 180.757C165.819 180.734 165.72 180.723 165.628 180.726C165.546 180.723 165.471 180.737 165.404 180.767C165.339 180.791 165.285 180.828 165.244 180.879C165.204 180.923 165.176 180.981 165.16 181.053C165.144 181.125 165.147 181.198 165.169 181.27C165.198 181.345 165.244 181.411 165.307 181.47C165.369 181.529 165.473 181.605 165.619 181.698C165.766 181.783 165.968 181.895 166.225 182.034C166.543 182.202 166.811 182.37 167.031 182.539C167.251 182.708 167.415 182.888 167.524 183.078C167.613 183.226 167.667 183.389 167.689 183.567C167.712 183.738 167.702 183.917 167.661 184.104C167.581 184.472 167.405 184.776 167.132 185.019C166.869 185.255 166.539 185.417 166.143 185.504C165.748 185.583 165.32 185.572 164.859 185.471Z" fill="#4DABF7"/>
<path d="M168.482 186.152L170.14 178.59L171.782 178.951L174.562 185.222L174.218 185.089C174.234 184.844 174.255 184.611 174.28 184.39C174.306 184.169 174.331 183.952 174.355 183.738C174.387 183.526 174.419 183.311 174.452 183.092C174.492 182.874 174.536 182.638 174.584 182.385C174.64 182.133 174.7 181.859 174.765 181.564L175.174 179.695L176.957 180.086L175.298 187.648L173.635 187.283L170.72 180.801L171.254 180.997C171.214 181.351 171.178 181.653 171.146 181.902C171.123 182.146 171.098 182.363 171.071 182.554C171.052 182.746 171.029 182.918 171.003 183.071C170.977 183.224 170.948 183.376 170.914 183.527C170.89 183.673 170.858 183.836 170.819 184.016L170.264 186.543L168.482 186.152Z" fill="#4DABF7"/>
<path d="M179.689 188.724C179.091 188.593 178.587 188.346 178.175 187.984C177.771 187.624 177.482 187.191 177.306 186.684C177.137 186.179 177.116 185.638 177.243 185.062C177.369 184.486 177.614 184.004 177.979 183.616C178.35 183.23 178.795 182.957 179.313 182.799C179.838 182.642 180.399 182.63 180.997 182.761C181.595 182.892 182.096 183.138 182.5 183.498C182.911 183.86 183.201 184.293 183.369 184.798C183.538 185.303 183.559 185.844 183.433 186.42C183.306 186.996 183.061 187.478 182.696 187.866C182.332 188.255 181.887 188.527 181.362 188.683C180.845 188.842 180.287 188.855 179.689 188.724ZM180.016 187.233C180.275 187.29 180.52 187.276 180.75 187.19C180.98 187.105 181.177 186.963 181.341 186.765C181.506 186.567 181.616 186.324 181.672 186.034C181.742 185.747 181.744 185.48 181.678 185.231C181.613 184.976 181.494 184.761 181.321 184.587C181.148 184.413 180.932 184.298 180.672 184.241C180.413 184.184 180.165 184.197 179.928 184.281C179.697 184.367 179.5 184.512 179.334 184.717C179.17 184.915 179.059 185.159 179.003 185.449C178.933 185.735 178.931 186.003 178.997 186.251C179.064 186.5 179.183 186.711 179.356 186.885C179.537 187.06 179.757 187.176 180.016 187.233Z" fill="#4DABF7"/>
<path d="M184.408 189.646L185.984 182.462L187.712 182.841L186.136 190.025L184.408 189.646ZM184.319 185.199L184.651 183.687L188.507 184.533L188.176 186.045L184.319 185.199Z" fill="#4DABF7"/>
<path d="M190.893 191.182C190.26 191.043 189.736 190.796 189.324 190.441C188.912 190.079 188.625 189.65 188.462 189.154C188.301 188.65 188.283 188.114 188.408 187.545C188.504 187.106 188.664 186.719 188.889 186.383C189.114 186.047 189.385 185.774 189.702 185.565C190.022 185.348 190.374 185.206 190.758 185.14C191.151 185.067 191.561 185.078 191.985 185.171C192.389 185.26 192.74 185.412 193.04 185.629C193.347 185.847 193.594 186.113 193.782 186.426C193.97 186.739 194.09 187.086 194.143 187.467C194.195 187.849 194.168 188.247 194.062 188.661L193.949 189.123L189.38 188.121L189.344 187.094L192.758 187.843L192.529 188.008L192.577 187.792C192.602 187.609 192.579 187.438 192.508 187.279C192.446 187.114 192.345 186.975 192.204 186.861C192.063 186.747 191.891 186.668 191.69 186.623C191.409 186.562 191.155 186.567 190.928 186.638C190.71 186.703 190.526 186.833 190.378 187.027C190.232 187.213 190.124 187.461 190.056 187.771C189.987 188.088 189.991 188.38 190.068 188.646C190.155 188.906 190.31 189.129 190.533 189.314C190.764 189.5 191.056 189.632 191.409 189.71C191.654 189.763 191.878 189.775 192.081 189.744C192.291 189.714 192.527 189.638 192.788 189.514L193.347 190.837C193.081 190.982 192.809 191.088 192.53 191.156C192.251 191.223 191.972 191.256 191.693 191.255C191.419 191.263 191.153 191.239 190.893 191.182Z" fill="#4DABF7"/>
<path d="M196.424 192.395C195.862 192.272 195.385 192.073 194.992 191.798C194.607 191.524 194.321 191.209 194.136 190.851L195.383 190.174C195.557 190.446 195.773 190.667 196.03 190.836C196.288 190.999 196.544 191.108 196.796 191.163C196.897 191.185 196.989 191.194 197.073 191.19C197.157 191.186 197.228 191.171 197.287 191.146C197.354 191.115 197.407 191.078 197.447 191.034C197.488 190.983 197.517 190.921 197.533 190.849C197.564 190.705 197.524 190.579 197.412 190.472C197.355 190.421 197.256 190.354 197.116 190.271C196.976 190.187 196.794 190.087 196.571 189.97C196.251 189.809 195.978 189.644 195.751 189.473C195.533 189.297 195.362 189.112 195.239 188.919C195.128 188.736 195.053 188.546 195.013 188.349C194.975 188.144 194.981 187.927 195.031 187.696C195.09 187.43 195.204 187.202 195.374 187.013C195.551 186.825 195.761 186.675 196.005 186.562C196.256 186.451 196.527 186.386 196.818 186.367C197.117 186.342 197.415 186.362 197.71 186.427C198.027 186.496 198.322 186.599 198.594 186.734C198.866 186.869 199.111 187.028 199.327 187.212C199.551 187.397 199.74 187.601 199.895 187.823L198.765 188.64C198.662 188.489 198.538 188.348 198.393 188.218C198.257 188.083 198.108 187.967 197.948 187.872C197.788 187.776 197.636 187.713 197.492 187.681C197.384 187.657 197.284 187.647 197.193 187.649C197.111 187.646 197.036 187.66 196.969 187.691C196.903 187.714 196.85 187.752 196.808 187.803C196.768 187.847 196.741 187.905 196.725 187.977C196.709 188.049 196.712 188.121 196.734 188.194C196.763 188.268 196.809 188.335 196.871 188.394C196.934 188.453 197.038 188.529 197.184 188.621C197.331 188.706 197.533 188.819 197.789 188.958C198.107 189.126 198.376 189.294 198.595 189.463C198.815 189.632 198.98 189.811 199.089 190.001C199.177 190.149 199.232 190.312 199.253 190.49C199.276 190.662 199.267 190.841 199.226 191.028C199.145 191.395 198.969 191.7 198.697 191.942C198.434 192.179 198.104 192.341 197.708 192.427C197.313 192.507 196.885 192.496 196.424 192.395Z" fill="#4DABF7"/>
<path d="M11.9807 202.031C11.9807 205.34 9.29876 208.022 5.99037 208.022C2.68198 208.022 0 205.34 0 202.031C0 198.723 2.68198 196.041 5.99037 196.041C9.29876 196.041 11.9807 198.723 11.9807 202.031Z" fill="#A5D8FF"/>
<path d="M141.465 78.5983C141.465 81.9067 138.783 84.5886 135.474 84.5886C132.166 84.5886 129.484 81.9067 129.484 78.5983C129.484 75.2899 132.166 72.6079 135.474 72.6079C138.783 72.6079 141.465 75.2899 141.465 78.5983Z" fill="#A5D8FF"/>
<path d="M262.477 364.189C262.477 367.497 259.795 370.179 256.487 370.179C253.179 370.179 250.497 367.497 250.497 364.189C250.497 360.88 253.179 358.198 256.487 358.198C259.795 358.198 262.477 360.88 262.477 364.189Z" fill="#A5D8FF"/>
<path d="M53.4728 392.195C53.4728 394.263 51.7966 395.939 49.7288 395.939C47.6611 395.939 45.9849 394.263 45.9849 392.195C45.9849 390.127 47.6611 388.451 49.7288 388.451C51.7966 388.451 53.4728 390.127 53.4728 392.195Z" fill="#A5D8FF"/>
<path d="M320.156 122.564C320.156 128.767 315.127 133.796 308.924 133.796C302.72 133.796 297.692 128.767 297.692 122.564C297.692 116.361 302.72 111.332 308.924 111.332C315.127 111.332 320.156 116.361 320.156 122.564Z" fill="#A5D8FF"/>
<path d="M74.2167 10.4831C74.2167 16.2728 69.5232 20.9663 63.7335 20.9663C57.9438 20.9663 53.2504 16.2728 53.2504 10.4831C53.2504 4.69346 57.9438 0 63.7335 0C69.5232 0 74.2167 4.69346 74.2167 10.4831Z" fill="#A5D8FF"/>
</svg>
