<svg width="32" height="32" viewBox="0 0 32 32" fill="none" xmlns="http://www.w3.org/2000/svg">
<rect width="32" height="32" rx="4" fill="url(#paint0_linear_597_14)"/>
<path d="M15.9999 5.33334C17.4144 5.33334 18.771 5.89525 19.7712 6.89544C20.7713 7.89563 21.3333 9.25219 21.3333 10.6667C21.3333 12.0812 20.7713 13.4377 19.7712 14.4379C18.771 15.4381 17.4144 16 15.9999 16C14.5854 16 13.2289 15.4381 12.2287 14.4379C11.2285 13.4377 10.6666 12.0812 10.6666 10.6667C10.6666 9.25219 11.2285 7.89563 12.2287 6.89544C13.2289 5.89525 14.5854 5.33334 15.9999 5.33334ZM15.9999 18.6667C21.8933 18.6667 26.6666 21.0533 26.6666 24V26.6667H5.33325V24C5.33325 21.0533 10.1066 18.6667 15.9999 18.6667Z" fill="white"/>
<defs>
<linearGradient id="paint0_linear_597_14" x1="4.76837e-07" y1="32" x2="37.1317" y2="24.0903" gradientUnits="userSpaceOnUse">
<stop stop-color="#1C7ED6"/>
<stop offset="1" stop-color="#339AF0"/>
</linearGradient>
</defs>
</svg>
