<svg width="194" height="205" viewBox="0 0 194 205" fill="none" xmlns="http://www.w3.org/2000/svg">
<path d="M173.302 51.1712C139.203 53.4592 108.577 34.0104 97.5265 24L80.7138 36.3939C97.9528 59.4655 135.414 70.3181 151.99 72.8604C150.096 118.813 122.154 149.686 108.419 159.379L129.021 170.82C175.054 129.252 177.722 73.7343 173.302 51.1712Z" fill="#F8F9FA"/>
<path d="M84.2658 58.7981C77.2566 53.8406 70.4525 45.4509 67.9267 41.8758C50.1194 50.6468 29.2496 52.5218 21.0405 52.3629C9.91099 147.939 91.6066 193.939 97.2897 192.985C101.836 192.223 112.761 184.087 117.654 180.115C57.2234 150.751 42.4314 96.377 42.5892 72.8604C58.6915 71.7164 77.0829 63.0089 84.2658 58.7981Z" fill="#F8F9FA"/>
<path d="M97.0002 83.8335C83.7085 83.8335 72.8335 94.7085 72.8335 108C72.8335 121.292 83.7085 132.167 97.0002 132.167C110.292 132.167 121.167 121.292 121.167 108C121.167 94.7085 110.292 83.8335 97.0002 83.8335ZM92.1668 120.083L80.0835 108L83.491 104.593L92.1668 113.244L110.509 94.9018L113.917 98.3335L92.1668 120.083Z" fill="#F8F9FA"/>
<circle cx="12" cy="172" r="12" fill="#F8F9FA"/>
<circle opacity="0.8" cx="46" cy="197" r="8" fill="#F8F9FA"/>
<circle cx="145" cy="12" r="12" fill="#F8F9FA"/>
<circle opacity="0.8" cx="186" cy="32" r="8" fill="#F8F9FA"/>
</svg>
