<svg width="194" height="280" viewBox="0 0 194 280" fill="none" xmlns="http://www.w3.org/2000/svg">
<path d="M38.6566 249V235H49.1166V238.5H42.7966V245.5H49.4766V249H38.6566ZM40.7166 243.56V240.28H48.3766V243.56H40.7166ZM55.476 249.2C54.316 249.2 53.3027 249.027 52.436 248.68C51.5827 248.32 50.916 247.873 50.436 247.34L52.796 245.32C53.2227 245.693 53.7093 245.973 54.256 246.16C54.816 246.333 55.2827 246.42 55.656 246.42C55.7893 246.42 55.9027 246.413 55.996 246.4C56.1027 246.373 56.1827 246.34 56.236 246.3C56.3027 246.247 56.3493 246.193 56.376 246.14C56.416 246.087 56.436 246.02 56.436 245.94C56.436 245.74 56.3293 245.593 56.116 245.5C55.996 245.447 55.796 245.38 55.516 245.3C55.2493 245.22 54.896 245.127 54.456 245.02C53.936 244.887 53.456 244.72 53.016 244.52C52.5893 244.32 52.2227 244.087 51.916 243.82C51.596 243.527 51.3427 243.193 51.156 242.82C50.9827 242.447 50.896 242.027 50.896 241.56C50.896 241.013 51.0227 240.527 51.276 240.1C51.5293 239.673 51.876 239.313 52.316 239.02C52.756 238.713 53.2493 238.48 53.796 238.32C54.3427 238.16 54.9027 238.08 55.476 238.08C56.1293 238.08 56.736 238.147 57.296 238.28C57.8693 238.4 58.4027 238.58 58.896 238.82C59.4027 239.047 59.8627 239.32 60.276 239.64L58.216 241.94C57.9893 241.753 57.7227 241.573 57.416 241.4C57.1227 241.227 56.8093 241.087 56.476 240.98C56.156 240.86 55.856 240.8 55.576 240.8C55.4293 240.8 55.3027 240.813 55.196 240.84C55.1027 240.853 55.0227 240.887 54.956 240.94C54.8893 240.98 54.836 241.033 54.796 241.1C54.7693 241.153 54.756 241.22 54.756 241.3C54.756 241.407 54.7893 241.507 54.856 241.6C54.9227 241.693 55.0293 241.773 55.176 241.84C55.296 241.893 55.496 241.967 55.776 242.06C56.0693 242.153 56.496 242.28 57.056 242.44C57.656 242.613 58.1827 242.813 58.636 243.04C59.1027 243.267 59.476 243.533 59.756 243.84C59.9427 244.053 60.0893 244.293 60.196 244.56C60.3027 244.827 60.356 245.113 60.356 245.42C60.356 246.153 60.1427 246.807 59.716 247.38C59.3027 247.94 58.7293 248.387 57.996 248.72C57.2627 249.04 56.4227 249.2 55.476 249.2ZM68.6527 253.4V246.38L69.5527 246.66C69.4727 247.02 69.3127 247.36 69.0727 247.68C68.8461 247.987 68.5661 248.253 68.2327 248.48C67.8994 248.693 67.5261 248.867 67.1127 249C66.6994 249.12 66.2661 249.18 65.8127 249.18C64.9061 249.18 64.0994 248.947 63.3927 248.48C62.6994 248 62.1527 247.347 61.7527 246.52C61.3527 245.68 61.1527 244.72 61.1527 243.64C61.1527 242.547 61.3461 241.587 61.7327 240.76C62.1327 239.92 62.6727 239.267 63.3527 238.8C64.0461 238.32 64.8327 238.08 65.7127 238.08C66.2061 238.08 66.6727 238.14 67.1127 238.26C67.5527 238.38 67.9394 238.547 68.2727 238.76C68.6194 238.973 68.9061 239.227 69.1327 239.52C69.3594 239.813 69.5061 240.133 69.5727 240.48L68.7527 240.66L68.9727 238.3H72.7327V253.4H68.6527ZM66.9327 245.88C67.3194 245.88 67.6461 245.793 67.9127 245.62C68.1927 245.447 68.3994 245.193 68.5327 244.86C68.6794 244.527 68.7527 244.12 68.7527 243.64C68.7527 243.16 68.6794 242.753 68.5327 242.42C68.3994 242.073 68.1927 241.813 67.9127 241.64C67.6461 241.467 67.3194 241.38 66.9327 241.38C66.5461 241.38 66.2194 241.467 65.9527 241.64C65.6861 241.813 65.4794 242.073 65.3327 242.42C65.1994 242.753 65.1327 243.16 65.1327 243.64C65.1327 244.12 65.1994 244.527 65.3327 244.86C65.4794 245.193 65.6861 245.447 65.9527 245.62C66.2194 245.793 66.5461 245.88 66.9327 245.88ZM79.107 249.22C78.2936 249.22 77.607 249.053 77.047 248.72C76.487 248.387 76.0603 247.9 75.767 247.26C75.4736 246.607 75.327 245.82 75.327 244.9V238.3H79.387V244.56C79.387 244.853 79.4336 245.1 79.527 245.3C79.6336 245.5 79.7803 245.653 79.967 245.76C80.1536 245.867 80.3803 245.92 80.647 245.92C80.847 245.92 81.027 245.893 81.187 245.84C81.3603 245.773 81.507 245.68 81.627 245.56C81.747 245.44 81.8403 245.307 81.907 245.16C81.9736 245 82.007 244.833 82.007 244.66V238.3H86.067V249H82.347L82.107 246.84L82.867 246.6C82.7203 247.107 82.4603 247.56 82.087 247.96C81.727 248.347 81.287 248.653 80.767 248.88C80.247 249.107 79.6936 249.22 79.107 249.22ZM94.0859 249.2C92.8459 249.2 91.7792 248.96 90.8859 248.48C89.9925 248 89.3059 247.347 88.8259 246.52C88.3459 245.68 88.1059 244.72 88.1059 243.64C88.1059 242.84 88.2392 242.1 88.5059 241.42C88.7725 240.74 89.1459 240.153 89.6259 239.66C90.1192 239.153 90.6925 238.767 91.3459 238.5C92.0125 238.22 92.7392 238.08 93.5259 238.08C94.3125 238.08 95.0259 238.22 95.6659 238.5C96.3192 238.767 96.8792 239.153 97.3459 239.66C97.8125 240.153 98.1659 240.74 98.4059 241.42C98.6592 242.1 98.7725 242.84 98.7459 243.64L98.7259 244.48H90.3459L89.8859 242.58H95.5059L95.1259 242.98V242.62C95.1259 242.367 95.0592 242.147 94.9259 241.96C94.8059 241.76 94.6325 241.607 94.4059 241.5C94.1792 241.393 93.9125 241.34 93.6059 241.34C93.2192 241.34 92.8925 241.42 92.6259 241.58C92.3592 241.74 92.1525 241.967 92.0059 242.26C91.8725 242.553 91.8059 242.907 91.8059 243.32C91.8059 243.8 91.9059 244.22 92.1059 244.58C92.3192 244.94 92.6259 245.22 93.0259 245.42C93.4392 245.62 93.9459 245.72 94.5459 245.72C94.9459 245.72 95.2859 245.673 95.5659 245.58C95.8592 245.473 96.1659 245.307 96.4859 245.08L98.3459 247.7C97.8525 248.087 97.3659 248.387 96.8859 248.6C96.4192 248.813 95.9525 248.967 95.4859 249.06C95.0325 249.153 94.5659 249.2 94.0859 249.2ZM105.445 249.2C104.365 249.2 103.398 248.96 102.545 248.48C101.705 248 101.038 247.347 100.545 246.52C100.065 245.68 99.8246 244.72 99.8246 243.64C99.8246 242.56 100.065 241.607 100.545 240.78C101.038 239.94 101.705 239.28 102.545 238.8C103.398 238.32 104.365 238.08 105.445 238.08C106.405 238.08 107.291 238.227 108.105 238.52C108.918 238.813 109.578 239.24 110.085 239.8L107.885 242.4C107.738 242.24 107.565 242.093 107.365 241.96C107.165 241.827 106.938 241.727 106.685 241.66C106.431 241.58 106.138 241.54 105.805 241.54C105.405 241.54 105.051 241.627 104.745 241.8C104.451 241.973 104.225 242.22 104.065 242.54C103.905 242.847 103.825 243.207 103.825 243.62C103.825 244.02 103.898 244.38 104.045 244.7C104.205 245.007 104.431 245.253 104.725 245.44C105.031 245.627 105.391 245.72 105.805 245.72C106.138 245.72 106.431 245.687 106.685 245.62C106.938 245.553 107.165 245.46 107.365 245.34C107.565 245.207 107.738 245.053 107.885 244.88L110.065 247.5C109.571 248.047 108.918 248.467 108.105 248.76C107.291 249.053 106.405 249.2 105.445 249.2ZM116.859 249.2C115.619 249.2 114.553 248.96 113.659 248.48C112.766 248 112.079 247.347 111.599 246.52C111.119 245.68 110.879 244.72 110.879 243.64C110.879 242.84 111.013 242.1 111.279 241.42C111.546 240.74 111.919 240.153 112.399 239.66C112.893 239.153 113.466 238.767 114.119 238.5C114.786 238.22 115.513 238.08 116.299 238.08C117.086 238.08 117.799 238.22 118.439 238.5C119.093 238.767 119.653 239.153 120.119 239.66C120.586 240.153 120.939 240.74 121.179 241.42C121.433 242.1 121.546 242.84 121.519 243.64L121.499 244.48H113.119L112.659 242.58H118.279L117.899 242.98V242.62C117.899 242.367 117.833 242.147 117.699 241.96C117.579 241.76 117.406 241.607 117.179 241.5C116.953 241.393 116.686 241.34 116.379 241.34C115.993 241.34 115.666 241.42 115.399 241.58C115.133 241.74 114.926 241.967 114.779 242.26C114.646 242.553 114.579 242.907 114.579 243.32C114.579 243.8 114.679 244.22 114.879 244.58C115.093 244.94 115.399 245.22 115.799 245.42C116.213 245.62 116.719 245.72 117.319 245.72C117.719 245.72 118.059 245.673 118.339 245.58C118.633 245.473 118.939 245.307 119.259 245.08L121.119 247.7C120.626 248.087 120.139 248.387 119.659 248.6C119.193 248.813 118.726 248.967 118.259 249.06C117.806 249.153 117.339 249.2 116.859 249.2ZM126.978 249.22C126.165 249.22 125.478 249.053 124.918 248.72C124.358 248.387 123.931 247.9 123.638 247.26C123.345 246.607 123.198 245.82 123.198 244.9V238.3H127.258V244.56C127.258 244.853 127.305 245.1 127.398 245.3C127.505 245.5 127.651 245.653 127.838 245.76C128.025 245.867 128.251 245.92 128.518 245.92C128.718 245.92 128.898 245.893 129.058 245.84C129.231 245.773 129.378 245.68 129.498 245.56C129.618 245.44 129.711 245.307 129.778 245.16C129.845 245 129.878 244.833 129.878 244.66V238.3H133.938V249H130.218L129.978 246.84L130.738 246.6C130.591 247.107 130.331 247.56 129.958 247.96C129.598 248.347 129.158 248.653 128.638 248.88C128.118 249.107 127.565 249.22 126.978 249.22ZM147.589 249.18C146.696 249.18 145.902 248.947 145.209 248.48C144.516 248 143.969 247.347 143.569 246.52C143.169 245.68 142.969 244.72 142.969 243.64C142.969 242.547 143.162 241.587 143.549 240.76C143.949 239.92 144.496 239.267 145.189 238.8C145.896 238.32 146.709 238.08 147.629 238.08C148.109 238.08 148.549 238.147 148.949 238.28C149.349 238.413 149.702 238.6 150.009 238.84C150.316 239.08 150.582 239.36 150.809 239.68C151.036 239.987 151.229 240.32 151.389 240.68L150.569 240.66V238.3H154.549V249H150.469V246.38L151.369 246.46C151.236 246.847 151.049 247.207 150.809 247.54C150.582 247.873 150.309 248.16 149.989 248.4C149.669 248.64 149.309 248.833 148.909 248.98C148.509 249.113 148.069 249.18 147.589 249.18ZM148.749 245.88C149.136 245.88 149.462 245.793 149.729 245.62C150.009 245.447 150.216 245.193 150.349 244.86C150.496 244.527 150.569 244.12 150.569 243.64C150.569 243.16 150.496 242.753 150.349 242.42C150.216 242.073 150.009 241.813 149.729 241.64C149.462 241.467 149.136 241.38 148.749 241.38C148.362 241.38 148.036 241.467 147.769 241.64C147.502 241.813 147.296 242.073 147.149 242.42C147.016 242.753 146.949 243.16 146.949 243.64C146.949 244.12 147.016 244.527 147.149 244.86C147.296 245.193 147.502 245.447 147.769 245.62C148.036 245.793 148.362 245.88 148.749 245.88ZM65.0073 279.2C63.8473 279.2 62.8339 279.027 61.9673 278.68C61.1139 278.32 60.4473 277.873 59.9673 277.34L62.3273 275.32C62.7539 275.693 63.2406 275.973 63.7873 276.16C64.3473 276.333 64.8139 276.42 65.1873 276.42C65.3206 276.42 65.4339 276.413 65.5273 276.4C65.6339 276.373 65.7139 276.34 65.7673 276.3C65.8339 276.247 65.8806 276.193 65.9073 276.14C65.9473 276.087 65.9673 276.02 65.9673 275.94C65.9673 275.74 65.8606 275.593 65.6473 275.5C65.5273 275.447 65.3273 275.38 65.0473 275.3C64.7806 275.22 64.4273 275.127 63.9873 275.02C63.4673 274.887 62.9873 274.72 62.5473 274.52C62.1206 274.32 61.7539 274.087 61.4473 273.82C61.1273 273.527 60.8739 273.193 60.6873 272.82C60.5139 272.447 60.4273 272.027 60.4273 271.56C60.4273 271.013 60.5539 270.527 60.8073 270.1C61.0606 269.673 61.4073 269.313 61.8473 269.02C62.2873 268.713 62.7806 268.48 63.3273 268.32C63.8739 268.16 64.4339 268.08 65.0073 268.08C65.6606 268.08 66.2673 268.147 66.8273 268.28C67.4006 268.4 67.9339 268.58 68.4273 268.82C68.9339 269.047 69.3939 269.32 69.8073 269.64L67.7473 271.94C67.5206 271.753 67.2539 271.573 66.9473 271.4C66.6539 271.227 66.3406 271.087 66.0073 270.98C65.6873 270.86 65.3873 270.8 65.1073 270.8C64.9606 270.8 64.8339 270.813 64.7273 270.84C64.6339 270.853 64.5539 270.887 64.4873 270.94C64.4206 270.98 64.3673 271.033 64.3273 271.1C64.3006 271.153 64.2873 271.22 64.2873 271.3C64.2873 271.407 64.3206 271.507 64.3873 271.6C64.4539 271.693 64.5606 271.773 64.7073 271.84C64.8273 271.893 65.0273 271.967 65.3073 272.06C65.6006 272.153 66.0273 272.28 66.5873 272.44C67.1873 272.613 67.7139 272.813 68.1673 273.04C68.6339 273.267 69.0073 273.533 69.2873 273.84C69.4739 274.053 69.6206 274.293 69.7273 274.56C69.8339 274.827 69.8873 275.113 69.8873 275.42C69.8873 276.153 69.6739 276.807 69.2473 277.38C68.8339 277.94 68.2606 278.387 67.5273 278.72C66.7939 279.04 65.9539 279.2 65.0073 279.2ZM76.664 279.2C75.424 279.2 74.3573 278.96 73.464 278.48C72.5707 278 71.884 277.347 71.404 276.52C70.924 275.68 70.684 274.72 70.684 273.64C70.684 272.84 70.8173 272.1 71.084 271.42C71.3507 270.74 71.724 270.153 72.204 269.66C72.6973 269.153 73.2707 268.767 73.924 268.5C74.5907 268.22 75.3173 268.08 76.104 268.08C76.8907 268.08 77.604 268.22 78.244 268.5C78.8973 268.767 79.4573 269.153 79.924 269.66C80.3907 270.153 80.744 270.74 80.984 271.42C81.2373 272.1 81.3507 272.84 81.324 273.64L81.304 274.48H72.924L72.464 272.58H78.084L77.704 272.98V272.62C77.704 272.367 77.6373 272.147 77.504 271.96C77.384 271.76 77.2107 271.607 76.984 271.5C76.7573 271.393 76.4907 271.34 76.184 271.34C75.7973 271.34 75.4707 271.42 75.204 271.58C74.9373 271.74 74.7307 271.967 74.584 272.26C74.4507 272.553 74.384 272.907 74.384 273.32C74.384 273.8 74.484 274.22 74.684 274.58C74.8973 274.94 75.204 275.22 75.604 275.42C76.0173 275.62 76.524 275.72 77.124 275.72C77.524 275.72 77.864 275.673 78.144 275.58C78.4373 275.473 78.744 275.307 79.064 275.08L80.924 277.7C80.4307 278.087 79.944 278.387 79.464 278.6C78.9973 278.813 78.5307 278.967 78.064 279.06C77.6107 279.153 77.144 279.2 76.664 279.2ZM83.2027 279V268.3H86.9627L87.1627 270.46L86.3027 270.7C86.4494 270.193 86.7094 269.747 87.0827 269.36C87.4694 268.96 87.9294 268.647 88.4627 268.42C88.9961 268.193 89.5627 268.08 90.1627 268.08C90.9627 268.08 91.6427 268.247 92.2027 268.58C92.7627 268.913 93.1827 269.407 93.4627 270.06C93.7561 270.7 93.9027 271.48 93.9027 272.4V279H89.8427V272.74C89.8427 272.447 89.7961 272.2 89.7027 272C89.6094 271.8 89.4694 271.647 89.2827 271.54C89.0961 271.433 88.8761 271.38 88.6227 271.38C88.4227 271.38 88.2361 271.413 88.0627 271.48C87.9027 271.533 87.7627 271.62 87.6427 271.74C87.5227 271.86 87.4294 271.993 87.3627 272.14C87.2961 272.287 87.2627 272.453 87.2627 272.64V279H85.2427C84.7361 279 84.3094 279 83.9627 279C83.6294 279 83.3761 279 83.2027 279ZM96.5035 279V264.2H100.464V270.46L99.6035 270.7C99.7502 270.193 100.01 269.747 100.384 269.36C100.77 268.96 101.23 268.647 101.764 268.42C102.297 268.193 102.864 268.08 103.464 268.08C104.264 268.08 104.944 268.247 105.504 268.58C106.064 268.913 106.484 269.407 106.764 270.06C107.057 270.7 107.204 271.48 107.204 272.4V279H103.144V272.74C103.144 272.447 103.097 272.2 103.004 272C102.91 271.8 102.77 271.647 102.584 271.54C102.397 271.433 102.177 271.38 101.924 271.38C101.724 271.38 101.537 271.413 101.364 271.48C101.204 271.533 101.064 271.62 100.944 271.74C100.824 271.86 100.73 271.993 100.664 272.14C100.597 272.287 100.564 272.453 100.564 272.64V279H98.5435C98.0368 279 97.6102 279 97.2635 279C96.9302 279 96.6768 279 96.5035 279ZM113.624 279.18C112.731 279.18 111.938 278.947 111.244 278.48C110.551 278 110.004 277.347 109.604 276.52C109.204 275.68 109.004 274.72 109.004 273.64C109.004 272.547 109.198 271.587 109.584 270.76C109.984 269.92 110.531 269.267 111.224 268.8C111.931 268.32 112.744 268.08 113.664 268.08C114.144 268.08 114.584 268.147 114.984 268.28C115.384 268.413 115.738 268.6 116.044 268.84C116.351 269.08 116.618 269.36 116.844 269.68C117.071 269.987 117.264 270.32 117.424 270.68L116.604 270.66V268.3H120.584V279H116.504V276.38L117.404 276.46C117.271 276.847 117.084 277.207 116.844 277.54C116.618 277.873 116.344 278.16 116.024 278.4C115.704 278.64 115.344 278.833 114.944 278.98C114.544 279.113 114.104 279.18 113.624 279.18ZM114.784 275.88C115.171 275.88 115.498 275.793 115.764 275.62C116.044 275.447 116.251 275.193 116.384 274.86C116.531 274.527 116.604 274.12 116.604 273.64C116.604 273.16 116.531 272.753 116.384 272.42C116.251 272.073 116.044 271.813 115.764 271.64C115.498 271.467 115.171 271.38 114.784 271.38C114.398 271.38 114.071 271.467 113.804 271.64C113.538 271.813 113.331 272.073 113.184 272.42C113.051 272.753 112.984 273.16 112.984 273.64C112.984 274.12 113.051 274.527 113.184 274.86C113.331 275.193 113.538 275.447 113.804 275.62C114.071 275.793 114.398 275.88 114.784 275.88ZM125.919 273.78L125.179 271.3C125.472 271.233 125.765 271.153 126.059 271.06C126.365 270.967 126.659 270.86 126.939 270.74C127.219 270.62 127.465 270.48 127.679 270.32C127.905 270.16 128.079 269.973 128.199 269.76C128.332 269.547 128.399 269.313 128.399 269.06C128.399 268.887 128.359 268.747 128.279 268.64C128.212 268.533 128.112 268.453 127.979 268.4C127.845 268.333 127.685 268.3 127.499 268.3C127.125 268.3 126.739 268.433 126.339 268.7C125.952 268.967 125.565 269.467 125.179 270.2L122.479 267.6C123.105 266.64 123.845 265.9 124.699 265.38C125.565 264.86 126.472 264.6 127.419 264.6C128.325 264.6 129.145 264.787 129.879 265.16C130.612 265.52 131.192 266.02 131.619 266.66C132.045 267.287 132.259 267.993 132.259 268.78C132.259 269.313 132.145 269.847 131.919 270.38C131.705 270.9 131.399 271.387 130.999 271.84C130.612 272.293 130.152 272.687 129.619 273.02C129.085 273.353 128.499 273.607 127.859 273.78H127.779H125.919ZM125.179 277.22C125.179 276.633 125.359 276.153 125.719 275.78C126.092 275.407 126.572 275.22 127.159 275.22C127.785 275.22 128.272 275.393 128.619 275.74C128.965 276.087 129.139 276.58 129.139 277.22C129.139 277.807 128.952 278.287 128.579 278.66C128.219 279.033 127.745 279.22 127.159 279.22C126.532 279.22 126.045 279.047 125.699 278.7C125.352 278.353 125.179 277.86 125.179 277.22Z" fill="white"/>
<path d="M173.302 51.1712C139.203 53.4592 108.577 34.0104 97.5265 24L80.7138 36.3939C97.9528 59.4655 135.414 70.3181 151.99 72.8604C150.096 118.813 122.154 149.686 108.419 159.379L129.021 170.82C175.054 129.252 177.722 73.7343 173.302 51.1712Z" fill="#F8F9FA"/>
<path d="M84.2658 58.7981C77.2566 53.8406 70.4525 45.4509 67.9267 41.8758C50.1194 50.6468 29.2496 52.5218 21.0405 52.3629C9.91099 147.939 91.6066 193.939 97.2897 192.985C101.836 192.223 112.761 184.087 117.654 180.115C57.2234 150.751 42.4314 96.377 42.5892 72.8604C58.6915 71.7164 77.0829 63.0089 84.2658 58.7981Z" fill="#F8F9FA"/>
<circle cx="12" cy="172" r="12" fill="#F8F9FA"/>
<circle opacity="0.8" cx="46" cy="197" r="8" fill="#F8F9FA"/>
<circle cx="145" cy="12" r="12" fill="#F8F9FA"/>
<circle opacity="0.8" cx="186" cy="32" r="8" fill="#F8F9FA"/>
<path d="M94.7524 104.054C96.6133 100.695 100.19 98.7133 102.268 95.7408C104.467 92.6233 103.235 86.7992 96.9999 86.7992C92.9158 86.7992 90.9099 89.8925 90.0641 92.4542L83.8049 89.82C85.5208 84.6725 90.1849 80.25 96.9758 80.25C102.655 80.25 106.546 82.8358 108.527 86.0742C110.219 88.8533 111.21 94.0492 108.6 97.9158C105.7 102.193 102.921 103.498 101.422 106.253C100.818 107.365 100.577 108.09 100.577 111.667H93.5924C93.5683 109.782 93.2783 106.713 94.7524 104.054ZM101.833 121.333C101.833 123.992 99.6583 126.167 96.9999 126.167C94.3416 126.167 92.1666 123.992 92.1666 121.333C92.1666 118.675 94.3416 116.5 96.9999 116.5C99.6583 116.5 101.833 118.675 101.833 121.333Z" fill="#F8F9FA"/>
</svg>
