<svg width="194" height="317" viewBox="0 0 194 317" fill="none" xmlns="http://www.w3.org/2000/svg">
<path d="M15.3385 270.2C14.2318 270.2 13.2185 270.02 12.2985 269.66C11.3785 269.3 10.5785 268.793 9.89852 268.14C9.21852 267.487 8.69185 266.713 8.31852 265.82C7.95852 264.927 7.77852 263.953 7.77852 262.9C7.77852 261.833 7.95852 260.86 8.31852 259.98C8.69185 259.087 9.21852 258.313 9.89852 257.66C10.5785 257.007 11.3785 256.5 12.2985 256.14C13.2185 255.78 14.2252 255.6 15.3185 255.6C16.4252 255.6 17.4318 255.78 18.3385 256.14C19.2585 256.5 20.0585 257.007 20.7385 257.66C21.4185 258.313 21.9385 259.087 22.2985 259.98C22.6718 260.86 22.8585 261.827 22.8585 262.88C22.8585 263.947 22.6718 264.927 22.2985 265.82C21.9385 266.713 21.4185 267.487 20.7385 268.14C20.0585 268.793 19.2585 269.3 18.3385 269.66C17.4318 270.02 16.4318 270.2 15.3385 270.2ZM15.3185 266.2C15.7718 266.2 16.1852 266.12 16.5585 265.96C16.9452 265.8 17.2785 265.573 17.5585 265.28C17.8518 264.973 18.0718 264.62 18.2185 264.22C18.3785 263.82 18.4585 263.38 18.4585 262.9C18.4585 262.42 18.3785 261.98 18.2185 261.58C18.0718 261.18 17.8518 260.833 17.5585 260.54C17.2785 260.233 16.9452 260 16.5585 259.84C16.1852 259.68 15.7718 259.6 15.3185 259.6C14.8652 259.6 14.4452 259.68 14.0585 259.84C13.6852 260 13.3518 260.233 13.0585 260.54C12.7785 260.833 12.5585 261.18 12.3985 261.58C12.2518 261.98 12.1785 262.42 12.1785 262.9C12.1785 263.38 12.2518 263.82 12.3985 264.22C12.5585 264.62 12.7785 264.973 13.0585 265.28C13.3518 265.573 13.6852 265.8 14.0585 265.96C14.4452 266.12 14.8652 266.2 15.3185 266.2ZM25.0582 270V255.2H29.1182V270H25.0582ZM35.5384 270.18C34.645 270.18 33.8517 269.947 33.1584 269.48C32.465 269 31.9184 268.347 31.5184 267.52C31.1184 266.68 30.9184 265.72 30.9184 264.64C30.9184 263.547 31.1117 262.587 31.4984 261.76C31.8984 260.92 32.445 260.267 33.1384 259.8C33.845 259.32 34.6584 259.08 35.5784 259.08C36.0584 259.08 36.4984 259.147 36.8984 259.28C37.2984 259.413 37.6517 259.6 37.9584 259.84C38.265 260.08 38.5317 260.36 38.7584 260.68C38.985 260.987 39.1784 261.32 39.3384 261.68L38.5184 261.66V259.3H42.4984V270H38.4184V267.38L39.3184 267.46C39.185 267.847 38.9984 268.207 38.7584 268.54C38.5317 268.873 38.2584 269.16 37.9384 269.4C37.6184 269.64 37.2584 269.833 36.8584 269.98C36.4584 270.113 36.0184 270.18 35.5384 270.18ZM36.6984 266.88C37.085 266.88 37.4117 266.793 37.6784 266.62C37.9584 266.447 38.165 266.193 38.2984 265.86C38.445 265.527 38.5184 265.12 38.5184 264.64C38.5184 264.16 38.445 263.753 38.2984 263.42C38.165 263.073 37.9584 262.813 37.6784 262.64C37.4117 262.467 37.085 262.38 36.6984 262.38C36.3117 262.38 35.985 262.467 35.7184 262.64C35.4517 262.813 35.245 263.073 35.0984 263.42C34.965 263.753 34.8984 264.16 34.8984 264.64C34.8984 265.12 34.965 265.527 35.0984 265.86C35.245 266.193 35.4517 266.447 35.7184 266.62C35.985 266.793 36.3117 266.88 36.6984 266.88ZM35.4184 258.48L34.2584 256.7L38.3784 253.62L39.9784 256.04L35.4184 258.48ZM45.5326 274.3L44.4926 273.02C45.0792 272.793 45.5459 272.487 45.8926 272.1C46.2392 271.713 46.4126 271.387 46.4126 271.12C46.4126 271 46.3792 270.867 46.3126 270.72C46.2592 270.587 46.1059 270.447 45.8526 270.3C45.5192 270.087 45.2859 269.86 45.1526 269.62C45.0192 269.367 44.9526 269.08 44.9526 268.76C44.9526 268.28 45.1326 267.9 45.4926 267.62C45.8526 267.34 46.3126 267.2 46.8726 267.2C47.2992 267.2 47.6792 267.313 48.0126 267.54C48.3592 267.767 48.6326 268.087 48.8326 268.5C49.0326 268.9 49.1326 269.367 49.1326 269.9C49.1326 270.38 49.0459 270.847 48.8726 271.3C48.6992 271.767 48.4459 272.2 48.1126 272.6C47.7926 273 47.4126 273.347 46.9726 273.64C46.5326 273.933 46.0526 274.153 45.5326 274.3ZM65.0199 274.4V267.38L65.9199 267.66C65.8399 268.02 65.6799 268.36 65.4399 268.68C65.2133 268.987 64.9333 269.253 64.5999 269.48C64.2666 269.693 63.8933 269.867 63.4799 270C63.0666 270.12 62.6333 270.18 62.1799 270.18C61.2733 270.18 60.4666 269.947 59.7599 269.48C59.0666 269 58.5199 268.347 58.1199 267.52C57.7199 266.68 57.5199 265.72 57.5199 264.64C57.5199 263.547 57.7133 262.587 58.0999 261.76C58.4999 260.92 59.0399 260.267 59.7199 259.8C60.4133 259.32 61.1999 259.08 62.0799 259.08C62.5733 259.08 63.0399 259.14 63.4799 259.26C63.9199 259.38 64.3066 259.547 64.6399 259.76C64.9866 259.973 65.2733 260.227 65.4999 260.52C65.7266 260.813 65.8733 261.133 65.9399 261.48L65.1199 261.66L65.3399 259.3H69.0999V274.4H65.0199ZM63.2999 266.88C63.6866 266.88 64.0133 266.793 64.2799 266.62C64.5599 266.447 64.7666 266.193 64.8999 265.86C65.0466 265.527 65.1199 265.12 65.1199 264.64C65.1199 264.16 65.0466 263.753 64.8999 263.42C64.7666 263.073 64.5599 262.813 64.2799 262.64C64.0133 262.467 63.6866 262.38 63.2999 262.38C62.9133 262.38 62.5866 262.467 62.3199 262.64C62.0533 262.813 61.8466 263.073 61.6999 263.42C61.5666 263.753 61.4999 264.16 61.4999 264.64C61.4999 265.12 61.5666 265.527 61.6999 265.86C61.8466 266.193 62.0533 266.447 62.3199 266.62C62.5866 266.793 62.9133 266.88 63.2999 266.88ZM75.4741 270.22C74.6608 270.22 73.9741 270.053 73.4141 269.72C72.8541 269.387 72.4275 268.9 72.1341 268.26C71.8408 267.607 71.6941 266.82 71.6941 265.9V259.3H75.7541V265.56C75.7541 265.853 75.8008 266.1 75.8941 266.3C76.0008 266.5 76.1475 266.653 76.3341 266.76C76.5208 266.867 76.7475 266.92 77.0141 266.92C77.2141 266.92 77.3941 266.893 77.5541 266.84C77.7275 266.773 77.8741 266.68 77.9941 266.56C78.1141 266.44 78.2075 266.307 78.2741 266.16C78.3408 266 78.3741 265.833 78.3741 265.66V259.3H82.4341V270H78.7141L78.4741 267.84L79.2341 267.6C79.0875 268.107 78.8275 268.56 78.4541 268.96C78.0941 269.347 77.6541 269.653 77.1341 269.88C76.6141 270.107 76.0608 270.22 75.4741 270.22ZM90.453 270.2C89.213 270.2 88.1464 269.96 87.253 269.48C86.3597 269 85.673 268.347 85.193 267.52C84.713 266.68 84.473 265.72 84.473 264.64C84.473 263.84 84.6064 263.1 84.873 262.42C85.1397 261.74 85.513 261.153 85.993 260.66C86.4864 260.153 87.0597 259.767 87.713 259.5C88.3797 259.22 89.1064 259.08 89.893 259.08C90.6797 259.08 91.393 259.22 92.033 259.5C92.6864 259.767 93.2464 260.153 93.713 260.66C94.1797 261.153 94.533 261.74 94.773 262.42C95.0264 263.1 95.1397 263.84 95.113 264.64L95.093 265.48H86.713L86.253 263.58H91.873L91.493 263.98V263.62C91.493 263.367 91.4264 263.147 91.293 262.96C91.173 262.76 90.9997 262.607 90.773 262.5C90.5464 262.393 90.2797 262.34 89.973 262.34C89.5864 262.34 89.2597 262.42 88.993 262.58C88.7264 262.74 88.5197 262.967 88.373 263.26C88.2397 263.553 88.173 263.907 88.173 264.32C88.173 264.8 88.273 265.22 88.473 265.58C88.6864 265.94 88.993 266.22 89.393 266.42C89.8064 266.62 90.313 266.72 90.913 266.72C91.313 266.72 91.653 266.673 91.933 266.58C92.2264 266.473 92.533 266.307 92.853 266.08L94.713 268.7C94.2197 269.087 93.733 269.387 93.253 269.6C92.7864 269.813 92.3197 269.967 91.853 270.06C91.3997 270.153 90.933 270.2 90.453 270.2ZM111.004 270.22C110.511 270.22 110.044 270.16 109.604 270.04C109.164 269.92 108.771 269.753 108.424 269.54C108.091 269.327 107.811 269.073 107.584 268.78C107.357 268.487 107.211 268.167 107.144 267.82L107.964 267.64L107.644 270H103.984V255.2H108.064V261.92L107.164 261.64C107.244 261.28 107.397 260.947 107.624 260.64C107.864 260.32 108.151 260.047 108.484 259.82C108.817 259.58 109.191 259.4 109.604 259.28C110.017 259.147 110.451 259.08 110.904 259.08C111.811 259.08 112.611 259.32 113.304 259.8C114.011 260.28 114.564 260.94 114.964 261.78C115.364 262.62 115.564 263.58 115.564 264.66C115.564 265.753 115.364 266.72 114.964 267.56C114.577 268.387 114.037 269.04 113.344 269.52C112.664 269.987 111.884 270.22 111.004 270.22ZM109.784 266.92C110.171 266.92 110.497 266.833 110.764 266.66C111.031 266.473 111.231 266.213 111.364 265.88C111.511 265.547 111.584 265.14 111.584 264.66C111.584 264.18 111.511 263.773 111.364 263.44C111.231 263.093 111.031 262.833 110.764 262.66C110.497 262.487 110.171 262.4 109.784 262.4C109.397 262.4 109.064 262.487 108.784 262.66C108.517 262.833 108.311 263.093 108.164 263.44C108.031 263.773 107.964 264.18 107.964 264.66C107.964 265.14 108.031 265.547 108.164 265.88C108.311 266.213 108.517 266.473 108.784 266.66C109.064 266.833 109.397 266.92 109.784 266.92ZM122.778 270.2C121.618 270.2 120.585 269.96 119.678 269.48C118.772 269 118.058 268.347 117.538 267.52C117.018 266.68 116.758 265.72 116.758 264.64C116.758 263.56 117.018 262.607 117.538 261.78C118.058 260.94 118.772 260.28 119.678 259.8C120.585 259.32 121.618 259.08 122.778 259.08C123.938 259.08 124.965 259.32 125.858 259.8C126.765 260.28 127.472 260.94 127.978 261.78C128.498 262.607 128.758 263.56 128.758 264.64C128.758 265.72 128.498 266.68 127.978 267.52C127.472 268.347 126.765 269 125.858 269.48C124.965 269.96 123.938 270.2 122.778 270.2ZM122.778 266.8C123.138 266.8 123.458 266.707 123.738 266.52C124.032 266.333 124.258 266.08 124.418 265.76C124.578 265.427 124.658 265.053 124.658 264.64C124.658 264.213 124.578 263.84 124.418 263.52C124.258 263.187 124.032 262.927 123.738 262.74C123.458 262.553 123.138 262.46 122.778 262.46C122.405 262.46 122.072 262.553 121.778 262.74C121.498 262.927 121.272 263.187 121.098 263.52C120.938 263.84 120.858 264.213 120.858 264.64C120.858 265.053 120.938 265.427 121.098 265.76C121.272 266.08 121.498 266.333 121.778 266.52C122.072 266.707 122.405 266.8 122.778 266.8ZM130.761 270V259.3H134.521L134.681 260.98L134.221 260.82C134.421 260.473 134.648 260.193 134.901 259.98C135.168 259.753 135.448 259.573 135.741 259.44C136.035 259.307 136.335 259.213 136.641 259.16C136.948 259.107 137.241 259.08 137.521 259.08C137.988 259.08 138.428 259.147 138.841 259.28C139.255 259.4 139.628 259.62 139.961 259.94C140.295 260.26 140.575 260.72 140.801 261.32L140.181 261.3L140.341 261.02C140.541 260.673 140.781 260.38 141.061 260.14C141.341 259.9 141.648 259.7 141.981 259.54C142.315 259.38 142.655 259.267 143.001 259.2C143.348 259.12 143.681 259.08 144.001 259.08C144.881 259.08 145.621 259.247 146.221 259.58C146.821 259.913 147.268 260.407 147.561 261.06C147.868 261.7 148.021 262.48 148.021 263.4V270H143.961V263.74C143.961 263.447 143.915 263.2 143.821 263C143.728 262.8 143.588 262.647 143.401 262.54C143.228 262.433 143.015 262.38 142.761 262.38C142.561 262.38 142.375 262.413 142.201 262.48C142.041 262.533 141.901 262.62 141.781 262.74C141.675 262.86 141.588 262.993 141.521 263.14C141.455 263.287 141.421 263.453 141.421 263.64V270H137.361V263.74C137.361 263.447 137.315 263.2 137.221 263C137.128 262.8 136.988 262.647 136.801 262.54C136.628 262.433 136.415 262.38 136.161 262.38C135.961 262.38 135.775 262.413 135.601 262.48C135.441 262.533 135.301 262.62 135.181 262.74C135.075 262.86 134.988 262.993 134.921 263.14C134.855 263.287 134.821 263.453 134.821 263.64V270H130.761ZM158.177 270V256.6H162.237V270H158.177ZM156.517 262.7V259.3H163.997V262.7H156.517ZM170.883 270.2C169.643 270.2 168.576 269.96 167.683 269.48C166.789 269 166.103 268.347 165.623 267.52C165.143 266.68 164.903 265.72 164.903 264.64C164.903 263.84 165.036 263.1 165.303 262.42C165.569 261.74 165.943 261.153 166.423 260.66C166.916 260.153 167.489 259.767 168.143 259.5C168.809 259.22 169.536 259.08 170.323 259.08C171.109 259.08 171.823 259.22 172.463 259.5C173.116 259.767 173.676 260.153 174.143 260.66C174.609 261.153 174.963 261.74 175.203 262.42C175.456 263.1 175.569 263.84 175.543 264.64L175.523 265.48H167.143L166.683 263.58H172.303L171.923 263.98V263.62C171.923 263.367 171.856 263.147 171.723 262.96C171.603 262.76 171.429 262.607 171.203 262.5C170.976 262.393 170.709 262.34 170.403 262.34C170.016 262.34 169.689 262.42 169.423 262.58C169.156 262.74 168.949 262.967 168.803 263.26C168.669 263.553 168.603 263.907 168.603 264.32C168.603 264.8 168.703 265.22 168.903 265.58C169.116 265.94 169.423 266.22 169.823 266.42C170.236 266.62 170.743 266.72 171.343 266.72C171.743 266.72 172.083 266.673 172.363 266.58C172.656 266.473 172.963 266.307 173.283 266.08L175.143 268.7C174.649 269.087 174.163 269.387 173.683 269.6C173.216 269.813 172.749 269.967 172.283 270.06C171.829 270.153 171.363 270.2 170.883 270.2ZM33.5693 300L29.1293 289.3H33.6493L35.8693 297.28H34.7893L36.9893 289.3H41.5093L36.8493 300H33.5693ZM47.8945 300.2C46.6545 300.2 45.5878 299.96 44.6945 299.48C43.8011 299 43.1145 298.347 42.6345 297.52C42.1545 296.68 41.9145 295.72 41.9145 294.64C41.9145 293.84 42.0478 293.1 42.3145 292.42C42.5811 291.74 42.9545 291.153 43.4345 290.66C43.9278 290.153 44.5011 289.767 45.1545 289.5C45.8211 289.22 46.5478 289.08 47.3345 289.08C48.1211 289.08 48.8345 289.22 49.4745 289.5C50.1278 289.767 50.6878 290.153 51.1545 290.66C51.6211 291.153 51.9745 291.74 52.2145 292.42C52.4678 293.1 52.5811 293.84 52.5545 294.64L52.5345 295.48H44.1545L43.6945 293.58H49.3145L48.9345 293.98V293.62C48.9345 293.367 48.8678 293.147 48.7345 292.96C48.6145 292.76 48.4411 292.607 48.2145 292.5C47.9878 292.393 47.7211 292.34 47.4145 292.34C47.0278 292.34 46.7011 292.42 46.4345 292.58C46.1678 292.74 45.9611 292.967 45.8145 293.26C45.6811 293.553 45.6145 293.907 45.6145 294.32C45.6145 294.8 45.7145 295.22 45.9145 295.58C46.1278 295.94 46.4345 296.22 46.8345 296.42C47.2478 296.62 47.7545 296.72 48.3545 296.72C48.7545 296.72 49.0945 296.673 49.3745 296.58C49.6678 296.473 49.9745 296.307 50.2945 296.08L52.1545 298.7C51.6611 299.087 51.1745 299.387 50.6945 299.6C50.2278 299.813 49.7611 299.967 49.2945 300.06C48.8411 300.153 48.3745 300.2 47.8945 300.2ZM54.4332 300V289.3H58.1932L58.4332 292.86L57.5332 292.3C57.7065 291.687 57.9799 291.14 58.3532 290.66C58.7265 290.167 59.1732 289.78 59.6932 289.5C60.2265 289.22 60.7932 289.08 61.3932 289.08C61.6332 289.08 61.8599 289.1 62.0732 289.14C62.2865 289.167 62.4932 289.207 62.6932 289.26L61.5732 293.76C61.4399 293.667 61.2265 293.58 60.9332 293.5C60.6532 293.42 60.3465 293.38 60.0132 293.38C59.7732 293.38 59.5532 293.42 59.3532 293.5C59.1665 293.567 59.0065 293.673 58.8732 293.82C58.7532 293.967 58.6599 294.14 58.5932 294.34C58.5265 294.54 58.4932 294.773 58.4932 295.04V300H54.4332ZM75.0487 300.22C74.1687 300.22 73.382 299.987 72.6887 299.52C72.0087 299.04 71.4687 298.387 71.0687 297.56C70.682 296.72 70.4887 295.753 70.4887 294.66C70.4887 293.58 70.6887 292.62 71.0887 291.78C71.4887 290.94 72.0353 290.28 72.7287 289.8C73.4353 289.32 74.242 289.08 75.1487 289.08C75.602 289.08 76.0353 289.147 76.4487 289.28C76.862 289.4 77.2353 289.58 77.5687 289.82C77.902 290.047 78.182 290.32 78.4087 290.64C78.6487 290.947 78.8087 291.28 78.8887 291.64L77.9887 291.92V285.2H82.0687V300H78.4087L78.0887 297.64L78.9087 297.82C78.842 298.167 78.6953 298.487 78.4687 298.78C78.242 299.073 77.9553 299.327 77.6087 299.54C77.2753 299.753 76.8887 299.92 76.4487 300.04C76.0087 300.16 75.542 300.22 75.0487 300.22ZM76.2687 296.92C76.6553 296.92 76.982 296.833 77.2487 296.66C77.5287 296.473 77.7353 296.213 77.8687 295.88C78.0153 295.547 78.0887 295.14 78.0887 294.66C78.0887 294.18 78.0153 293.773 77.8687 293.44C77.7353 293.093 77.5287 292.833 77.2487 292.66C76.982 292.487 76.6553 292.4 76.2687 292.4C75.882 292.4 75.5553 292.487 75.2887 292.66C75.022 292.833 74.8153 293.093 74.6687 293.44C74.5353 293.773 74.4687 294.18 74.4687 294.66C74.4687 295.14 74.5353 295.547 74.6687 295.88C74.8153 296.213 75.022 296.473 75.2887 296.66C75.5553 296.833 75.882 296.92 76.2687 296.92ZM89.8476 300.2C88.6076 300.2 87.5409 299.96 86.6476 299.48C85.7542 299 85.0676 298.347 84.5876 297.52C84.1076 296.68 83.8676 295.72 83.8676 294.64C83.8676 293.84 84.0009 293.1 84.2676 292.42C84.5342 291.74 84.9076 291.153 85.3876 290.66C85.8809 290.153 86.4542 289.767 87.1076 289.5C87.7742 289.22 88.5009 289.08 89.2876 289.08C90.0742 289.08 90.7876 289.22 91.4276 289.5C92.0809 289.767 92.6409 290.153 93.1076 290.66C93.5742 291.153 93.9276 291.74 94.1676 292.42C94.4209 293.1 94.5342 293.84 94.5076 294.64L94.4876 295.48H86.1076L85.6476 293.58H91.2676L90.8876 293.98V293.62C90.8876 293.367 90.8209 293.147 90.6876 292.96C90.5676 292.76 90.3942 292.607 90.1676 292.5C89.9409 292.393 89.6742 292.34 89.3676 292.34C88.9809 292.34 88.6542 292.42 88.3876 292.58C88.1209 292.74 87.9142 292.967 87.7676 293.26C87.6342 293.553 87.5676 293.907 87.5676 294.32C87.5676 294.8 87.6676 295.22 87.8676 295.58C88.0809 295.94 88.3876 296.22 88.7876 296.42C89.2009 296.62 89.7076 296.72 90.3076 296.72C90.7076 296.72 91.0476 296.673 91.3276 296.58C91.6209 296.473 91.9276 296.307 92.2476 296.08L94.1076 298.7C93.6142 299.087 93.1276 299.387 92.6476 299.6C92.1809 299.813 91.7142 299.967 91.2476 300.06C90.7942 300.153 90.3276 300.2 89.8476 300.2ZM96.3863 300V289.3H100.146L100.346 291.46L99.4863 291.7C99.633 291.193 99.893 290.747 100.266 290.36C100.653 289.96 101.113 289.647 101.646 289.42C102.18 289.193 102.746 289.08 103.346 289.08C104.146 289.08 104.826 289.247 105.386 289.58C105.946 289.913 106.366 290.407 106.646 291.06C106.94 291.7 107.086 292.48 107.086 293.4V300H103.026V293.74C103.026 293.447 102.98 293.2 102.886 293C102.793 292.8 102.653 292.647 102.466 292.54C102.28 292.433 102.06 292.38 101.806 292.38C101.606 292.38 101.42 292.413 101.246 292.48C101.086 292.533 100.946 292.62 100.826 292.74C100.706 292.86 100.613 292.993 100.546 293.14C100.48 293.287 100.446 293.453 100.446 293.64V300H98.4263C97.9197 300 97.493 300 97.1463 300C96.813 300 96.5597 300 96.3863 300ZM114.907 300.2C113.747 300.2 112.714 299.96 111.807 299.48C110.9 299 110.187 298.347 109.667 297.52C109.147 296.68 108.887 295.72 108.887 294.64C108.887 293.56 109.147 292.607 109.667 291.78C110.187 290.94 110.9 290.28 111.807 289.8C112.714 289.32 113.747 289.08 114.907 289.08C116.067 289.08 117.094 289.32 117.987 289.8C118.894 290.28 119.6 290.94 120.107 291.78C120.627 292.607 120.887 293.56 120.887 294.64C120.887 295.72 120.627 296.68 120.107 297.52C119.6 298.347 118.894 299 117.987 299.48C117.094 299.96 116.067 300.2 114.907 300.2ZM114.907 296.8C115.267 296.8 115.587 296.707 115.867 296.52C116.16 296.333 116.387 296.08 116.547 295.76C116.707 295.427 116.787 295.053 116.787 294.64C116.787 294.213 116.707 293.84 116.547 293.52C116.387 293.187 116.16 292.927 115.867 292.74C115.587 292.553 115.267 292.46 114.907 292.46C114.534 292.46 114.2 292.553 113.907 292.74C113.627 292.927 113.4 293.187 113.227 293.52C113.067 293.84 112.987 294.213 112.987 294.64C112.987 295.053 113.067 295.427 113.227 295.76C113.4 296.08 113.627 296.333 113.907 296.52C114.2 296.707 114.534 296.8 114.907 296.8ZM125.737 300L121.297 289.3H125.817L128.037 297.28H126.957L129.157 289.3H133.677L129.017 300H125.737ZM140.102 300.2C138.942 300.2 137.909 299.96 137.002 299.48C136.096 299 135.382 298.347 134.862 297.52C134.342 296.68 134.082 295.72 134.082 294.64C134.082 293.56 134.342 292.607 134.862 291.78C135.382 290.94 136.096 290.28 137.002 289.8C137.909 289.32 138.942 289.08 140.102 289.08C141.262 289.08 142.289 289.32 143.182 289.8C144.089 290.28 144.796 290.94 145.302 291.78C145.822 292.607 146.082 293.56 146.082 294.64C146.082 295.72 145.822 296.68 145.302 297.52C144.796 298.347 144.089 299 143.182 299.48C142.289 299.96 141.262 300.2 140.102 300.2ZM140.102 296.8C140.462 296.8 140.782 296.707 141.062 296.52C141.356 296.333 141.582 296.08 141.742 295.76C141.902 295.427 141.982 295.053 141.982 294.64C141.982 294.213 141.902 293.84 141.742 293.52C141.582 293.187 141.356 292.927 141.062 292.74C140.782 292.553 140.462 292.46 140.102 292.46C139.729 292.46 139.396 292.553 139.102 292.74C138.822 292.927 138.596 293.187 138.422 293.52C138.262 293.84 138.182 294.213 138.182 294.64C138.182 295.053 138.262 295.427 138.422 295.76C138.596 296.08 138.822 296.333 139.102 296.52C139.396 296.707 139.729 296.8 140.102 296.8ZM149.026 294.68C148.906 293.893 148.779 293.08 148.646 292.24C148.512 291.4 148.399 290.567 148.306 289.74C148.226 288.9 148.186 288.087 148.186 287.3V285.6H152.466V287.3C152.466 288.087 152.419 288.9 152.326 289.74C152.246 290.567 152.139 291.4 152.006 292.24C151.872 293.08 151.746 293.893 151.626 294.68H149.026ZM150.346 300.22C149.719 300.22 149.232 300.047 148.886 299.7C148.539 299.353 148.366 298.86 148.366 298.22C148.366 297.633 148.546 297.153 148.906 296.78C149.279 296.407 149.759 296.22 150.346 296.22C150.972 296.22 151.459 296.393 151.806 296.74C152.152 297.087 152.326 297.58 152.326 298.22C152.326 298.807 152.139 299.287 151.766 299.66C151.406 300.033 150.932 300.22 150.346 300.22Z" fill="white"/>
<path d="M173.302 51.1712C139.203 53.4592 108.577 34.0104 97.5265 24L80.7138 36.3939C97.9528 59.4655 135.414 70.3181 151.99 72.8604C150.096 118.813 122.154 149.686 108.419 159.379L129.021 170.82C175.054 129.252 177.722 73.7343 173.302 51.1712Z" fill="#F8F9FA"/>
<path d="M84.2658 58.7981C77.2566 53.8406 70.4525 45.4509 67.9267 41.8758C50.1194 50.6468 29.2496 52.5218 21.0405 52.3629C9.91099 147.939 91.6066 193.939 97.2897 192.985C101.836 192.223 112.761 184.087 117.654 180.115C57.2234 150.751 42.4314 96.377 42.5892 72.8604C58.6915 71.7164 77.0829 63.0089 84.2658 58.7981Z" fill="#F8F9FA"/>
<circle cx="12" cy="172" r="12" fill="#F8F9FA"/>
<circle opacity="0.8" cx="46" cy="197" r="8" fill="#F8F9FA"/>
<circle cx="145" cy="12" r="12" fill="#F8F9FA"/>
<circle opacity="0.8" cx="186" cy="32" r="8" fill="#F8F9FA"/>
<path d="M96.9999 130.596L93.4958 127.406C81.0499 116.12 72.8333 108.677 72.8333 99.5417C72.8333 92.0983 78.6816 86.25 86.1249 86.25C90.3299 86.25 94.3658 88.2075 96.9999 91.3008C99.6341 88.2075 103.67 86.25 107.875 86.25C115.318 86.25 121.167 92.0983 121.167 99.5417C121.167 108.677 112.95 116.12 100.504 127.43L96.9999 130.596Z" fill="#F8F9FA"/>
</svg>
