<svg width="20" height="20" viewBox="0 0 20 20" fill="none" xmlns="http://www.w3.org/2000/svg">
<path d="M13.6334 11.6667C13.7001 11.1167 13.7501 10.5667 13.7501 9.99999C13.7501 9.43332 13.7001 8.88332 13.6334 8.33332H16.4501C16.5834 8.86666 16.6667 9.42499 16.6667 9.99999C16.6667 10.575 16.5834 11.1333 16.4501 11.6667H13.6334ZM12.1584 16.3C12.6584 15.375 13.0417 14.375 13.3084 13.3333H15.7667C14.9594 14.7236 13.6785 15.7767 12.1584 16.3V16.3ZM11.9501 11.6667H8.05008C7.96675 11.1167 7.91675 10.5667 7.91675 9.99999C7.91675 9.43332 7.96675 8.87499 8.05008 8.33332H11.9501C12.0251 8.87499 12.0834 9.43332 12.0834 9.99999C12.0834 10.5667 12.0251 11.1167 11.9501 11.6667ZM10.0001 16.6333C9.30842 15.6333 8.75008 14.525 8.40842 13.3333H11.5917C11.2501 14.525 10.6917 15.6333 10.0001 16.6333ZM6.66675 6.66666H4.23341C5.03246 5.27267 6.31241 4.2179 7.83341 3.69999C7.33341 4.62499 6.95841 5.62499 6.66675 6.66666ZM4.23341 13.3333H6.66675C6.95841 14.375 7.33341 15.375 7.83341 16.3C6.3156 15.7764 5.03745 14.7231 4.23341 13.3333V13.3333ZM3.55008 11.6667C3.41675 11.1333 3.33341 10.575 3.33341 9.99999C3.33341 9.42499 3.41675 8.86666 3.55008 8.33332H6.36675C6.30008 8.88332 6.25008 9.43332 6.25008 9.99999C6.25008 10.5667 6.30008 11.1167 6.36675 11.6667H3.55008ZM10.0001 3.35832C10.6917 4.35832 11.2501 5.47499 11.5917 6.66666H8.40842C8.75008 5.47499 9.30842 4.35832 10.0001 3.35832V3.35832ZM15.7667 6.66666H13.3084C13.0476 5.63454 12.6614 4.63824 12.1584 3.69999C13.6917 4.22499 14.9667 5.28332 15.7667 6.66666ZM10.0001 1.66666C5.39175 1.66666 1.66675 5.41666 1.66675 9.99999C1.66675 12.2101 2.54472 14.3297 4.10752 15.8925C4.88135 16.6664 5.80001 17.2802 6.81105 17.699C7.8221 18.1178 8.90573 18.3333 10.0001 18.3333C12.2102 18.3333 14.3298 17.4554 15.8926 15.8925C17.4554 14.3297 18.3334 12.2101 18.3334 9.99999C18.3334 8.90564 18.1179 7.82201 17.6991 6.81096C17.2803 5.79991 16.6665 4.88125 15.8926 4.10743C15.1188 3.33361 14.2002 2.71978 13.1891 2.30099C12.1781 1.8822 11.0944 1.66666 10.0001 1.66666V1.66666Z" fill="white"/>
</svg>
