<svg width="36" height="36" viewBox="0 0 36 36" fill="none" xmlns="http://www.w3.org/2000/svg">
<rect width="36" height="36" rx="8" fill="#F8F9FA"/>
<path d="M21.6334 19.6667C21.7001 19.1167 21.7501 18.5667 21.7501 18C21.7501 17.4333 21.7001 16.8833 21.6334 16.3333H24.4501C24.5834 16.8667 24.6667 17.425 24.6667 18C24.6667 18.575 24.5834 19.1333 24.4501 19.6667H21.6334ZM20.1584 24.3C20.6584 23.375 21.0417 22.375 21.3084 21.3333H23.7667C22.9594 22.7236 21.6785 23.7767 20.1584 24.3ZM19.9501 19.6667H16.0501C15.9667 19.1167 15.9167 18.5667 15.9167 18C15.9167 17.4333 15.9667 16.875 16.0501 16.3333H19.9501C20.0251 16.875 20.0834 17.4333 20.0834 18C20.0834 18.5667 20.0251 19.1167 19.9501 19.6667ZM18.0001 24.6333C17.3084 23.6333 16.7501 22.525 16.4084 21.3333H19.5917C19.2501 22.525 18.6917 23.6333 18.0001 24.6333ZM14.6667 14.6667H12.2334C13.0325 13.2727 14.3124 12.2179 15.8334 11.7C15.3334 12.625 14.9584 13.625 14.6667 14.6667ZM12.2334 21.3333H14.6667C14.9584 22.375 15.3334 23.375 15.8334 24.3C14.3156 23.7764 13.0375 22.7231 12.2334 21.3333ZM11.5501 19.6667C11.4167 19.1333 11.3334 18.575 11.3334 18C11.3334 17.425 11.4167 16.8667 11.5501 16.3333H14.3667C14.3001 16.8833 14.2501 17.4333 14.2501 18C14.2501 18.5667 14.3001 19.1167 14.3667 19.6667H11.5501ZM18.0001 11.3583C18.6917 12.3583 19.2501 13.475 19.5917 14.6667H16.4084C16.7501 13.475 17.3084 12.3583 18.0001 11.3583ZM23.7667 14.6667H21.3084C21.0476 13.6345 20.6614 12.6382 20.1584 11.7C21.6917 12.225 22.9667 13.2833 23.7667 14.6667ZM18.0001 9.66666C13.3917 9.66666 9.66675 13.4167 9.66675 18C9.66675 20.2101 10.5447 22.3297 12.1075 23.8925C12.8813 24.6664 13.8 25.2802 14.8111 25.699C15.8221 26.1178 16.9057 26.3333 18.0001 26.3333C20.2102 26.3333 22.3298 25.4553 23.8926 23.8925C25.4554 22.3297 26.3334 20.2101 26.3334 18C26.3334 16.9056 26.1179 15.822 25.6991 14.811C25.2803 13.7999 24.6665 12.8813 23.8926 12.1074C23.1188 11.3336 22.2002 10.7198 21.1891 10.301C20.1781 9.8822 19.0944 9.66666 18.0001 9.66666Z" fill="white"/>
</svg>
