<svg width="98" height="99" viewBox="0 0 98 99" fill="none" xmlns="http://www.w3.org/2000/svg">
<g filter="url(#filter0_d_12_583)">
<path d="M63.6773 70.5802H38.8387C38.5268 70.5817 38.2177 70.5191 37.9304 70.3961C37.643 70.2731 37.3834 70.0923 37.1672 69.8647C36.951 69.6371 36.7827 69.3674 36.6726 69.072C36.5625 68.7766 36.5129 68.4617 36.5267 68.1463L38.3507 20.4339C38.3817 19.7826 38.6574 19.1679 39.1214 18.7155C39.5855 18.263 40.2028 18.0071 40.8472 18H65.6857C65.9977 17.9985 66.3067 18.0612 66.5941 18.1842C66.8814 18.3072 67.141 18.488 67.3573 18.7156C67.5735 18.9432 67.7417 19.2128 67.8518 19.5082C67.9619 19.8036 68.0116 20.1185 67.9978 20.4339L66.1737 68.1463C66.1428 68.7976 65.8671 69.4124 65.403 69.8648C64.939 70.3172 64.3216 70.5731 63.6773 70.5802Z" fill="#4DABF7"/>
<path opacity="0.8" d="M63.6773 70.5802H38.8387C38.5268 70.5817 38.2177 70.5191 37.9304 70.3961C37.643 70.2731 37.3834 70.0923 37.1672 69.8647C36.951 69.6371 36.7827 69.3674 36.6726 69.072C36.5625 68.7766 36.5129 68.4617 36.5267 68.1463L38.3507 20.4339C38.3817 19.7826 38.6574 19.1679 39.1214 18.7155C39.5855 18.263 40.2028 18.0071 40.8472 18H65.6857C65.9977 17.9985 66.3067 18.0612 66.5941 18.1842C66.8814 18.3072 67.141 18.488 67.3573 18.7156C67.5735 18.9432 67.7417 19.2128 67.8518 19.5082C67.9619 19.8036 68.0116 20.1185 67.9978 20.4339L66.1737 68.1463C66.1428 68.7976 65.8671 69.4124 65.403 69.8648C64.939 70.3172 64.3216 70.5731 63.6773 70.5802Z" fill="white"/>
<path d="M61.3002 69.6124H39.3941C39.1206 69.6135 38.8497 69.5585 38.5979 69.4507C38.3461 69.3428 38.1184 69.1844 37.9289 68.985C37.7393 68.7855 37.5917 68.5493 37.4949 68.2904C37.3982 68.0316 37.3544 67.7556 37.3661 67.4791L39.0731 22.7954C39.1007 22.2243 39.3428 21.6854 39.75 21.2889C40.1572 20.8924 40.6986 20.6682 41.2637 20.6622H63.1698C63.4434 20.6607 63.7144 20.7155 63.9664 20.8233C64.2183 20.931 64.4461 21.0894 64.6357 21.2889C64.8254 21.4884 64.973 21.7248 65.0696 21.9838C65.1662 22.2428 65.2098 22.5189 65.1978 22.7954L63.4908 67.4791C63.4627 68.0501 63.2204 68.5887 62.8133 68.9851C62.4063 69.3815 61.8651 69.6058 61.3002 69.6124Z" fill="#4DABF7"/>
<path opacity="0.8" d="M51.4707 67.0821C52.0504 66.5066 52.077 65.5828 51.5301 65.0186C50.9832 64.4545 50.0698 64.4636 49.4901 65.0391C48.9103 65.6146 48.8837 66.5385 49.4306 67.1026C49.9775 67.6668 50.8909 67.6576 51.4707 67.0821Z" fill="white"/>
<path d="M50.8698 55.8956C49.713 55.9034 48.5668 55.6727 47.5009 55.2177C46.4351 54.7626 45.472 54.0926 44.6704 53.2486C43.8688 52.4047 43.2454 51.4043 42.8383 50.3086C42.4312 49.2129 42.249 48.0448 42.3026 46.8754L42.5954 39.1831H42.5802C42.4945 39.1827 42.4089 39.1753 42.3243 39.1611L42.0293 46.8754C41.9745 48.0804 42.1627 49.284 42.5825 50.4129C43.0022 51.5419 43.6447 52.5725 44.4708 53.4421C45.2969 54.3117 46.2893 55.002 47.3876 55.471C48.4859 55.9399 49.667 56.1777 50.859 56.1699C53.3854 56.1585 55.8039 55.1322 57.5827 53.3168C57.518 53.2506 57.4613 53.1769 57.4135 53.0974C56.559 53.9774 55.541 54.6777 54.4179 55.1579C53.2949 55.6382 52.089 55.8889 50.8698 55.8956Z" fill="white"/>
<path d="M51.9195 28.394C47.2715 28.394 43.2872 31.9055 42.5107 36.4463C42.5685 36.4429 42.6265 36.4429 42.6843 36.4463C42.719 36.4463 42.7515 36.4463 42.7862 36.4463C43.554 32.057 47.4125 28.6728 51.9087 28.6728C53.0657 28.6646 54.2122 28.8951 55.2783 29.35C56.3444 29.805 57.3077 30.4749 58.1096 31.3189C58.9114 32.1629 59.535 33.1634 59.9422 34.2592C60.3494 35.3551 60.5318 36.5234 60.4781 37.6929L60.1267 46.8798C60.0698 48.3146 59.6829 49.7161 58.9967 50.9729C59.0829 50.9982 59.1654 51.0351 59.2418 51.0827C59.9445 49.7916 60.3403 48.3526 60.3979 46.8798L60.7492 37.6929C60.8049 36.4875 60.6174 35.2833 60.198 34.1537C59.7787 33.0241 59.1363 31.9928 58.3101 31.1227C57.4838 30.2525 56.4911 29.5618 55.3924 29.0927C54.2937 28.6236 53.112 28.3859 51.9195 28.394Z" fill="white"/>
<path d="M51.848 30.2727C53.3094 30.2691 54.7407 30.6936 55.9689 31.4951C56.0078 31.4101 56.055 31.3292 56.1099 31.2537C54.8393 30.4284 53.36 29.9925 51.8501 29.9983C50.1416 30.0039 48.476 30.5402 47.0785 31.5346C47.1264 31.6122 47.1664 31.6946 47.1978 31.7804C48.5566 30.8036 50.1812 30.2769 51.848 30.2727Z" fill="white"/>
<path d="M43.4543 47.7577C43.387 47.2877 43.3623 46.8124 43.3806 46.3378L43.6907 38.2174C43.7584 36.5435 44.3323 34.9309 45.3348 33.5976C45.2572 33.558 45.1844 33.5094 45.1179 33.4528C44.0856 34.8285 43.4951 36.4915 43.4261 38.2174L43.116 46.3378C43.097 46.8344 43.1231 47.3318 43.1941 47.8236C43.2785 47.793 43.3656 47.771 43.4543 47.7577Z" fill="white"/>
<path d="M58.0664 33.0753C58.0007 33.143 57.928 33.2034 57.8495 33.2553C58.9245 34.6777 59.4712 36.4373 59.3937 38.2262L59.0836 46.3466C58.9845 48.4749 58.0841 50.4841 56.5672 51.9619C55.0502 53.4397 53.0319 54.274 50.9263 54.2935C49.2546 54.3012 47.6276 53.7478 46.2999 52.7199C46.2223 52.7809 46.1379 52.8325 46.0483 52.8735C47.4348 53.9787 49.1504 54.5759 50.9154 54.5678C53.0938 54.5478 55.182 53.6849 56.7514 52.156C58.3208 50.6272 59.2523 48.5485 59.3547 46.3466L59.6649 38.2262C59.7463 36.3726 59.1804 34.5491 58.0664 33.0753Z" fill="white"/>
<path d="M44.6277 41.4458L44.7296 38.7639C44.8154 36.9231 45.5942 35.1852 46.9062 33.907C48.2182 32.6288 49.9639 31.9072 51.7851 31.8902C53.3182 31.8787 54.8058 32.4175 55.9835 33.4107C57.1612 34.404 57.953 35.7874 58.2181 37.3154C58.3069 37.2995 58.3969 37.2914 58.4871 37.2913C58.2175 35.6951 57.3958 34.2479 56.1689 33.2082C54.942 32.1686 53.3897 31.6042 51.7894 31.6158C49.8953 31.6328 48.0795 32.383 46.7149 33.7124C45.3503 35.0417 44.5406 36.8493 44.452 38.7639L44.3544 41.4656C44.417 41.4578 44.48 41.4534 44.5431 41.4524L44.6277 41.4458Z" fill="white"/>
<path d="M53.8195 52.0571C52.9331 52.4615 51.9722 52.6717 50.9999 52.6738C50.1168 52.6822 49.2413 52.5083 48.4269 52.1626C47.6125 51.817 46.8763 51.3068 46.2634 50.6634C45.6505 50.02 45.1738 49.2569 44.8623 48.4207C44.5508 47.5845 44.4112 46.6928 44.4519 45.8001L44.5148 44.1848H44.4302C44.3678 44.185 44.3055 44.1806 44.2437 44.1716L44.1808 45.7957C44.1384 46.7225 44.2829 47.6483 44.6057 48.5167C44.9284 49.385 45.4225 50.1778 46.0579 50.8467C46.6934 51.5155 47.4567 52.0464 48.3015 52.4069C49.1463 52.7675 50.0549 52.9501 50.9717 52.9438C52.0009 52.9426 53.0179 52.7181 53.954 52.2854C53.9006 52.2148 53.8555 52.1382 53.8195 52.0571Z" fill="white"/>
<path d="M58.383 40.039C58.344 40.039 58.305 40.039 58.2681 40.039L58.0512 45.8067C57.977 47.5596 57.2665 49.2232 56.0558 50.4791C56.1101 50.5542 56.1559 50.6352 56.1924 50.7206C57.4844 49.4095 58.2442 47.6564 58.3223 45.8067L58.5392 40.0368C58.4893 40.0346 58.4373 40.039 58.383 40.039Z" fill="white"/>
<path d="M54.1557 33.7513C53.395 33.4039 52.5697 33.225 51.7351 33.2267C50.1252 33.2412 48.5818 33.8787 47.4218 35.0084C46.2618 36.1381 45.5732 37.6743 45.4973 39.3016L45.2696 45.2602C45.2573 45.6114 45.2747 45.9631 45.3216 46.3114C45.4006 46.2386 45.4872 46.1746 45.5797 46.1205C45.5448 45.8352 45.5317 45.5475 45.5407 45.2602L45.7684 39.3016C45.841 37.7479 46.4985 36.2811 47.606 35.2025C48.7136 34.1238 50.1871 33.515 51.7243 33.5011C52.5137 33.5022 53.2937 33.6735 54.0125 34.0036C54.0521 33.9151 54.1001 33.8305 54.1557 33.7513Z" fill="white"/>
<path d="M56.2422 35.3907C56.1895 35.4697 56.1292 35.5432 56.0622 35.6102C56.8778 36.6586 57.2942 37.9686 57.2356 39.3016L57.0079 45.2602C56.9366 46.769 56.3136 48.1972 55.2597 49.2672C54.2059 50.3372 52.7967 50.9725 51.3057 51.0497C51.2774 51.148 51.2389 51.2429 51.1908 51.3329C52.7751 51.2831 54.2823 50.6299 55.4112 49.504C56.54 48.378 57.207 46.8624 57.279 45.2602L57.5067 39.3016C57.5689 37.8858 57.1194 36.4955 56.2422 35.3907Z" fill="white"/>
<path d="M50.5878 35.2393C50.5922 35.1431 50.6052 35.0476 50.6269 34.9539C49.9342 35.106 49.28 35.4011 48.7052 35.8208C48.7889 35.864 48.8663 35.9186 48.9351 35.9833C49.4348 35.6322 49.9956 35.3798 50.5878 35.2393Z" fill="white"/>
<path d="M55.7564 45.9493C55.4512 46.9573 54.837 47.8409 54.0025 48.4722C53.1681 49.1035 52.1567 49.4497 51.1149 49.4608C50.5075 49.4651 49.9055 49.344 49.3459 49.1049C48.7863 48.8659 48.2807 48.5138 47.8601 48.0703C47.4395 47.6269 47.1127 47.1012 46.8996 46.5256C46.6865 45.95 46.5917 45.3365 46.6209 44.7225L46.8074 39.8393C46.8306 39.2622 46.957 38.6941 47.1805 38.1626C47.103 38.0991 47.0345 38.0253 46.9766 37.9431C46.7141 38.5392 46.5668 39.1806 46.5428 39.8327L46.3563 44.7159C46.3268 45.3646 46.4282 46.0127 46.6543 46.6205C46.8803 47.2283 47.2263 47.7832 47.6711 48.2513C48.1159 48.7195 48.6502 49.0911 49.2415 49.3436C49.8329 49.596 50.4688 49.724 51.1106 49.7198C52.214 49.7071 53.2849 49.34 54.1687 48.6714C55.0525 48.0027 55.7034 47.0672 56.0275 45.9998C55.9358 45.9913 55.8451 45.9744 55.7564 45.9493Z" fill="white"/>
<path d="M56.1643 39.8393L56.1252 40.8532C56.1968 40.8403 56.2694 40.8329 56.3421 40.8313H56.4007L56.4375 39.8327C56.4803 38.7961 56.1882 37.7736 55.6055 36.9199C55.0228 36.0661 54.1812 35.4276 53.208 35.101C53.2166 35.1988 53.2166 35.2972 53.208 35.3951C54.1055 35.7188 54.8769 36.3251 55.4089 37.1249C55.9409 37.9248 56.2057 38.8761 56.1643 39.8393Z" fill="white"/>
<path d="M51.6095 36.4463C50.5678 36.4564 49.5695 36.8695 48.8193 37.6008C48.0691 38.3322 47.624 39.3263 47.5753 40.3792L47.5341 41.4634C47.6247 41.4694 47.7147 41.4834 47.803 41.5051L47.8464 40.3792C47.8919 39.3982 48.3075 38.4722 49.0076 37.792C49.7077 37.1117 50.6389 36.7291 51.6095 36.7229C52.0781 36.7203 52.5424 36.8142 52.974 36.9989C53.4057 37.1836 53.7956 37.4552 54.1203 37.7973C54.4449 38.1393 54.6974 38.5446 54.8623 38.9884C55.0272 39.4323 55.1012 39.9055 55.0797 40.3792L54.9344 44.1848C54.8936 45.0416 54.5709 45.8599 54.0175 46.5097C53.4642 47.1595 52.712 47.6035 51.8806 47.7709C51.8904 47.8628 51.8904 47.9555 51.8806 48.0474C52.7837 47.8762 53.6034 47.4018 54.2072 46.7008C54.8109 45.9999 55.1634 45.1135 55.2077 44.1848L55.353 40.3792C55.3763 39.8687 55.2965 39.3587 55.1185 38.8805C54.9405 38.4022 54.668 37.9657 54.3176 37.5977C53.9672 37.2296 53.5464 36.9376 53.0808 36.7397C52.6151 36.5417 52.1145 36.4419 51.6095 36.4463Z" fill="white"/>
<path d="M49.0761 39.6725C49.1324 39.6691 49.1889 39.6691 49.2453 39.6725C49.4788 39.2653 49.8134 38.9268 50.2158 38.6905C50.6183 38.4542 51.0747 38.3282 51.54 38.325C51.8237 38.325 52.1054 38.374 52.3728 38.4698C52.4032 38.3822 52.4417 38.2977 52.4878 38.2175C52.1876 38.1062 51.8705 38.049 51.5508 38.0485C51.0123 38.0541 50.4855 38.2081 50.027 38.4939C49.5685 38.7796 49.1955 39.1863 48.9481 39.6703C48.9908 39.6689 49.0335 39.6696 49.0761 39.6725Z" fill="white"/>
<path d="M53.8911 43.6471C53.877 43.9612 53.8079 44.2703 53.6873 44.5601C53.7717 44.5917 53.8513 44.6353 53.9237 44.6896C54.0657 44.3598 54.1466 44.0064 54.1623 43.6471L54.2664 40.9169C54.2746 40.6622 54.2491 40.4076 54.1904 40.1597C54.1086 40.2035 54.022 40.2374 53.9323 40.2607C53.9822 40.4763 54.0034 40.6978 53.9952 40.9191L53.8911 43.6471Z" fill="white"/>
<path d="M51.8262 46.1578C51.6316 46.2054 51.4322 46.2297 51.232 46.2302C50.9016 46.2309 50.5746 46.1637 50.2707 46.0326C49.9668 45.9016 49.6924 45.7095 49.464 45.468C49.2357 45.2265 49.0582 44.9405 48.9423 44.6275C48.8264 44.3145 48.7745 43.981 48.7897 43.6471L48.8375 42.4115C48.7464 42.4035 48.6563 42.3866 48.5685 42.361L48.5186 43.6471C48.5024 44.0172 48.5608 44.3868 48.6902 44.7334C48.8196 45.08 49.0173 45.3964 49.2713 45.6633C49.5253 45.9301 49.8303 46.1419 50.1677 46.2858C50.5052 46.4297 50.868 46.5026 51.2341 46.5002C51.4614 46.4993 51.6878 46.4713 51.9087 46.4168C51.8738 46.333 51.8462 46.2464 51.8262 46.1578Z" fill="white"/>
<path d="M51.4879 39.6681C51.0135 39.6739 50.5593 39.8634 50.2187 40.1978C49.8782 40.5322 49.6773 40.9859 49.6574 41.4656L49.5945 43.1204C49.5886 43.2747 49.604 43.429 49.64 43.5791C49.709 43.4949 49.7893 43.4211 49.8786 43.3596C49.8678 43.2811 49.8634 43.2018 49.8656 43.1226L49.9285 41.4678C49.9479 41.063 50.1195 40.6811 50.4083 40.4004C50.697 40.1196 51.081 39.9613 51.4814 39.9578C51.6745 39.9573 51.8656 39.9965 52.0432 40.0729C52.2208 40.1493 52.3813 40.2613 52.5149 40.4022C52.6485 40.5432 52.7525 40.7101 52.8205 40.8929C52.8886 41.0756 52.9193 41.2705 52.9108 41.4656L52.8479 43.1204C52.8338 43.4138 52.7396 43.6976 52.5757 43.9401C52.4118 44.1827 52.1847 44.3745 51.9196 44.4942C51.9149 44.5978 51.9003 44.7007 51.8762 44.8015C52.2257 44.6791 52.5309 44.4535 52.7524 44.1538C52.9739 43.8541 53.1016 43.4942 53.119 43.1204L53.184 41.4656C53.1962 41.2331 53.1612 41.0007 53.0813 40.7824C53.0014 40.5642 52.8782 40.3647 52.7194 40.1964C52.5606 40.0281 52.3694 39.8944 52.1576 39.8035C51.9458 39.7127 51.718 39.6666 51.4879 39.6681Z" fill="white"/>
<path d="M56.0493 19.9357H48.4364C48.38 19.9358 48.3242 19.9243 48.2723 19.9021C48.2204 19.8799 48.1734 19.8474 48.1341 19.8064C48.0949 19.7655 48.0642 19.717 48.0438 19.6638C48.0234 19.6106 48.0138 19.5538 48.0156 19.4968C48.0222 19.3788 48.073 19.2677 48.1575 19.1862C48.2421 19.1047 48.3542 19.0588 48.4711 19.0579H56.0818C56.1384 19.0575 56.1944 19.0688 56.2466 19.0908C56.2987 19.1129 56.346 19.1454 56.3855 19.1864C56.4249 19.2274 56.4558 19.276 56.4763 19.3293C56.4968 19.3826 56.5065 19.4396 56.5048 19.4968C56.4976 19.6146 56.4467 19.7254 56.3622 19.8068C56.2778 19.8882 56.1659 19.9343 56.0493 19.9357Z" fill="#4DABF7"/>
<path opacity="0.5" d="M44.1417 27.6391C43.6915 27.6748 43.2397 27.685 42.7883 27.6698C42.6288 27.6352 42.465 27.6248 42.3025 27.6391H42.2526C40.9793 27.5447 39.7194 27.3144 38.4938 26.9521C38.368 26.9148 38.2379 26.8709 38.1056 26.8248L37.0515 54.4493L44.0962 49.6934C44.4146 49.4818 44.6789 49.1969 44.8674 48.8619C45.0559 48.527 45.1633 48.1515 45.1806 47.7665L45.8877 29.2982C45.8978 29.0683 45.8586 28.8389 45.7729 28.6257C45.6872 28.4125 45.557 28.2206 45.3912 28.063C45.2254 27.9054 45.0279 27.786 44.8123 27.7128C44.5966 27.6397 44.3679 27.6145 44.1417 27.6391Z" fill="#1864AB"/>
<path d="M42.4435 25.5783C41.994 25.6147 41.5429 25.6257 41.0922 25.6112C40.9326 25.577 40.769 25.5659 40.6064 25.5783H40.5543C39.2816 25.4848 38.0223 25.2545 36.7977 24.8913C35.2622 24.4083 33.8472 23.5969 32.6486 22.5123C32.3575 22.2286 31.9683 22.0711 31.5641 22.0734H29.7249C29.3127 22.0764 28.9159 22.2326 28.6101 22.5123C27.3378 23.5937 25.8621 24.403 24.2722 24.8913C23.0295 25.2529 21.7532 25.4831 20.4636 25.5783H20.4115C20.2481 25.5659 20.0838 25.577 19.9235 25.6112C19.4736 25.6257 19.0232 25.6148 18.5744 25.5783C18.3434 25.5604 18.1111 25.5895 17.8913 25.664C17.6715 25.7384 17.4687 25.8567 17.2949 26.0118C17.121 26.1668 16.9796 26.3556 16.879 26.5668C16.7784 26.7781 16.7207 27.0076 16.7092 27.2418L16.0021 45.7123C15.986 46.0862 16.0627 46.4583 16.2252 46.7945C16.3878 47.1307 16.631 47.4204 16.9326 47.637L27.159 54.9146C27.5358 55.1819 27.9851 55.3245 28.4452 55.3228H30.2823C30.752 55.321 31.2107 55.179 31.601 54.9146L42.3827 47.637C42.7002 47.425 42.9639 47.1402 43.1523 46.8058C43.3408 46.4714 43.4486 46.0968 43.4672 45.7123L44.1721 27.2418C44.1814 27.0135 44.1423 26.7857 44.0576 26.5739C43.9728 26.362 43.8443 26.1709 43.6806 26.0134C43.5169 25.8559 43.3219 25.7356 43.1085 25.6605C42.8951 25.5855 42.6684 25.5574 42.4435 25.5783Z" fill="#4DABF7"/>
<path opacity="0.8" d="M42.4435 25.5783C41.994 25.6147 41.5429 25.6257 41.0922 25.6112C40.9326 25.577 40.769 25.5659 40.6064 25.5783H40.5543C39.2816 25.4848 38.0223 25.2545 36.7977 24.8913C35.2622 24.4083 33.8472 23.5969 32.6486 22.5123C32.3575 22.2286 31.9683 22.0711 31.5641 22.0734H29.7249C29.3127 22.0764 28.9159 22.2326 28.6101 22.5123C27.3378 23.5937 25.8621 24.403 24.2722 24.8913C23.0295 25.2529 21.7532 25.4831 20.4636 25.5783H20.4115C20.2481 25.5659 20.0838 25.577 19.9235 25.6112C19.4736 25.6257 19.0232 25.6148 18.5744 25.5783C18.3434 25.5604 18.1111 25.5895 17.8913 25.664C17.6715 25.7384 17.4687 25.8567 17.2949 26.0118C17.121 26.1668 16.9796 26.3556 16.879 26.5668C16.7784 26.7781 16.7207 27.0076 16.7092 27.2418L16.0021 45.7123C15.986 46.0862 16.0627 46.4583 16.2252 46.7945C16.3878 47.1307 16.631 47.4204 16.9326 47.637L27.159 54.9146C27.5358 55.1819 27.9851 55.3245 28.4452 55.3228H30.2823C30.752 55.321 31.2107 55.179 31.601 54.9146L42.3827 47.637C42.7002 47.425 42.9639 47.1402 43.1523 46.8058C43.3408 46.4714 43.4486 46.0968 43.4672 45.7123L44.1721 27.2418C44.1814 27.0135 44.1423 26.7857 44.0576 26.5739C43.9728 26.362 43.8443 26.1709 43.6806 26.0134C43.5169 25.8559 43.3219 25.7356 43.1085 25.6605C42.8951 25.5855 42.6684 25.5574 42.4435 25.5783Z" fill="white"/>
<path d="M17.1971 45.6771L17.8717 28.0165C17.8866 27.6927 18.0235 27.387 18.2542 27.1621C18.4849 26.9373 18.792 26.8103 19.1123 26.8073H19.5092C21.2255 26.7857 22.9308 26.5273 24.578 26.0391C26.1447 25.5587 27.6139 24.7983 28.9158 23.794C29.1302 23.6172 29.3984 23.5206 29.675 23.5206C29.9515 23.5206 30.2197 23.6172 30.4341 23.794C31.6697 24.8046 33.0845 25.5674 34.6028 26.0413C36.2301 26.5319 37.9172 26.7905 39.6151 26.8095H39.9817C40.1397 26.8081 40.2963 26.8394 40.4419 26.9014C40.5875 26.9634 40.719 27.0548 40.8285 27.1701C40.9379 27.2854 41.023 27.422 41.0784 27.5717C41.1338 27.7214 41.1584 27.881 41.1507 28.0407L40.4762 45.6793C40.4672 45.8781 40.412 46.0718 40.3151 46.2449C40.2183 46.418 40.0825 46.5656 39.9188 46.6757L29.2043 53.9182C29.0055 54.0554 28.7704 54.1288 28.5298 54.1288C28.2891 54.1288 28.054 54.0554 27.8552 53.9182L17.6916 46.6757C17.5327 46.5649 17.4041 46.4153 17.3176 46.2407C17.2312 46.0661 17.1897 45.8723 17.1971 45.6771Z" fill="#4DABF7"/>
<path opacity="0.2" d="M20.1752 44.7444L20.7478 29.7306C22.2811 29.6079 23.7983 29.3292 25.2765 28.8988C26.7844 28.4399 28.2217 27.7707 29.5471 26.9104C30.8166 27.7747 32.2052 28.4447 33.668 28.8988C35.1243 29.3311 36.6209 29.6098 38.1339 29.7306L37.5591 44.7444L28.6361 50.7666L20.1752 44.7444Z" fill="white"/>
</g>
<defs>
<filter id="filter0_d_12_583" x="0" y="0" width="98" height="98.5802" filterUnits="userSpaceOnUse" color-interpolation-filters="sRGB">
<feFlood flood-opacity="0" result="BackgroundImageFix"/>
<feColorMatrix in="SourceAlpha" type="matrix" values="0 0 0 0 0 0 0 0 0 0 0 0 0 0 0 0 0 0 127 0" result="hardAlpha"/>
<feOffset dx="7" dy="5"/>
<feGaussianBlur stdDeviation="11.5"/>
<feComposite in2="hardAlpha" operator="out"/>
<feColorMatrix type="matrix" values="0 0 0 0 0.0586805 0 0 0 0 0.14036 0 0 0 0 0.216667 0 0 0 0.25 0"/>
<feBlend mode="normal" in2="BackgroundImageFix" result="effect1_dropShadow_12_583"/>
<feBlend mode="normal" in="SourceGraphic" in2="effect1_dropShadow_12_583" result="shape"/>
</filter>
</defs>
</svg>
