<svg width="195" height="228" viewBox="0 0 195 228" fill="none" xmlns="http://www.w3.org/2000/svg">
<g clip-path="url(#clip0_201_1179)">
<path d="M31.209 219.193C31.209 223.192 67.9205 223.618 113.104 226.433C158.248 229.246 195 223.192 195 219.193C195 215.195 158.077 207.15 113.104 211.954C67.9205 216.78 31.209 215.195 31.209 219.193Z" fill="#A5D8FF"/>
<path d="M7.07469 0.000904841H60.6688C63.2551 0.00077856 65.7644 0.877948 67.7844 2.48822C69.8043 4.09849 71.2146 6.34602 71.7834 8.86136L98.863 128.615C99.1584 129.921 99.1636 131.276 98.8783 132.584C98.593 133.893 98.024 135.123 97.2113 136.189C96.3986 137.255 95.3619 138.131 94.1737 138.755C92.9856 139.379 91.6749 139.737 90.3335 139.803L35.2381 142.509C32.288 142.654 29.3857 141.724 27.0729 139.892C24.7601 138.06 23.1948 135.452 22.669 132.554L7.3068 47.8878L6.16392 48.2133L3.22378 32.1657L4.40006 31.8726L0.112132 8.23891C-0.0716159 7.2266 -0.0291041 6.18634 0.23666 5.1923C0.502425 4.19825 0.984898 3.27491 1.64966 2.48808C2.31441 1.70126 3.14509 1.07035 4.08248 0.640318C5.01987 0.210288 6.04087 -0.00826552 7.0727 0.000239007L7.07469 0.000904841Z" fill="#3F3D56"/>
<path d="M53.614 2.58252H59.8694C61.666 2.58254 63.4085 3.19513 64.8078 4.3186C66.207 5.44207 67.1788 7.00885 67.5618 8.75885L93.5554 127.535C93.7051 128.219 93.705 128.927 93.5551 129.611C93.4051 130.295 93.1089 130.938 92.6866 131.497C92.2644 132.057 91.726 132.518 91.1083 132.851C90.4906 133.184 89.8081 133.38 89.1075 133.425L34.1912 137.014C32.6419 137.115 31.1095 136.644 29.8863 135.691C28.6632 134.737 27.8349 133.368 27.5597 131.845L5.3794 9.07796C5.23586 8.28337 5.26897 7.46706 5.47641 6.68663C5.68385 5.90619 6.06056 5.18066 6.57996 4.56122C7.09935 3.94178 7.74879 3.44353 8.48241 3.10164C9.21603 2.75975 10.016 2.58254 10.8258 2.58252H16.7602C17.3346 2.5825 17.893 2.77127 18.3489 3.11961C18.8049 3.46794 19.1329 3.95641 19.2823 4.50939V4.50939C19.4141 4.99774 19.7038 5.42911 20.1065 5.73668C20.5092 6.04424 21.0024 6.21083 21.5096 6.21064H49.6833C50.6764 6.21061 51.6329 5.83694 52.3616 5.16431C53.0903 4.49169 53.5376 3.56966 53.614 2.58252V2.58252Z" fill="#A5D8FF"/>
<path d="M25.8839 80.9039C25.7911 80.907 25.7003 80.877 25.628 80.8193C25.5557 80.7615 25.5067 80.6799 25.4899 80.5893L14.9403 22.7979C14.9303 22.743 14.9323 22.6865 14.9462 22.6324C14.9601 22.5783 14.9857 22.5279 15.021 22.4845C15.0561 22.4414 15.1002 22.4065 15.1504 22.3823C15.2006 22.3581 15.2555 22.3452 15.3113 22.3444L63.308 21.7817H63.3125C63.3996 21.7825 63.4839 21.8126 63.5516 21.867C63.6192 21.9215 63.6663 21.9972 63.6849 22.0817L76.1216 77.9974C76.1338 78.0519 76.1339 78.1085 76.122 78.1631C76.1102 78.2177 76.0865 78.2691 76.0528 78.3139C76.0193 78.3582 75.9765 78.3947 75.9272 78.4208C75.8779 78.4468 75.8235 78.4618 75.7678 78.4646L25.8839 80.9039Z" fill="#F0F0F0"/>
<path d="M71.2039 89.9375C71.2541 89.9375 71.3029 89.9545 71.3422 89.9857C71.3815 90.0169 71.4092 90.0604 71.4206 90.1092L71.938 92.3201C71.9453 92.3513 71.9458 92.3837 71.9393 92.4152C71.9329 92.4466 71.9197 92.4763 71.9006 92.5021C71.8816 92.528 71.8571 92.5494 71.829 92.5649C71.8008 92.5804 71.7696 92.5897 71.7375 92.5921L42.5076 94.6633C42.4534 94.6667 42.3998 94.6505 42.3566 94.6175C42.3135 94.5846 42.2838 94.5372 42.2731 94.4841L41.7755 91.9261C41.7695 91.8951 41.7701 91.8631 41.7775 91.8324C41.7849 91.8016 41.7988 91.7728 41.8182 91.7478C41.8376 91.7228 41.8622 91.7023 41.8903 91.6875C41.9183 91.6728 41.9492 91.6642 41.9808 91.6623L71.1903 89.9379L71.2039 89.9375Z" fill="#F0F0F0"/>
<path d="M35.6912 102.875C35.6384 102.88 35.586 102.865 35.5431 102.834C35.5002 102.803 35.4697 102.758 35.4571 102.707L34.8236 100.144C34.8158 100.112 34.815 100.08 34.8213 100.048C34.8275 100.016 34.8406 99.9862 34.8597 99.96C34.8788 99.9338 34.9034 99.9122 34.9318 99.8965C34.9602 99.8808 34.9917 99.8715 35.0241 99.8692L72.3525 97.2663C72.4032 97.2623 72.4537 97.2759 72.4954 97.3047C72.5372 97.3336 72.5677 97.376 72.5817 97.4247L73.2399 99.6398C73.2493 99.6714 73.2515 99.7048 73.2463 99.7374C73.2411 99.77 73.2287 99.8011 73.21 99.8283C73.1912 99.8555 73.1666 99.8782 73.138 99.8948C73.1093 99.9113 73.0773 99.9213 73.0443 99.924L35.6912 102.875Z" fill="#F0F0F0"/>
<path d="M37.6958 111.092C37.6431 111.096 37.5906 111.082 37.5477 111.051C37.5048 111.02 37.4743 110.975 37.4617 110.924L36.8282 108.361C36.8205 108.329 36.8197 108.297 36.8259 108.265C36.8322 108.233 36.8453 108.203 36.8644 108.177C36.8835 108.151 36.9081 108.129 36.9365 108.113C36.9648 108.098 36.9963 108.088 37.0287 108.086L74.3571 105.483C74.4078 105.479 74.4583 105.493 74.5001 105.522C74.5418 105.55 74.5723 105.593 74.5863 105.641L75.2445 107.857C75.2539 107.888 75.2561 107.922 75.2509 107.954C75.2457 107.987 75.2333 108.018 75.2146 108.045C75.1959 108.072 75.1713 108.095 75.1426 108.112C75.114 108.128 75.082 108.138 75.049 108.141L37.6958 111.092Z" fill="#F0F0F0"/>
<path d="M54.8877 125.138C54.8346 125.144 54.7812 125.13 54.7376 125.099C54.694 125.068 54.6632 125.022 54.6507 124.971L53.3114 119.63C53.3036 119.599 53.3026 119.566 53.3086 119.534C53.3146 119.503 53.3274 119.473 53.3462 119.447C53.365 119.42 53.3893 119.399 53.4173 119.383C53.4454 119.367 53.4766 119.357 53.5088 119.354L76.4321 117.432C76.4856 117.429 76.5387 117.444 76.5819 117.476C76.6251 117.507 76.6557 117.553 76.6682 117.605L77.8106 122.731C77.8175 122.762 77.8177 122.794 77.8113 122.825C77.8048 122.855 77.7919 122.885 77.7733 122.91C77.7547 122.936 77.7308 122.957 77.7034 122.972C77.6759 122.988 77.6454 122.998 77.6139 123L54.8877 125.138Z" fill="#2C91E8"/>
<path d="M128.095 140.352C127.474 139.928 126.954 139.373 126.571 138.727C126.188 138.08 125.953 137.358 125.88 136.611C125.808 135.864 125.901 135.11 126.153 134.403C126.404 133.695 126.808 133.051 127.337 132.517L125.34 88.0737L135.507 89.2113L134.916 132.683C135.759 133.626 136.225 134.846 136.227 136.11C136.228 137.373 135.764 138.594 134.923 139.539C134.082 140.485 132.922 141.089 131.663 141.239C130.405 141.388 129.135 141.072 128.094 140.35L128.095 140.352Z" fill="#FFB573"/>
<path d="M109.547 215.584L103.76 216.598L98.0412 194.828L105.623 193.332L109.547 215.584Z" fill="#FFB573"/>
<path d="M93.5435 223.911L111.73 220.724L110.495 213.719L99.3348 215.675C97.4713 216.001 95.8142 217.053 94.7281 218.597C93.6421 220.142 93.216 222.054 93.5436 223.912L93.5435 223.911Z" fill="#2F2E41"/>
<path d="M125.43 218.472H119.554L116.759 195.878H125.431L125.43 218.472Z" fill="#FFB573"/>
<path d="M108.226 223.912L126.691 223.913L126.691 216.8L115.36 216.8C113.468 216.8 111.653 217.549 110.315 218.883C108.977 220.217 108.226 222.026 108.226 223.912V223.912Z" fill="#2F2E41"/>
<path d="M100.918 210.373C101.009 210.373 101.101 210.368 101.192 210.357L108.107 209.79C108.422 209.753 108.726 209.653 109.001 209.495C109.276 209.337 109.515 209.126 109.705 208.873C109.896 208.62 110.032 208.331 110.107 208.024C110.182 207.717 110.193 207.398 110.141 207.086L103.276 173.316L107.589 150.633C107.624 150.449 107.725 150.283 107.872 150.167C108.02 150.051 108.205 149.993 108.393 150.002C108.581 150.011 108.759 150.088 108.895 150.218C109.031 150.348 109.115 150.523 109.131 150.71L115.486 208.344C115.546 208.951 115.839 209.511 116.305 209.907C116.771 210.302 117.373 210.502 117.983 210.464L124.498 210.222C125.069 210.181 125.606 209.934 126.006 209.526C126.407 209.119 126.643 208.579 126.672 208.009L126.152 138.363L92.3749 134.154L90.0152 170.485L90.0247 170.524L98.6466 208.592C98.7707 209.099 99.0619 209.55 99.4736 209.873C99.8853 210.196 100.394 210.372 100.918 210.373V210.373Z" fill="#2F2E41"/>
<path d="M115.013 59.276C108.512 59.276 103.242 54.0221 103.242 47.5411C103.242 41.0601 108.512 35.8062 115.013 35.8062C121.513 35.8062 126.783 41.0601 126.783 47.5411C126.783 54.0221 121.513 59.276 115.013 59.276Z" fill="#FFB573"/>
<path d="M103.922 143.663C105.763 143.674 107.569 143.159 109.125 142.179C114.828 138.627 121.303 140.039 124.656 141.197C124.989 141.313 125.344 141.353 125.694 141.313C126.044 141.273 126.381 141.155 126.679 140.967C126.973 140.782 127.222 140.534 127.407 140.24C127.591 139.946 127.707 139.614 127.745 139.27L133.841 84.9812C134.863 75.8851 129.367 67.3332 120.773 64.6466C120.45 64.5456 120.122 64.45 119.788 64.3599C117.114 63.637 114.314 63.5073 111.584 63.9797C108.854 64.4521 106.261 65.5152 103.987 67.0943C101.671 68.6906 99.7345 70.7735 98.3131 73.1966C96.8917 75.6196 96.0203 78.3238 95.7602 81.1188L90.6271 135.771C90.5922 136.125 90.6401 136.482 90.7671 136.815C90.894 137.147 91.0966 137.445 91.3589 137.686C93.1589 139.345 98.3816 143.663 103.922 143.663Z" fill="#1864AB"/>
<path d="M122.488 96.6227L136.242 95.1148C136.634 95.0719 137.011 94.9454 137.349 94.7439C137.687 94.5424 137.978 94.2707 138.201 93.9472C138.424 93.6238 138.574 93.2561 138.642 92.8694C138.71 92.4827 138.693 92.086 138.593 91.7063L135.092 78.4018C134.989 77.4046 134.688 76.4377 134.208 75.5569C133.728 74.6761 133.077 73.8989 132.294 73.2703C131.511 72.6416 130.61 72.174 129.645 71.8944C128.679 71.6147 127.668 71.5287 126.668 71.6412C125.669 71.7536 124.702 72.0624 123.823 72.5497C122.945 73.0369 122.172 73.693 121.549 74.4799C120.926 75.2668 120.465 76.1691 120.194 77.1344C119.923 78.0998 119.847 79.1091 119.969 80.1042L119.449 93.8047C119.434 94.1971 119.504 94.588 119.655 94.9509C119.805 95.3138 120.032 95.6401 120.32 95.9077C120.609 96.1752 120.951 96.3776 121.325 96.5012C121.699 96.6248 122.095 96.6665 122.486 96.6237L122.488 96.6227Z" fill="#1864AB"/>
<path d="M90.6832 138.449C90.1182 137.953 89.6692 137.34 89.3676 136.653C89.0661 135.965 88.9195 135.22 88.938 134.47C88.9566 133.72 89.1399 132.983 89.475 132.311C89.8101 131.639 90.289 131.048 90.8777 130.581L94.2673 86.2222L104.23 88.4582L98.3835 131.657C99.1064 132.695 99.4222 133.961 99.2708 135.216C99.1194 136.471 98.5114 137.627 97.5622 138.464C96.6129 139.302 95.3884 139.763 94.1208 139.76C92.8532 139.757 91.6306 139.291 90.6851 138.449H90.6832Z" fill="#FFB573"/>
<path d="M108.049 93.8347C108.337 93.5673 108.564 93.2412 108.715 92.8783C108.865 92.5155 108.935 92.1247 108.92 91.7324L108.4 78.0318C108.512 77.0419 108.428 76.0396 108.151 75.0822C107.875 74.1248 107.412 73.2311 106.789 72.452C106.166 71.6729 105.396 71.0238 104.521 70.5417C103.647 70.0596 102.686 69.7539 101.693 69.6421C100.7 69.5304 99.6944 69.6147 98.7341 69.8902C97.7739 70.1658 96.8774 70.6273 96.096 71.2482C95.3146 71.8692 94.6635 72.6376 94.1799 73.5094C93.6964 74.3812 93.3898 75.3395 93.2776 76.3295L89.7764 89.634C89.6764 90.0137 89.6597 90.4104 89.7274 90.7971C89.7952 91.1838 89.9457 91.5514 90.1688 91.8749C90.3919 92.1984 90.6822 92.4701 91.0202 92.6716C91.3581 92.8731 91.7356 92.9996 92.127 93.0425L105.881 94.5504C106.272 94.5934 106.669 94.5516 107.043 94.4279C107.416 94.3042 107.759 94.1015 108.047 93.8337L108.049 93.8347Z" fill="#1864AB"/>
<path d="M115.713 59.7181C115.923 59.718 116.132 59.6938 116.336 59.6459L116.396 59.6316C126.744 58.0549 129.032 52.0768 129.534 49.5814C130.053 46.9975 129.462 44.5034 128.125 43.5345C128.854 41.2411 128.737 39.2052 127.776 37.4847C126.099 34.4842 122.466 33.4713 121.977 33.3452C119.074 31.21 115.601 32.6352 114.969 32.9243C109.353 30.853 107.205 32.5769 106.818 32.962C104.308 33.4116 102.778 34.3782 102.27 35.8364C101.315 38.5746 104.333 41.9807 104.462 42.1245L104.529 42.1991L109.024 42.4126C109.45 42.4329 109.868 42.5424 110.249 42.7339C110.631 42.9255 110.967 43.1948 111.238 43.5244C111.508 43.854 111.706 44.2366 111.818 44.6474C111.93 45.0581 111.955 45.4878 111.89 45.9086C111.769 46.4515 111.615 46.9867 111.43 47.5116C110.663 49.9034 110.088 51.9469 110.829 52.7238C110.997 52.874 111.204 52.9741 111.427 53.0126C111.649 53.051 111.878 53.0263 112.087 52.9412C112.79 52.7539 113.267 52.793 113.505 53.0582C113.874 53.4686 113.761 54.5083 113.187 55.9847C113.007 56.4516 112.959 56.9587 113.047 57.4512C113.136 57.9436 113.357 58.4025 113.689 58.7783C113.938 59.0715 114.248 59.3074 114.598 59.4696C114.948 59.6319 115.328 59.7166 115.714 59.7181H115.713Z" fill="#2F2E41"/>
</g>
<defs>
<clipPath id="clip0_201_1179">
<rect width="195" height="227.154" fill="white" transform="matrix(-1 0 0 1 195 0)"/>
</clipPath>
</defs>
</svg>
