<svg width="221" height="224" viewBox="0 0 221 224" fill="none" xmlns="http://www.w3.org/2000/svg">
<g filter="url(#filter0_d_201_1397)">
<path d="M195.958 210.644H98.0373C96.8073 210.65 95.589 210.403 94.4562 209.918C93.3234 209.433 92.2998 208.72 91.4475 207.823C90.5951 206.926 89.9318 205.862 89.4977 204.698C89.0637 203.534 88.8679 202.292 88.9224 201.049L96.1134 12.9517C96.2353 10.3841 97.3222 7.96063 99.1516 6.17703C100.981 4.39342 103.415 3.38448 105.955 3.35655H203.876C205.106 3.35064 206.324 3.59763 207.457 4.08253C208.59 4.56743 209.614 5.28013 210.466 6.1774C211.318 7.07467 211.982 8.1378 212.416 9.3023C212.85 10.4668 213.045 11.7084 212.991 12.9517L205.8 201.049C205.678 203.616 204.591 206.04 202.762 207.823C200.932 209.607 198.499 210.616 195.958 210.644V210.644Z" fill="#4DABF7"/>
<path opacity="0.8" d="M195.958 210.644H98.0373C96.8073 210.65 95.589 210.403 94.4562 209.918C93.3234 209.433 92.2998 208.72 91.4475 207.823C90.5951 206.926 89.9318 205.862 89.4977 204.698C89.0637 203.534 88.8679 202.292 88.9224 201.049L96.1134 12.9517C96.2353 10.3841 97.3222 7.96063 99.1516 6.17703C100.981 4.39342 103.415 3.38448 105.955 3.35655H203.876C205.106 3.35064 206.324 3.59763 207.457 4.08253C208.59 4.56743 209.614 5.28013 210.466 6.1774C211.318 7.07467 211.982 8.1378 212.416 9.3023C212.85 10.4668 213.045 11.7084 212.991 12.9517L205.8 201.049C205.678 203.616 204.591 206.04 202.762 207.823C200.932 209.607 198.499 210.616 195.958 210.644V210.644Z" fill="white"/>
<path d="M186.587 206.828H100.226C99.1484 206.833 98.0806 206.616 97.0878 206.191C96.0949 205.766 95.1976 205.141 94.4502 204.355C93.7028 203.569 93.1209 202.637 92.7395 201.617C92.3582 200.596 92.1854 199.508 92.2317 198.418L98.961 22.2615C99.0699 20.01 100.024 17.8855 101.63 16.3224C103.235 14.7592 105.369 13.8754 107.597 13.8517H193.958C195.036 13.8459 196.105 14.062 197.098 14.4867C198.091 14.9114 198.989 15.5359 199.737 16.3224C200.484 17.1089 201.066 18.0408 201.447 19.0618C201.828 20.0827 202 21.1713 201.953 22.2615L195.223 198.418C195.112 200.669 194.157 202.793 192.552 204.355C190.948 205.918 188.814 206.802 186.587 206.828V206.828Z" fill="#4DABF7"/>
<path opacity="0.8" d="M147.836 196.853C150.122 194.584 150.227 190.942 148.071 188.718C145.914 186.494 142.314 186.53 140.028 188.799C137.742 191.068 137.638 194.71 139.794 196.934C141.95 199.158 145.551 199.122 147.836 196.853Z" fill="white"/>
<path d="M145.468 152.753C140.907 152.783 136.388 151.874 132.186 150.08C127.984 148.286 124.188 145.645 121.027 142.318C117.867 138.99 115.41 135.047 113.805 130.727C112.2 126.407 111.481 121.802 111.693 117.192L112.847 86.8668H112.787C112.449 86.8652 112.112 86.8363 111.778 86.7803L110.615 117.192C110.399 121.943 111.141 126.688 112.796 131.138C114.451 135.589 116.984 139.652 120.241 143.08C123.497 146.508 127.41 149.23 131.739 151.079C136.069 152.927 140.725 153.865 145.425 153.834C155.385 153.789 164.919 149.743 171.932 142.586C171.677 142.325 171.453 142.035 171.265 141.721C167.896 145.19 163.883 147.951 159.455 149.845C155.028 151.738 150.274 152.726 145.468 152.753V152.753Z" fill="white"/>
<path d="M149.606 44.3338C131.282 44.3338 115.575 58.1772 112.514 76.0784C112.741 76.065 112.97 76.065 113.198 76.0784C113.334 76.0784 113.463 76.0784 113.599 76.0784C116.626 58.7742 131.838 45.4326 149.563 45.4326C154.124 45.4006 158.644 46.3091 162.847 48.1026C167.05 49.8961 170.848 52.5371 174.009 55.8645C177.17 59.1919 179.628 63.136 181.234 67.4562C182.839 71.7764 183.558 76.3822 183.346 80.9928L181.961 117.211C181.737 122.867 180.211 128.392 177.506 133.347C177.846 133.446 178.171 133.592 178.473 133.779C181.243 128.689 182.803 123.017 183.03 117.211L184.415 80.9928C184.635 76.2409 183.895 71.4935 182.242 67.0402C180.589 62.587 178.057 58.5212 174.799 55.0909C171.542 51.6606 167.628 48.9377 163.297 47.0882C158.965 45.2388 154.307 44.3016 149.606 44.3338V44.3338Z" fill="white"/>
<path d="M149.324 51.7385C155.085 51.7242 160.728 53.398 165.57 56.5577C165.723 56.2224 165.909 55.9036 166.125 55.606C161.116 52.3524 155.284 50.6337 149.332 50.657C142.597 50.6789 136.03 52.793 130.521 56.7134C130.71 57.0194 130.867 57.3441 130.991 57.6825C136.348 53.8316 142.753 51.7551 149.324 51.7385V51.7385Z" fill="white"/>
<path d="M116.233 120.67C115.968 118.817 115.871 116.943 115.943 115.072L117.165 83.0596C117.432 76.4604 119.694 70.1032 123.647 64.8469C123.341 64.6907 123.054 64.4991 122.792 64.2759C118.722 69.6993 116.394 76.2554 116.122 83.0596L114.899 115.072C114.825 117.03 114.928 118.991 115.207 120.93C115.54 120.81 115.884 120.723 116.233 120.67V120.67Z" fill="white"/>
<path d="M173.839 62.7876C173.58 63.0546 173.293 63.2924 172.983 63.4971C177.222 69.1046 179.377 76.0414 179.071 83.0941L177.849 115.107C177.458 123.497 173.908 131.419 167.928 137.244C161.948 143.07 153.991 146.359 145.69 146.436V146.436C139.1 146.467 132.686 144.285 127.452 140.233C127.146 140.473 126.813 140.676 126.46 140.838C131.926 145.195 138.689 147.55 145.647 147.518C154.235 147.439 162.467 144.037 168.654 138.01C174.841 131.982 178.514 123.787 178.918 115.107L180.14 83.0941C180.461 75.7865 178.23 68.5977 173.839 62.7876V62.7876Z" fill="white"/>
<path d="M120.859 95.7872L121.261 85.2143C121.599 77.9571 124.669 71.1061 129.842 66.067C135.014 61.0279 141.896 58.183 149.076 58.1159C155.12 58.0708 160.984 60.1947 165.627 64.1104C170.27 68.026 173.392 73.4801 174.437 79.5039C174.787 79.4411 175.142 79.4092 175.497 79.4087V79.4087C174.434 73.1161 171.195 67.4108 166.358 63.3121C161.521 59.2134 155.402 56.9883 149.093 57.0344C141.626 57.1013 134.467 60.0588 129.088 65.2995C123.708 70.5403 120.516 77.6664 120.166 85.2143L119.782 95.8651C120.028 95.8342 120.277 95.8169 120.526 95.8131L120.859 95.7872Z" fill="white"/>
<path d="M157.096 137.619C153.602 139.213 149.814 140.042 145.98 140.05C142.499 140.084 139.047 139.398 135.837 138.035C132.626 136.672 129.724 134.661 127.308 132.125C124.891 129.588 123.012 126.58 121.784 123.283C120.556 119.987 120.006 116.471 120.166 112.952L120.414 106.584H120.081C119.835 106.585 119.589 106.568 119.345 106.532L119.097 112.935C118.93 116.588 119.5 120.238 120.772 123.662C122.045 127.085 123.993 130.211 126.498 132.847C129.003 135.484 132.012 137.577 135.343 138.998C138.673 140.42 142.255 141.14 145.869 141.115C149.927 141.11 153.936 140.225 157.626 138.519C157.416 138.241 157.238 137.939 157.096 137.619Z" fill="white"/>
<path d="M175.087 90.2406C174.933 90.2406 174.779 90.2406 174.634 90.2406L173.779 112.978C173.486 119.889 170.685 126.447 165.912 131.399C166.126 131.695 166.307 132.014 166.451 132.35C171.544 127.182 174.54 120.271 174.848 112.978L175.703 90.2319C175.506 90.2233 175.301 90.2406 175.087 90.2406Z" fill="white"/>
<path d="M158.421 65.4522C155.422 64.0827 152.169 63.3777 148.879 63.3843C142.532 63.4413 136.447 65.9546 131.874 70.4082C127.301 74.8619 124.587 80.918 124.287 87.3334L123.39 110.824C123.341 112.209 123.41 113.595 123.595 114.968C123.906 114.681 124.247 114.429 124.612 114.215C124.475 113.091 124.423 111.957 124.458 110.824L125.356 87.3334C125.642 81.208 128.234 75.4258 132.601 71.1734C136.967 66.9209 142.776 64.5209 148.836 64.4658C151.948 64.4702 155.023 65.1456 157.857 66.4472C158.013 66.098 158.202 65.7648 158.421 65.4522Z" fill="white"/>
<path d="M166.647 71.9155C166.439 72.2269 166.202 72.5167 165.937 72.7807C169.153 76.9141 170.794 82.0785 170.563 87.3336L169.666 110.824C169.385 116.772 166.928 122.403 162.774 126.621C158.62 130.839 153.064 133.344 147.186 133.648C147.074 134.036 146.923 134.41 146.733 134.764C152.979 134.568 158.921 131.993 163.371 127.554C167.821 123.116 170.451 117.14 170.734 110.824L171.632 87.3336C171.877 81.752 170.105 76.2712 166.647 71.9155V71.9155Z" fill="white"/>
<path d="M144.356 71.3196C144.373 70.9407 144.424 70.5642 144.51 70.1948C141.779 70.7942 139.2 71.9577 136.934 73.6124C137.264 73.7824 137.569 73.9978 137.84 74.2527C139.81 72.8687 142.021 71.8736 144.356 71.3196V71.3196Z" fill="white"/>
<path d="M164.732 113.54C163.529 117.514 161.107 120.997 157.818 123.486C154.528 125.975 150.541 127.34 146.434 127.383C144.039 127.4 141.666 126.923 139.46 125.98C137.254 125.038 135.26 123.65 133.602 121.902C131.944 120.153 130.656 118.081 129.816 115.812C128.976 113.543 128.602 111.124 128.717 108.703L129.452 89.4525C129.544 87.1773 130.042 84.9377 130.923 82.8423C130.618 82.592 130.347 82.3009 130.119 81.9771C129.084 84.3269 128.504 86.8556 128.409 89.4265L127.674 108.677C127.558 111.235 127.957 113.79 128.848 116.186C129.74 118.582 131.103 120.77 132.857 122.615C134.611 124.461 136.717 125.926 139.048 126.921C141.379 127.916 143.887 128.421 146.417 128.404C150.767 128.354 154.989 126.907 158.473 124.271C161.957 121.635 164.523 117.947 165.801 113.739C165.439 113.706 165.082 113.639 164.732 113.54V113.54Z" fill="white"/>
<path d="M166.34 89.4538L166.186 93.4511C166.468 93.4 166.754 93.3711 167.041 93.3646H167.272L167.417 89.4279C167.586 85.3411 166.434 81.3101 164.137 77.9445C161.84 74.5788 158.522 72.0617 154.685 70.7739C154.719 71.1596 154.719 71.5476 154.685 71.9333C158.224 73.2096 161.265 75.5997 163.362 78.7529C165.459 81.9061 166.503 85.6565 166.34 89.4538V89.4538Z" fill="white"/>
<path d="M148.384 76.0777C144.277 76.1174 140.341 77.7459 137.384 80.629C134.426 83.5122 132.672 87.4313 132.479 91.5823L132.317 95.8564C132.674 95.8802 133.029 95.9352 133.377 96.0208L133.548 91.5823C133.728 87.7148 135.366 84.0642 138.126 81.3825C140.886 78.7009 144.557 77.1924 148.384 77.1679C150.231 77.1577 152.061 77.5279 153.763 78.2561C155.465 78.9842 157.002 80.0551 158.282 81.4034C159.562 82.7518 160.557 84.3495 161.207 86.0994C161.857 87.8493 162.149 89.7147 162.064 91.5823L161.492 106.585C161.331 109.963 160.058 113.189 157.877 115.751C155.695 118.312 152.73 120.063 149.452 120.723C149.491 121.085 149.491 121.45 149.452 121.813C153.013 121.138 156.244 119.267 158.624 116.504C161.005 113.741 162.394 110.246 162.569 106.585L163.142 91.5823C163.234 89.5697 162.919 87.5593 162.217 85.6739C161.515 83.7885 160.441 82.0676 159.06 80.6165C157.679 79.1655 156.019 78.0145 154.184 77.2342C152.348 76.4538 150.375 76.0603 148.384 76.0777V76.0777Z" fill="white"/>
<path d="M138.396 88.7961C138.618 88.7828 138.841 88.7828 139.063 88.7961C139.984 87.1908 141.303 85.8564 142.889 84.9247C144.476 83.993 146.275 83.4963 148.11 83.4837C149.228 83.4839 150.338 83.677 151.393 84.0548C151.512 83.7093 151.664 83.3761 151.846 83.0598C150.663 82.6211 149.413 82.3957 148.152 82.3936C146.029 82.4159 143.953 83.023 142.145 84.1494C140.337 85.2759 138.867 86.8793 137.892 88.7875C138.06 88.7818 138.228 88.7847 138.396 88.7961Z" fill="white"/>
<path d="M157.378 104.465C157.323 105.703 157.05 106.922 156.575 108.064C156.908 108.189 157.221 108.361 157.507 108.575C158.067 107.275 158.386 105.882 158.447 104.465L158.858 93.7018C158.89 92.6977 158.789 91.6938 158.558 90.7168C158.236 90.8893 157.894 91.0229 157.541 91.1148C157.737 91.965 157.821 92.8379 157.789 93.7104L157.378 104.465Z" fill="white"/>
<path d="M149.238 114.362C148.471 114.55 147.684 114.646 146.895 114.648C145.593 114.65 144.304 114.385 143.106 113.869C141.908 113.352 140.826 112.595 139.925 111.643C139.025 110.691 138.325 109.563 137.869 108.329C137.412 107.095 137.207 105.78 137.267 104.464L137.455 99.593C137.096 99.5616 136.741 99.4949 136.395 99.394L136.198 104.464C136.135 105.923 136.365 107.381 136.875 108.747C137.385 110.113 138.164 111.36 139.166 112.413C140.167 113.465 141.369 114.3 142.7 114.867C144.03 115.434 145.46 115.722 146.904 115.712C147.8 115.709 148.692 115.598 149.563 115.383C149.425 115.053 149.317 114.711 149.238 114.362V114.362Z" fill="white"/>
<path d="M147.904 88.7785C146.034 88.8011 144.243 89.5485 142.901 90.8666C141.558 92.1847 140.766 93.9734 140.688 95.8645L140.44 102.388C140.417 102.996 140.477 103.605 140.619 104.197C140.891 103.865 141.208 103.574 141.56 103.331C141.517 103.022 141.5 102.709 141.509 102.397L141.757 95.8732C141.833 94.2776 142.51 92.772 143.648 91.6652C144.786 90.5584 146.3 89.9341 147.879 89.9205C148.64 89.9186 149.393 90.0729 150.093 90.3741C150.794 90.6752 151.426 91.1169 151.953 91.6726C152.48 92.2282 152.89 92.8862 153.158 93.6067C153.426 94.3273 153.547 95.0953 153.514 95.8645L153.266 102.388C153.21 103.545 152.839 104.664 152.193 105.62C151.547 106.576 150.651 107.332 149.606 107.804C149.587 108.213 149.53 108.618 149.435 109.016C150.813 108.533 152.016 107.644 152.889 106.462C153.763 105.281 154.266 103.862 154.334 102.388L154.591 95.8645C154.639 94.9483 154.501 94.0318 154.186 93.1713C153.871 92.3109 153.385 91.5248 152.759 90.8611C152.133 90.1975 151.379 89.6704 150.544 89.3123C149.71 88.9541 148.811 88.7725 147.904 88.7785V88.7785Z" fill="white"/>
<path d="M165.887 10.9863H135.874C135.652 10.9864 135.432 10.9413 135.227 10.8537C135.023 10.7661 134.837 10.6378 134.683 10.4764C134.528 10.315 134.407 10.1238 134.327 9.91413C134.246 9.70445 134.208 9.48059 134.215 9.25584V9.25584C134.241 8.79056 134.441 8.35276 134.775 8.03136C135.108 7.70996 135.55 7.52907 136.011 7.52542H166.015C166.238 7.52415 166.459 7.56836 166.664 7.65542C166.87 7.74249 167.056 7.87061 167.212 8.03213C167.368 8.19366 167.489 8.38527 167.57 8.59552C167.651 8.80578 167.689 9.03035 167.682 9.25584V9.25584C167.654 9.7204 167.453 10.157 167.12 10.478C166.787 10.799 166.346 10.9806 165.887 10.9863V10.9863Z" fill="#4DABF7"/>
<path opacity="0.5" d="M118.943 41.3559C117.168 41.4966 115.387 41.5371 113.608 41.4771C112.979 41.3407 112.333 41.2999 111.692 41.3559H111.496C106.476 40.9838 101.509 40.0761 96.6776 38.6478C96.1816 38.5007 95.6686 38.3277 95.147 38.146L90.9915 147.05L118.764 128.301C120.019 127.467 121.061 126.343 121.804 125.023C122.547 123.702 122.97 122.222 123.039 120.704L125.826 47.8969C125.866 46.9905 125.712 46.0861 125.374 45.2456C125.036 44.4051 124.523 43.6484 123.869 43.0272C123.215 42.4061 122.437 41.9352 121.587 41.6467C120.737 41.3583 119.835 41.2591 118.943 41.3559Z" fill="#1864AB"/>
<path d="M112.248 33.2321C110.476 33.3758 108.698 33.4191 106.921 33.3618C106.292 33.2269 105.647 33.1832 105.006 33.2321H104.801C99.7832 32.8634 94.8187 31.9556 89.9911 30.524C83.9376 28.6196 78.3592 25.4211 73.6338 21.1451C72.4861 20.0265 70.9521 19.4056 69.3586 19.4146H62.1077C60.4826 19.4266 58.9184 20.0424 57.7127 21.1451C52.697 25.4083 46.8796 28.5988 40.6116 30.524C35.7126 31.9492 30.6807 32.8568 25.5968 33.2321H25.3916C24.7474 33.1832 24.0997 33.2269 23.4677 33.3618C21.6939 33.4192 19.9183 33.3759 18.1493 33.2321C17.2382 33.1616 16.3225 33.2765 15.4561 33.57C14.5897 33.8635 13.7902 34.3297 13.1048 34.941C12.4193 35.5523 11.8619 36.2964 11.4653 37.1292C11.0687 37.9621 10.8411 38.867 10.7958 39.7904L8.00828 112.607C7.94478 114.081 8.24722 115.547 8.88798 116.873C9.52875 118.198 10.4874 119.34 11.6765 120.194L51.9924 148.885C53.4775 149.939 55.2489 150.501 57.0629 150.494H64.3052C66.1569 150.487 67.9654 149.927 69.5039 148.885L112.009 120.194C113.261 119.359 114.3 118.236 115.043 116.918C115.786 115.599 116.211 114.122 116.284 112.607L119.063 39.7904C119.1 38.8901 118.946 37.9922 118.611 37.157C118.277 36.3218 117.771 35.5685 117.125 34.9475C116.48 34.3265 115.711 33.8522 114.87 33.5564C114.029 33.2605 113.135 33.1499 112.248 33.2321V33.2321Z" fill="#4DABF7"/>
<path opacity="0.8" d="M112.248 33.2321C110.476 33.3758 108.698 33.4191 106.921 33.3618C106.292 33.2269 105.647 33.1832 105.006 33.2321H104.801C99.7832 32.8634 94.8187 31.9556 89.9911 30.524C83.9376 28.6196 78.3592 25.4211 73.6338 21.1451C72.4861 20.0265 70.9521 19.4056 69.3586 19.4146H62.1077C60.4826 19.4266 58.9184 20.0424 57.7127 21.1451C52.697 25.4083 46.8796 28.5988 40.6116 30.524C35.7126 31.9492 30.6807 32.8568 25.5968 33.2321H25.3916C24.7474 33.1832 24.0997 33.2269 23.4677 33.3618C21.6939 33.4192 19.9183 33.3759 18.1493 33.2321C17.2382 33.1616 16.3225 33.2765 15.4561 33.57C14.5897 33.8635 13.7902 34.3297 13.1048 34.941C12.4193 35.5523 11.8619 36.2964 11.4653 37.1292C11.0687 37.9621 10.8411 38.867 10.7958 39.7904L8.00828 112.607C7.94478 114.081 8.24722 115.547 8.88798 116.873C9.52875 118.198 10.4874 119.34 11.6765 120.194L51.9924 148.885C53.4775 149.939 55.2489 150.501 57.0629 150.494H64.3052C66.1569 150.487 67.9654 149.927 69.5039 148.885L112.009 120.194C113.261 119.359 114.3 118.236 115.043 116.918C115.786 115.599 116.211 114.122 116.284 112.607L119.063 39.7904C119.1 38.8901 118.946 37.9922 118.611 37.157C118.277 36.3218 117.771 35.5685 117.125 34.9475C116.48 34.3265 115.711 33.8522 114.87 33.5564C114.029 33.2605 113.135 33.1499 112.248 33.2321V33.2321Z" fill="white"/>
<path d="M12.7194 112.468L15.3786 42.8445C15.4375 41.568 15.9772 40.3628 16.8867 39.4762C17.7963 38.5897 19.0067 38.0891 20.2695 38.0772H21.8343C28.6003 37.9921 35.3232 36.9733 41.817 35.049C47.9936 33.1548 53.7853 30.1571 58.9181 26.1978C59.7633 25.5008 60.8204 25.1201 61.9108 25.1201C63.0012 25.1201 64.0582 25.5008 64.9035 26.1978C69.7746 30.1822 75.3524 33.1892 81.3377 35.0576C87.7533 36.9917 94.4041 38.0109 101.098 38.0858H102.543C103.166 38.0804 103.783 38.2037 104.357 38.4481C104.931 38.6926 105.45 39.0531 105.881 39.5075C106.313 39.962 106.648 40.5008 106.867 41.091C107.085 41.6811 107.182 42.3102 107.152 42.9397L104.493 112.477C104.457 113.26 104.239 114.024 103.858 114.706C103.476 115.389 102.941 115.971 102.295 116.405L60.0553 144.957C59.2715 145.498 58.3448 145.787 57.3961 145.787C56.4474 145.787 55.5207 145.498 54.7369 144.957L14.6689 116.405C14.0425 115.968 13.5353 115.378 13.1945 114.69C12.8536 114.001 12.6902 113.237 12.7194 112.468Z" fill="#4DABF7"/>
<path opacity="0.2" d="M24.4598 108.79L26.7172 49.6009C32.7621 49.117 38.7434 48.0184 44.5708 46.3217C50.5153 44.5127 56.1818 41.8744 61.4068 38.4829C66.4117 41.8901 71.886 44.5315 77.6529 46.3217C83.3941 48.0258 89.294 49.1247 95.2585 49.6009L92.9926 108.79L57.8156 132.531L24.4598 108.79Z" fill="white"/>
</g>
<defs>
<filter id="filter0_d_201_1397" x="0" y="0.356445" width="221" height="223.288" filterUnits="userSpaceOnUse" color-interpolation-filters="sRGB">
<feFlood flood-opacity="0" result="BackgroundImageFix"/>
<feColorMatrix in="SourceAlpha" type="matrix" values="0 0 0 0 0 0 0 0 0 0 0 0 0 0 0 0 0 0 127 0" result="hardAlpha"/>
<feOffset dy="5"/>
<feGaussianBlur stdDeviation="4"/>
<feComposite in2="hardAlpha" operator="out"/>
<feColorMatrix type="matrix" values="0 0 0 0 0.0941176 0 0 0 0 0.392157 0 0 0 0 0.670588 0 0 0 0.25 0"/>
<feBlend mode="normal" in2="BackgroundImageFix" result="effect1_dropShadow_201_1397"/>
<feBlend mode="normal" in="SourceGraphic" in2="effect1_dropShadow_201_1397" result="shape"/>
</filter>
</defs>
</svg>
