<svg width="335" height="223" viewBox="0 0 335 223" fill="none" xmlns="http://www.w3.org/2000/svg">
<g clip-path="url(#clip0_201_1336)">
<path d="M178.79 181.207C183.69 157.584 189.814 149.708 189.814 149.708L192.154 147.899L194.967 145.72L194.954 145.44L195.621 145.214L195.778 145.092L196.035 144.895L196.076 144.94L196.163 145.03L208.895 140.714L225.048 135.243L232.527 125.549C233.745 123.97 235.314 122.694 237.109 121.82C238.905 120.947 240.879 120.5 242.876 120.515L266.764 120.691C269.994 120.715 273.098 121.943 275.466 124.133L291.167 138.656L315.632 150.307L315.674 150.266L315.931 150.449L319.711 152.251L319.555 153.061L321.894 154.744C321.894 154.744 328.019 162.073 332.918 184.053C334.164 189.646 334.778 201.643 334.999 216.427C335.011 217.175 334.872 217.918 334.593 218.612C334.314 219.306 333.899 219.938 333.373 220.471C332.846 221.004 332.219 221.427 331.527 221.716C330.835 222.005 330.093 222.154 329.343 222.154H198.669V222.154H182.36C181.61 222.154 180.868 222.005 180.177 221.716C179.485 221.428 178.858 221.005 178.332 220.473C177.806 219.941 177.391 219.309 177.111 218.616C176.831 217.923 176.693 217.181 176.703 216.433C176.919 200.346 177.533 187.272 178.79 181.207Z" fill="#1E6EB7"/>
<path d="M162.024 20.7549C167.108 20.7549 171.984 22.7687 175.579 26.3535C179.174 29.9382 181.193 34.8001 181.193 39.8696C181.193 44.9392 179.174 49.8011 175.579 53.3858C171.984 56.9705 167.108 58.9844 162.024 58.9844H19.1691C14.0851 58.9844 9.2094 56.9705 5.61451 53.3858C2.01961 49.8011 1.97068e-05 44.9392 1.97068e-05 39.8696C1.97068e-05 34.8001 2.01961 29.9382 5.61451 26.3535C9.2094 22.7687 14.0851 20.7549 19.1691 20.7549H162.024Z" fill="#E5E5E5"/>
<path d="M162.024 24.6235C166.079 24.6235 169.968 26.2298 172.836 29.0891C175.703 31.9483 177.314 35.8263 177.314 39.8698C177.314 43.9134 175.703 47.7913 172.836 50.6506C169.968 53.5098 166.079 55.1161 162.024 55.1161H19.1691C15.114 55.1161 11.2251 53.5098 8.35769 50.6506C5.49033 47.7913 3.87943 43.9134 3.87943 39.8698C3.87943 35.8263 5.49033 31.9483 8.35769 29.0891C11.2251 26.2298 15.114 24.6235 19.1691 24.6235H162.024Z" fill="white"/>
<path d="M251.069 111.567C233.785 111.567 219.774 97.5951 219.774 80.3603C219.774 63.1254 233.785 49.1538 251.069 49.1538C268.353 49.1538 282.364 63.1254 282.364 80.3603C282.364 97.5951 268.353 111.567 251.069 111.567Z" fill="#FFB573"/>
<path d="M259.075 110.038C259.209 109.745 259.342 109.45 259.475 109.155C259.424 109.156 259.373 109.164 259.322 109.165L259.075 110.038Z" fill="#2F2E41"/>
<path d="M283.234 50.5724C281.652 49.3134 279.802 48.1549 277.778 48.22C275.754 48.285 273.702 50.1076 274.121 52.0828C270.404 45.5201 264.488 40.4725 257.411 37.8262C250.333 35.1799 242.547 35.104 235.419 37.6117C230.39 39.3812 225.457 42.9212 224.302 48.1133C224.005 49.4461 223.942 50.9075 223.107 51.9899C222.055 53.3544 220.041 53.6631 218.384 53.1831C218.367 53.1783 218.351 53.1734 218.334 53.1685C218.054 53.0731 217.752 53.0638 217.466 53.1416C217.181 53.2194 216.925 53.3808 216.733 53.605C216.54 53.8292 216.42 54.1058 216.387 54.3991C216.354 54.6923 216.41 54.9887 216.547 55.2499L217.971 57.8965C216.177 58.2953 214.313 58.2557 212.537 57.7813C212.242 57.7042 211.931 57.7199 211.645 57.8264C211.359 57.9328 211.114 58.1248 210.942 58.3759C210.77 58.6271 210.68 58.9251 210.685 59.229C210.69 59.533 210.789 59.8281 210.968 60.0738C215.661 66.4983 223.501 70.6469 231.501 70.5981C237.187 70.5636 242.932 68.6094 248.466 69.9133C250.607 70.4177 252.607 71.3937 254.321 72.7696C256.034 74.1455 257.417 75.8865 258.367 77.8647C259.318 79.843 259.812 82.0083 259.814 84.2019C259.815 86.3955 259.325 88.5616 258.378 90.5414C260.078 88.6872 263.364 89.1262 265.103 90.9442C266.842 92.7623 267.292 95.4757 267.117 97.9821C266.849 101.815 265.343 105.428 263.755 108.943C277.068 108.525 289.659 99.213 293.897 86.6182C298.154 73.9705 293.693 58.8919 283.234 50.5724Z" fill="#36444F"/>
<path opacity="0.2" d="M304.198 174.075L295.42 221.697L290.153 222.154L304.198 174.075Z" fill="black"/>
<path opacity="0.2" d="M207.511 170.483L216.288 221.662L221.555 222.154L207.511 170.483Z" fill="black"/>
<path d="M267.961 30.3162C266.515 29.6998 265.894 28.1694 266.483 26.6773C267.082 25.1623 268.582 24.5174 270.052 25.1437C271.521 25.7701 272.122 27.2825 271.514 28.8219C270.914 30.3381 269.453 30.9526 267.961 30.3162ZM271.697 22.6293L270.548 22.1392C270.261 22.0158 270.028 21.7911 269.893 21.5096C269.759 21.2281 269.733 20.9103 269.821 20.619L269.857 20.5021C270.507 18.0874 272.269 16.124 275.091 14.6707C277.643 13.3871 279.255 12.3018 279.947 10.5502C280.748 8.52498 279.882 6.77465 277.574 5.748C276.667 5.36133 276.465 5.15135 275.47 5.12871C275.252 5.12507 275.035 5.0776 274.833 4.98913C274.631 4.90067 274.447 4.77301 274.292 4.61379C274.142 4.4604 274.024 4.27953 273.943 4.08195C273.863 3.88437 273.823 3.67414 273.825 3.46379C273.83 3.05847 273.988 2.67567 274.268 2.39269C274.548 2.10971 274.929 1.94764 275.334 1.9392C277.052 1.93212 278.767 2.28157 280.369 2.96552C285.393 5.10757 285.07 9.03909 283.991 11.7686C282.936 14.4384 280.754 15.7123 277.786 17.2205C275.315 18.4685 273.973 19.8821 273.297 21.9469C273.244 22.1006 273.159 22.2408 273.049 22.359C272.939 22.4772 272.805 22.571 272.656 22.6347C272.506 22.6984 272.344 22.7308 272.18 22.7299C272.015 22.729 271.851 22.6948 271.697 22.6293L271.697 22.6293Z" fill="#A5D8FF"/>
<path d="M130.469 48.9864H158.892C158.983 48.9871 159.072 48.9699 159.156 48.9358C159.239 48.9018 159.315 48.8516 159.379 48.7882C159.443 48.7247 159.494 48.6492 159.529 48.5661C159.564 48.483 159.582 48.3938 159.582 48.3038C159.582 48.2137 159.564 48.1246 159.529 48.0415C159.494 47.9583 159.443 47.8829 159.379 47.8194C159.315 47.756 159.239 47.7058 159.156 47.6717C159.072 47.6377 158.983 47.6205 158.892 47.6211H130.469C130.289 47.6223 130.116 47.6948 129.988 47.8227C129.861 47.9506 129.789 48.1235 129.789 48.3038C129.789 48.484 129.861 48.657 129.988 48.7849C130.116 48.9128 130.289 48.9852 130.469 48.9864Z" fill="#74C0FC"/>
<path d="M94.4133 49.214H122.836C122.926 49.2146 123.016 49.1974 123.1 49.1634C123.183 49.1293 123.259 49.0791 123.323 49.0157C123.387 48.9522 123.438 48.8768 123.473 48.7936C123.508 48.7105 123.525 48.6214 123.525 48.5313C123.525 48.4413 123.508 48.3521 123.473 48.269C123.438 48.1859 123.387 48.1104 123.323 48.0469C123.259 47.9835 123.183 47.9333 123.1 47.8993C123.016 47.8652 122.926 47.848 122.836 47.8486H94.4133C94.323 47.848 94.2335 47.8652 94.1499 47.8993C94.0663 47.9333 93.9903 47.9835 93.9262 48.0469C93.8621 48.1104 93.8113 48.1859 93.7766 48.269C93.7419 48.3521 93.724 48.4413 93.724 48.5313C93.724 48.6214 93.7419 48.7105 93.7766 48.7936C93.8113 48.8768 93.8621 48.9522 93.9262 49.0157C93.9903 49.0791 94.0663 49.1293 94.1499 49.1634C94.2335 49.1974 94.323 49.2146 94.4133 49.214V49.214Z" fill="#74C0FC"/>
<path d="M58.3572 49.4415H86.7801C86.9608 49.4403 87.1338 49.3678 87.2612 49.2399C87.3885 49.112 87.46 48.9391 87.46 48.7589C87.46 48.5786 87.3885 48.4057 87.2612 48.2778C87.1338 48.1499 86.9608 48.0774 86.7801 48.0762H58.3572C58.2669 48.0756 58.1774 48.0928 58.0938 48.1268C58.0102 48.1608 57.9341 48.211 57.8701 48.2745C57.806 48.3379 57.7552 48.4134 57.7205 48.4965C57.6858 48.5797 57.6679 48.6688 57.6679 48.7589C57.6679 48.8489 57.6858 48.9381 57.7205 49.0212C57.7552 49.1043 57.806 49.1798 57.8701 49.2432C57.9341 49.3067 58.0102 49.3569 58.0938 49.3909C58.1774 49.4249 58.2669 49.4421 58.3572 49.4415H58.3572Z" fill="#74C0FC"/>
<path d="M22.3011 49.669H50.724C50.9047 49.6678 51.0777 49.5954 51.205 49.4675C51.3324 49.3396 51.4039 49.1666 51.4039 48.9864C51.4039 48.8061 51.3324 48.6332 51.205 48.5053C51.0777 48.3774 50.9047 48.3049 50.724 48.3037H22.3011C22.1203 48.3049 21.9474 48.3774 21.82 48.5053C21.6926 48.6332 21.6211 48.8061 21.6211 48.9864C21.6211 49.1666 21.6926 49.3396 21.82 49.4675C21.9474 49.5954 22.1203 49.6678 22.3011 49.669Z" fill="#74C0FC"/>
<path d="M144.743 42.7037C141.826 42.7037 139.461 40.3453 139.461 37.4361C139.461 34.5269 141.826 32.1685 144.743 32.1685C147.661 32.1685 150.026 34.5269 150.026 37.4361C150.026 40.3453 147.661 42.7037 144.743 42.7037Z" fill="#74C0FC"/>
<path d="M108.469 42.7037C105.552 42.7037 103.187 40.3453 103.187 37.4361C103.187 34.5269 105.552 32.1685 108.469 32.1685C111.387 32.1685 113.752 34.5269 113.752 37.4361C113.752 40.3453 111.387 42.7037 108.469 42.7037Z" fill="#74C0FC"/>
<path d="M72.1955 42.7037C69.278 42.7037 66.9129 40.3453 66.9129 37.4361C66.9129 34.5269 69.278 32.1685 72.1955 32.1685C75.113 32.1685 77.4781 34.5269 77.4781 37.4361C77.4781 40.3453 75.113 42.7037 72.1955 42.7037Z" fill="#74C0FC"/>
<path d="M35.9217 42.7037C33.0042 42.7037 30.6391 40.3453 30.6391 37.4361C30.6391 34.5269 33.0042 32.1685 35.9217 32.1685C38.8392 32.1685 41.2043 34.5269 41.2043 37.4361C41.2043 40.3453 38.8392 42.7037 35.9217 42.7037Z" fill="#74C0FC"/>
</g>
<defs>
<clipPath id="clip0_201_1336">
<rect width="335" height="222" fill="white" transform="matrix(-1 0 0 1 335 0.154297)"/>
</clipPath>
</defs>
</svg>
