<svg width="326" height="258" viewBox="0 0 326 258" fill="none" xmlns="http://www.w3.org/2000/svg">
<path d="M172.716 255.178C91.0254 255.178 24.8022 251.268 24.8022 246.445C24.8022 241.622 91.0254 237.712 172.716 237.712C254.406 237.712 320.63 241.622 320.63 246.445C320.63 251.268 254.406 255.178 172.716 255.178Z" fill="#A5D8FF"/>
<path d="M172.716 132.708L188.163 120.798L199.978 136.37L184.531 148.279L172.716 132.708Z" fill="#A5D8FF"/>
<path d="M260.019 26.3944C257.579 26.3925 255.171 26.9667 252.99 28.0711C250.809 29.1754 248.915 30.7793 247.459 32.7541L238.439 20.8658L265.504 0L286.204 27.2817L274.539 36.2748C273.372 33.3565 271.366 30.8565 268.778 29.096C266.191 27.3354 263.141 26.3946 260.019 26.3944V26.3944Z" fill="#A5D8FF"/>
<path d="M57.1575 57.851L58.1677 57.9577L61.1134 30.0634C61.3373 27.9432 61.9733 25.8876 62.985 24.0139C63.9968 22.1402 65.3645 20.485 67.0101 19.1429C68.6556 17.8008 70.5468 16.7981 72.5757 16.1919C74.6045 15.5858 76.7313 15.3882 78.8346 15.6103L137.463 21.8018C139.566 22.0239 141.605 22.6614 143.462 23.6779C145.32 24.6945 146.96 26.0701 148.289 27.7263C149.618 29.3826 150.609 31.2869 151.207 33.3306C151.806 35.3744 151.998 37.5175 151.774 39.6376L135.613 192.668C135.389 194.788 134.753 196.844 133.742 198.717C132.73 200.591 131.362 202.246 129.717 203.588C128.071 204.93 126.18 205.933 124.151 206.539C122.122 207.145 119.996 207.343 117.892 207.121L59.2639 200.929C57.1606 200.707 55.122 200.07 53.2645 199.053C51.4071 198.037 49.767 196.661 48.4381 195.005C47.1092 193.349 46.1174 191.444 45.5193 189.401C44.9213 187.357 44.7287 185.214 44.9526 183.094L56.0708 77.8133L55.0606 77.7066L57.1575 57.851Z" fill="#3F3D56"/>
<path d="M64.511 30.5341L48.3737 183.342C48.2065 184.925 48.3504 186.525 48.7972 188.052C49.2439 189.578 49.9848 191 50.9774 192.237C51.9701 193.473 53.1951 194.5 54.5825 195.259C55.9699 196.018 57.4925 196.494 59.0633 196.659L117.974 202.88C119.544 203.046 121.132 202.899 122.647 202.446C124.162 201.994 125.574 201.245 126.803 200.243C128.031 199.241 129.053 198.005 129.808 196.606C130.563 195.207 131.038 193.672 131.205 192.089L147.343 39.2816C147.51 37.6986 147.366 36.0984 146.92 34.5724C146.473 33.0465 145.733 31.6246 144.74 30.388C143.748 29.1513 142.524 28.1242 141.137 27.3653C139.75 26.6063 138.228 26.1304 136.657 25.9647L129.508 25.2097C129.767 26.1165 129.801 27.074 129.607 27.9979C129.413 28.9218 128.996 29.7838 128.394 30.5082C127.792 31.2325 127.023 31.7969 126.154 32.1518C125.285 32.5067 124.344 32.6412 123.412 32.5435L89.8258 28.9965C88.8937 28.899 88 28.5717 87.2238 28.0435C86.4476 27.5153 85.8126 26.8025 85.3748 25.9679C84.9371 25.1333 84.7101 24.2027 84.7138 23.258C84.7176 22.3134 84.952 21.3838 85.3963 20.5512L77.7466 19.7434C76.1759 19.5769 74.5875 19.724 73.0723 20.1763C71.557 20.6285 70.1444 21.3771 68.9153 22.3791C67.6862 23.3812 66.6647 24.6171 65.909 26.0164C65.1533 27.4157 64.6783 28.9508 64.511 30.5341V30.5341Z" fill="#A5D8FF"/>
<path d="M74.4502 111.877L126.231 117.345C127.138 117.44 128.046 117.168 128.755 116.589C129.465 116.01 129.918 115.172 130.016 114.258L130.197 112.542C130.293 111.627 130.024 110.713 129.451 109.998C128.878 109.284 128.047 108.829 127.14 108.732L75.3598 103.264C74.4527 103.169 73.5448 103.441 72.8352 104.019C72.1256 104.598 71.6723 105.437 71.5748 106.351L71.3935 108.067C71.298 108.981 71.5662 109.896 72.1392 110.61C72.7123 111.324 73.5434 111.78 74.4502 111.877Z" fill="#F0F0F0"/>
<path d="M72.8877 126.672L124.668 132.14C125.575 132.235 126.483 131.963 127.193 131.385C127.903 130.806 128.356 129.967 128.453 129.053L128.635 127.337C128.73 126.423 128.462 125.508 127.889 124.794C127.316 124.08 126.485 123.624 125.578 123.527L73.7973 118.059C72.8902 117.964 71.9823 118.236 71.2727 118.815C70.5631 119.394 70.1098 120.232 70.0123 121.146L69.831 122.862C69.7355 123.777 70.0037 124.691 70.5767 125.406C71.1498 126.12 71.9809 126.575 72.8877 126.672V126.672Z" fill="#F0F0F0"/>
<path d="M72.2094 108.294L123.99 113.762C124.942 113.861 125.896 113.576 126.641 112.968C127.386 112.361 127.862 111.48 127.964 110.521L128.146 108.804C128.246 107.844 127.964 106.884 127.363 106.134C126.761 105.384 125.888 104.906 124.936 104.804L73.1554 99.3359C72.203 99.2365 71.2497 99.5219 70.5046 100.13C69.7596 100.737 69.2836 101.617 69.1811 102.577L68.9999 104.294C68.8996 105.254 69.1812 106.214 69.7829 106.964C70.3846 107.714 71.2572 108.192 72.2094 108.294V108.294ZM124.863 105.494C125.634 105.576 126.34 105.963 126.828 106.57C127.315 107.177 127.543 107.955 127.461 108.732L127.28 110.448C127.197 111.225 126.812 111.938 126.209 112.43C125.606 112.922 124.834 113.153 124.063 113.072L72.2823 107.604C71.5114 107.522 70.805 107.135 70.3179 106.528C69.8308 105.921 69.6028 105.143 69.684 104.366L69.8653 102.65C69.9482 101.873 70.3335 101.16 70.9367 100.668C71.5398 100.176 72.3116 99.9451 73.0826 100.026L124.863 105.494Z" fill="#3F3D56"/>
<path d="M70.6469 123.09L122.428 128.558C123.38 128.657 124.333 128.372 125.078 127.764C125.823 127.157 126.299 126.276 126.402 125.317L126.583 123.6C126.683 122.64 126.402 121.68 125.8 120.93C125.198 120.18 124.326 119.702 123.374 119.6L71.5929 114.132C70.6405 114.032 69.6872 114.318 68.9421 114.925C68.1971 115.533 67.7211 116.413 67.6186 117.373L67.4374 119.09C67.3371 120.05 67.6187 121.01 68.2204 121.76C68.8221 122.51 69.6947 122.988 70.6469 123.09V123.09ZM123.301 120.29C124.072 120.372 124.778 120.759 125.265 121.366C125.752 121.973 125.98 122.751 125.899 123.528L125.718 125.244C125.635 126.021 125.249 126.734 124.646 127.226C124.043 127.718 123.271 127.949 122.5 127.868L70.7198 122.4C69.9489 122.318 69.2425 121.931 68.7554 121.323C68.2683 120.716 68.0403 119.939 68.1215 119.162L68.3028 117.445C68.3857 116.668 68.771 115.956 69.3742 115.464C69.9773 114.972 70.7491 114.741 71.5201 114.822L123.301 120.29Z" fill="#3F3D56"/>
<path d="M85.6815 146.064L110.265 148.66C111.172 148.755 112.08 148.483 112.789 147.904C113.499 147.325 113.952 146.487 114.05 145.573L114.231 143.856C114.326 142.942 114.058 142.028 113.485 141.313C112.912 140.599 112.081 140.144 111.174 140.047L86.5911 137.451C85.6841 137.356 84.7761 137.628 84.0666 138.207C83.357 138.785 82.9037 139.624 82.8061 140.538L82.6248 142.254C82.5293 143.169 82.7975 144.083 83.3705 144.797C83.9436 145.511 84.7747 145.967 85.6815 146.064V146.064Z" fill="url(#paint0_linear_201_1275)"/>
<path d="M83.4407 142.481L108.024 145.077C108.976 145.177 109.93 144.892 110.675 144.284C111.42 143.676 111.896 142.796 111.998 141.836L112.179 140.12C112.28 139.16 111.998 138.199 111.396 137.449C110.795 136.7 109.922 136.221 108.97 136.12L84.3867 133.524C83.4342 133.424 82.481 133.709 81.7359 134.317C80.9908 134.925 80.5148 135.805 80.4124 136.765L80.2311 138.481C80.1308 139.441 80.4124 140.402 81.0141 141.152C81.6158 141.901 82.4885 142.38 83.4407 142.481V142.481ZM108.897 136.809C109.668 136.892 110.374 137.279 110.861 137.886C111.348 138.493 111.576 139.27 111.495 140.047L111.314 141.764C111.231 142.541 110.846 143.253 110.243 143.745C109.639 144.237 108.868 144.468 108.097 144.388L83.5135 141.792C82.7427 141.709 82.0362 141.322 81.5491 140.715C81.062 140.108 80.8341 139.331 80.9153 138.554L81.0966 136.837C81.1795 136.06 81.5648 135.348 82.1679 134.856C82.7711 134.364 83.5428 134.133 84.3138 134.213L108.897 136.809Z" fill="#3F3D56"/>
<path d="M207.807 241.486L202.251 241.402L200.97 228.358L206.533 228.442L207.807 241.486Z" fill="#FFB573"/>
<path d="M236.41 241.507H230.854L226.525 228.484H232.081L236.41 241.507Z" fill="#FFB573"/>
<path d="M230.113 240.855H236.888C236.999 240.856 237.107 240.894 237.193 240.964C237.28 241.034 237.341 241.131 237.366 241.241L238.461 246.243C238.488 246.364 238.488 246.49 238.46 246.611C238.432 246.733 238.376 246.846 238.298 246.942C238.219 247.038 238.12 247.115 238.008 247.166C237.896 247.217 237.773 247.242 237.65 247.237C235.468 247.202 233.875 247.069 231.131 247.069C229.441 247.069 224.343 247.251 222.008 247.251C219.674 247.251 219.369 244.919 220.325 244.701C224.606 243.756 227.834 242.453 229.206 241.199C229.457 240.978 229.78 240.856 230.113 240.855Z" fill="#36444F"/>
<path d="M202.3 240.778L208.368 240.876C208.478 240.877 208.585 240.915 208.671 240.985C208.756 241.056 208.816 241.153 208.839 241.262L209.858 246.277C209.884 246.398 209.883 246.524 209.854 246.644C209.825 246.764 209.77 246.877 209.691 246.972C209.613 247.067 209.515 247.143 209.403 247.194C209.291 247.245 209.17 247.269 209.047 247.265C206.851 247.195 203.692 247.013 200.935 246.971C197.721 246.922 194.936 247.055 191.161 246.971C188.882 246.936 188.286 244.596 189.242 244.4C193.606 243.503 197.16 243.454 200.956 241.171C201.36 240.918 201.825 240.782 202.3 240.778Z" fill="#36444F"/>
<path d="M205.715 73.9343C203.956 77.8817 201.998 81.7351 199.848 85.479C198.774 87.3494 197.652 89.2058 196.433 91.0271C195.219 92.8941 193.906 94.6925 192.498 96.4142L191.951 97.0727L191.673 97.4019C191.576 97.514 191.514 97.5981 191.32 97.8012C190.526 98.7051 189.507 99.3775 188.369 99.7487C187.664 99.972 186.922 100.051 186.187 99.9798C185.538 99.9237 184.904 99.758 184.31 99.4895C183.453 99.0961 182.672 98.5531 182.003 97.8853C181.054 96.9274 180.238 95.8433 179.578 94.6629C179 93.6504 178.475 92.6075 178.006 91.5385C176.295 87.4933 175.013 83.2758 174.182 78.9571L178.172 77.7031C179.024 79.5385 179.904 81.4369 180.825 83.2443C181.747 85.0516 182.689 86.859 183.707 88.5192C184.185 89.3291 184.705 90.1124 185.266 90.866C185.705 91.4776 186.217 92.0328 186.79 92.5192C186.997 92.6804 187.157 92.7154 187.074 92.6453C186.958 92.5821 186.831 92.5417 186.7 92.5262C186.484 92.5011 186.265 92.5177 186.055 92.5753C185.64 92.7084 185.577 92.8065 185.626 92.7154L186.395 91.6436C188.645 88.342 190.694 84.9054 192.532 81.3529C194.437 77.7732 196.294 74.0324 198.033 70.4106L205.715 73.9343Z" fill="#FFB573"/>
<path d="M208.029 70.4107C209.525 75.5666 198.975 89.6261 198.975 89.6261L188.328 82.705C190.334 78.2472 192.807 74.0199 195.705 70.0955C200.062 64.4422 206.38 64.7505 208.029 70.4107Z" fill="#1C7ED6"/>
<path opacity="0.2" d="M208.029 70.4107C209.525 75.5666 198.975 89.6261 198.975 89.6261L188.328 82.705C190.334 78.2472 192.807 74.0199 195.705 70.0955C200.062 64.4422 206.38 64.7505 208.029 70.4107Z" fill="#253039"/>
<path opacity="0.2" d="M201.538 76.4631C199.349 77.4088 196.128 82.7678 194.451 86.6908L198.968 89.626C201.491 86.2142 203.76 82.6176 205.757 78.8659C204.33 77.2827 202.695 75.9657 201.538 76.4631Z" fill="#253039"/>
<path d="M178.075 79.7203L179.46 73.3806L173.136 73.3315C173.136 73.3315 171.446 78.0951 174.847 80.3368L178.075 79.7203Z" fill="#FFB573"/>
<path d="M178.719 67.4404L173.648 69.2828L173.115 73.3319L179.44 73.3809L178.719 67.4404Z" fill="#FFB573"/>
<path opacity="0.2" d="M200.977 228.358L201.635 235.083L207.191 235.175L206.539 228.449L200.977 228.358Z" fill="#253039"/>
<path opacity="0.2" d="M232.081 228.491H226.525L228.756 235.202H234.318L232.081 228.491Z" fill="#253039"/>
<path d="M232.815 68.1268C226.823 89.4858 228.035 112.155 227.495 116.743C223.144 116.428 206.761 115.188 197.832 114.516C193.939 82.5086 201.725 66.0673 201.725 66.0673C201.725 66.0673 203.637 65.696 206.228 65.4228C207.038 65.3387 207.918 65.2687 208.832 65.2196C209.338 65.2196 209.851 65.1706 210.37 65.1636C214.587 65.2364 218.797 65.5521 222.978 66.1093C223.768 66.2074 224.571 66.3335 225.354 66.4596C226.137 66.5856 226.781 66.7187 227.432 66.8518C230.48 67.4613 232.815 68.1268 232.815 68.1268Z" fill="#1C7ED6"/>
<path opacity="0.2" d="M232.815 68.1268C226.823 89.4858 228.035 112.155 227.495 116.743C223.144 116.428 206.761 115.188 197.832 114.516C193.939 82.5086 201.725 66.0673 201.725 66.0673C201.725 66.0673 203.637 65.696 206.228 65.4228C207.038 65.3387 207.918 65.2687 208.832 65.2196C209.338 65.2196 209.851 65.1706 210.37 65.1636C214.587 65.2364 218.797 65.5521 222.978 66.1093C223.768 66.2074 224.571 66.3335 225.354 66.4596C226.137 66.5856 226.781 66.7187 227.432 66.8518C230.48 67.4613 232.815 68.1268 232.815 68.1268Z" fill="#253039"/>
<path opacity="0.2" d="M226.483 77.2896C225.95 79.3561 226.559 88.7852 228.693 91.1109C228.984 88.0917 229.386 84.9393 229.885 81.7169L226.483 77.2896Z" fill="#253039"/>
<path d="M222.784 51.6367C221.69 55.6788 220.339 63.1394 222.978 66.0886C220.609 68.1411 217.54 70.4809 212.712 70.2917C207.883 70.1026 208.964 66.7891 210.37 65.1429C214.97 64.3863 215.109 60.9817 214.527 57.7383L222.784 51.6367Z" fill="#FFB573"/>
<path d="M222.535 64.9463C222.535 64.9463 220.54 68.2738 212.518 70.2983C213.848 71.5452 214.492 74.5015 214.492 74.5015C214.492 74.5015 224.959 71.9515 224.641 65.9971C224.002 65.53 223.29 65.1748 222.535 64.9463V64.9463Z" fill="#36444F"/>
<path d="M209.664 73.7383C209.664 73.7383 210.717 71.1743 212.518 70.2987C211.68 69.423 210.44 66.7961 211.174 64.8276C210.553 64.7774 209.927 64.8175 209.317 64.9467C209.317 64.9467 206.145 68.9887 209.664 73.7383Z" fill="#36444F"/>
<path d="M212.171 73.8152C212.081 74.3616 211.763 74.7679 211.479 74.7119C211.195 74.6558 211.021 74.1725 211.118 73.6261C211.215 73.0796 211.534 72.6663 211.811 72.7224C212.088 72.7784 212.282 73.2618 212.171 73.8152Z" fill="#36444F"/>
<path d="M211.7 76.9676C211.652 77.528 211.375 77.9553 211.077 77.9273C210.779 77.8993 210.578 77.4299 210.627 76.8765C210.675 76.3231 210.952 75.8888 211.25 75.9168C211.548 75.9448 211.749 76.4142 211.7 76.9676Z" fill="#36444F"/>
<path opacity="0.2" d="M219.431 54.1514L214.582 57.7591C214.727 58.5139 214.801 59.2809 214.804 60.0498C216.556 59.9237 219.071 58.1864 219.39 56.372C219.531 55.6399 219.545 54.8884 219.431 54.1514V54.1514Z" fill="#253039"/>
<path d="M211.659 36.3723C207.336 36.2742 206.463 46.8381 209.269 48.6805C212.074 50.5229 219.75 36.5474 211.659 36.3723Z" fill="#36444F"/>
<path d="M223.719 45.5207C222.978 51.0478 222.819 54.3263 219.833 56.9673C215.344 60.9393 208.749 57.885 207.849 52.2457C207.038 47.1669 208.389 38.9778 213.931 37.1704C215.15 36.7654 216.452 36.6826 217.712 36.9299C218.972 37.1772 220.148 37.7464 221.129 38.5833C222.11 39.4202 222.863 40.497 223.317 41.7113C223.77 42.9256 223.909 44.237 223.719 45.5207V45.5207Z" fill="#FFB573"/>
<path d="M222.937 50.9358C220.166 52.4139 216.965 37.1144 224.322 37.913C233.563 38.9078 228.499 47.9866 222.937 50.9358Z" fill="#36444F"/>
<path d="M210.599 37.8781C210.599 41.3037 221.593 44.7083 225.361 43.5384C229.13 42.3685 230.079 39.3352 228.056 37.2337C224.634 33.6119 210.599 31.1671 210.599 37.8781Z" fill="#36444F"/>
<path d="M211.042 38.3266C211.296 39.4598 211.844 40.5043 212.629 41.3529C211.645 41.2969 210.668 39.8888 210.356 39.0692C210.045 38.2496 211.042 38.3266 211.042 38.3266Z" fill="#36444F"/>
<path d="M225.749 51.8329C225.342 52.3941 224.83 52.8686 224.242 53.2292C223.653 53.5898 223 53.8295 222.32 53.9345C220.498 54.2007 219.826 52.4914 220.533 50.8802C221.17 49.4301 222.881 47.5457 224.613 48.022C226.345 48.4984 226.747 50.4388 225.749 51.8329Z" fill="#FFB573"/>
<path d="M199.571 233.773L208.985 233.92C208.985 233.92 205.84 196.309 206.692 178.81C206.948 173.486 208.008 166.039 209.393 158.06C211.153 148.001 211.998 143.994 214.243 131.286C215.864 122.221 217.305 116.008 217.305 116.008L197.804 114.537C197.804 114.537 189.561 159.847 189.754 177.031C189.948 194.845 199.571 233.773 199.571 233.773Z" fill="#36444F"/>
<path opacity="0.2" d="M210.467 127.994C206.962 136.82 206.893 157.5 208.507 163.321C208.784 161.598 209.082 159.819 209.394 158.039C211.153 147.98 211.998 143.973 214.243 131.265C214.284 131.013 214.333 130.768 214.374 130.523C213.226 129.458 211.904 128.602 210.467 127.994V127.994Z" fill="#253039"/>
<path d="M208.354 115.307C208.354 115.307 210.072 162.726 211.382 179.146C212.809 197.136 226.137 233.899 226.137 233.899H236.32C236.32 233.899 229.524 200.274 227.439 182.761C225.063 162.866 227.481 116.729 227.481 116.729L208.354 115.307Z" fill="#36444F"/>
<path d="M224.925 234.124H236.916V230.502L223.511 230.264L224.925 234.124Z" fill="#1C7ED6"/>
<path d="M198.386 233.956L209.601 234.131L209.657 230.467L197.118 230.075L198.386 233.956Z" fill="#1C7ED6"/>
<path d="M215.275 46.4454C215.24 46.9007 214.977 47.251 214.686 47.223C214.395 47.1949 214.18 46.8167 214.215 46.3683C214.25 45.92 214.513 45.5697 214.804 45.5907C215.095 45.6118 215.309 46.0321 215.275 46.4454Z" fill="#36444F"/>
<path d="M210.204 46.0671C210.204 46.5225 209.906 46.8657 209.615 46.8447C209.324 46.8237 209.116 46.4384 209.144 45.9901C209.172 45.5417 209.442 45.1845 209.74 45.2055C210.038 45.2265 210.253 45.6118 210.204 46.0671Z" fill="#36444F"/>
<path d="M211.811 46.4106C211.174 47.7543 210.359 49.0035 209.387 50.1234C209.673 50.3627 210.006 50.5367 210.365 50.6334C210.724 50.7301 211.099 50.7473 211.465 50.6839L211.811 46.4106Z" fill="#ED893E"/>
<path d="M213.294 52.0358C213.797 52.0157 214.29 51.8908 214.743 51.669C215.196 51.4472 215.599 51.1333 215.926 50.7469C215.938 50.7345 215.948 50.7198 215.955 50.7035C215.962 50.6873 215.965 50.6699 215.965 50.6523C215.965 50.6347 215.962 50.6173 215.955 50.6011C215.948 50.5848 215.938 50.5701 215.926 50.5577C215.901 50.5341 215.867 50.521 215.833 50.521C215.798 50.521 215.765 50.5341 215.739 50.5577C215.368 50.9794 214.903 51.3063 214.383 51.5121C213.863 51.7178 213.302 51.7964 212.746 51.7416C212.713 51.7396 212.679 51.7509 212.654 51.7731C212.628 51.7953 212.611 51.8267 212.608 51.8607C212.606 51.8782 212.607 51.8959 212.612 51.9128C212.617 51.9297 212.625 51.9454 212.636 51.9591C212.647 51.9728 212.661 51.9842 212.676 51.9925C212.692 52.0009 212.708 52.0061 212.726 52.0078C212.914 52.0303 213.104 52.0396 213.294 52.0358V52.0358Z" fill="#36444F"/>
<path d="M216.958 44.9114C217.003 44.9105 217.046 44.8958 217.083 44.8694C217.112 44.8509 217.137 44.8267 217.157 44.7982C217.176 44.7697 217.19 44.7375 217.197 44.7035C217.204 44.6696 217.205 44.6345 217.198 44.6004C217.192 44.5663 217.178 44.5339 217.159 44.5051C216.939 44.1407 216.635 43.8357 216.273 43.6161C215.911 43.3965 215.502 43.2688 215.081 43.2441C215.011 43.2441 214.944 43.2722 214.895 43.3221C214.845 43.372 214.818 43.4397 214.818 43.5103C214.818 43.5809 214.845 43.6487 214.895 43.6986C214.944 43.7485 215.011 43.7765 215.081 43.7765V43.7765C215.41 43.8038 215.729 43.9102 216.009 44.0868C216.29 44.2635 216.525 44.5054 216.695 44.7923C216.723 44.8359 216.762 44.8704 216.809 44.8915C216.856 44.9127 216.908 44.9196 216.958 44.9114V44.9114Z" fill="#36444F"/>
<path d="M208.167 44.1479C208.211 44.1444 208.253 44.1305 208.291 44.1074C208.328 44.0843 208.359 44.0525 208.382 44.0148C208.539 43.7188 208.763 43.4652 209.037 43.2751C209.311 43.0849 209.625 42.9638 209.955 42.9219C209.989 42.9202 210.023 42.9115 210.053 42.8963C210.084 42.8812 210.112 42.8599 210.135 42.8338C210.157 42.8076 210.174 42.7772 210.185 42.7442C210.196 42.7112 210.2 42.6763 210.197 42.6417C210.196 42.6071 210.188 42.5729 210.174 42.5414C210.16 42.5098 210.14 42.4814 210.115 42.4579C210.09 42.4344 210.06 42.4162 210.028 42.4045C209.995 42.3927 209.961 42.3877 209.927 42.3895C209.511 42.4388 209.113 42.587 208.765 42.822C208.417 43.057 208.129 43.3722 207.925 43.7416C207.908 43.7719 207.896 43.8054 207.892 43.8402C207.887 43.8749 207.89 43.9102 207.899 43.9441C207.908 43.9779 207.923 44.0096 207.944 44.0374C207.965 44.0651 207.992 44.0884 208.022 44.1058C208.066 44.1326 208.116 44.1471 208.167 44.1479V44.1479Z" fill="#36444F"/>
<path d="M228.27 241.843C228.761 241.829 229.249 241.761 229.725 241.64C229.751 241.633 229.775 241.619 229.794 241.6C229.812 241.58 229.825 241.555 229.829 241.528C229.831 241.502 229.827 241.476 229.816 241.453C229.805 241.429 229.788 241.409 229.767 241.395C229.566 241.269 227.772 240.155 227.155 240.47C227.087 240.507 227.03 240.561 226.99 240.627C226.949 240.694 226.928 240.77 226.927 240.848C226.914 240.979 226.932 241.111 226.981 241.233C227.029 241.355 227.105 241.463 227.204 241.549C227.517 241.765 227.892 241.869 228.27 241.843ZM229.344 241.451C228.402 241.64 227.675 241.605 227.37 241.346C227.303 241.288 227.251 241.214 227.22 241.131C227.188 241.047 227.178 240.958 227.19 240.869C227.188 240.837 227.194 240.805 227.209 240.777C227.224 240.749 227.246 240.725 227.273 240.708C227.592 240.54 228.617 241.023 229.344 241.479V241.451Z" fill="#1C7ED6"/>
<path d="M229.698 241.64C229.72 241.646 229.744 241.646 229.767 241.64C229.786 241.627 229.802 241.61 229.813 241.589C229.824 241.568 229.83 241.545 229.829 241.521C229.829 241.451 229.691 239.826 229.046 239.293C228.971 239.226 228.881 239.176 228.784 239.147C228.687 239.117 228.585 239.11 228.485 239.125C228.386 239.123 228.29 239.157 228.212 239.219C228.135 239.282 228.082 239.37 228.063 239.469C227.945 240.099 229.06 241.332 229.635 241.647L229.698 241.64ZM228.575 239.378C228.686 239.377 228.793 239.42 228.873 239.497C229.265 240.001 229.494 240.615 229.531 241.255C228.963 240.814 228.25 239.854 228.319 239.518C228.319 239.483 228.319 239.399 228.513 239.378H228.575V239.378Z" fill="#1C7ED6"/>
<path d="M201.739 241.521C201.763 241.512 201.783 241.497 201.799 241.478C201.815 241.458 201.825 241.434 201.829 241.409C201.832 241.382 201.827 241.355 201.815 241.331C201.802 241.308 201.783 241.288 201.76 241.276C201.51 241.136 199.294 239.959 198.615 240.323C198.551 240.359 198.497 240.41 198.458 240.473C198.419 240.535 198.397 240.607 198.393 240.68V240.68C198.377 240.8 198.39 240.922 198.431 241.036C198.472 241.149 198.54 241.251 198.628 241.332C199.224 241.885 200.824 241.689 201.725 241.521H201.739ZM198.788 240.54C199.203 240.4 200.409 240.883 201.289 241.325C200.056 241.514 199.141 241.444 198.802 241.136C198.744 241.081 198.7 241.013 198.674 240.937C198.647 240.862 198.639 240.781 198.649 240.701C198.649 240.672 198.658 240.643 198.674 240.618C198.69 240.593 198.713 240.573 198.739 240.561L198.788 240.54Z" fill="#1C7ED6"/>
<path d="M201.739 241.521H201.773C201.793 241.509 201.809 241.491 201.819 241.47C201.829 241.449 201.832 241.425 201.829 241.402C201.829 241.339 201.697 239.819 200.998 239.223C200.904 239.138 200.794 239.074 200.675 239.033C200.556 238.992 200.43 238.976 200.305 238.985C199.938 238.985 199.834 239.195 199.806 239.349C199.695 239.98 201.004 241.22 201.67 241.535C201.693 241.536 201.717 241.531 201.739 241.521ZM200.159 239.251H200.298C200.394 239.242 200.492 239.254 200.584 239.285C200.676 239.316 200.76 239.367 200.831 239.433C201.234 239.929 201.476 240.538 201.524 241.178C200.831 240.75 199.958 239.777 200.021 239.398C200.042 239.377 200.049 239.286 200.159 239.251Z" fill="#1C7ED6"/>
<path d="M234.242 71.6294C236.182 75.5664 237.92 79.5033 239.521 83.5383C240.331 85.5559 241.079 87.6084 241.814 89.675C242.174 90.7187 242.506 91.7765 242.853 92.8133L243.102 93.6049L243.372 94.5156C243.566 95.1391 243.677 95.7625 243.822 96.379C244.587 101.096 244.369 105.923 243.185 110.551C242.672 112.748 242.021 114.909 241.239 117.023C240.844 118.074 240.421 119.125 239.971 120.127C239.521 121.129 239.063 122.137 238.502 123.188L234.671 121.507C235.205 119.594 235.745 117.528 236.126 115.517C236.507 113.507 236.86 111.475 237.082 109.472C237.301 107.505 237.38 105.524 237.318 103.545C237.28 101.693 237.025 99.8515 236.556 98.0602C236.424 97.6469 236.32 97.2126 236.161 96.8203C236.078 96.6172 236.029 96.449 235.925 96.2038L235.634 95.5033C235.246 94.5436 234.824 93.5839 234.422 92.6242C233.612 90.6907 232.732 88.7783 231.887 86.8518L226.656 75.3422L234.242 71.6294Z" fill="#FFB573"/>
<path d="M232.815 68.1266C237.886 69.7378 242.873 87.1319 242.873 87.1319L231.138 92.3228C231.138 92.3228 227.342 83.9165 225.153 77.3315C222.777 70.1512 226.663 66.1792 232.815 68.1266Z" fill="#1C7ED6"/>
<path opacity="0.2" d="M232.815 68.1266C237.886 69.7378 242.873 87.1319 242.873 87.1319L231.138 92.3228C231.138 92.3228 227.342 83.9165 225.153 77.3315C222.777 70.1512 226.663 66.1792 232.815 68.1266Z" fill="#253039"/>
<path d="M234.983 120.561L232.247 125.556L238.696 127.251C238.696 127.251 240.643 122.41 238.343 120.869L234.983 120.561Z" fill="#FFB573"/>
<path d="M231.769 131.223L237.692 131.721L238.696 127.251L232.247 125.556L231.769 131.223Z" fill="#FFB573"/>
<defs>
<linearGradient id="paint0_linear_201_1275" x1="113.686" y1="149.021" x2="91.8719" y2="128.042" gradientUnits="userSpaceOnUse">
<stop stop-color="#1C7ED6"/>
<stop offset="1" stop-color="#339AF0"/>
</linearGradient>
</defs>
</svg>
