<svg width="270" height="246" viewBox="0 0 270 246" fill="none" xmlns="http://www.w3.org/2000/svg">
<g clip-path="url(#clip0_201_1201)">
<path d="M135 245.5C209.558 245.5 270 241.982 270 237.642C270 233.303 209.558 229.785 135 229.785C60.4416 229.785 0 233.303 0 237.642C0 241.982 60.4416 245.5 135 245.5Z" fill="#A5D8FF"/>
<path d="M179.241 231.93L173.657 231.847L172.369 218.922L177.96 219.006L179.241 231.93Z" fill="#FFB573"/>
<path d="M207.99 231.951H202.406L198.054 219.047H203.638L207.99 231.951Z" fill="#FFB573"/>
<path d="M201.661 231.306H208.47C208.582 231.306 208.69 231.344 208.777 231.413C208.865 231.482 208.926 231.579 208.951 231.687L210.051 236.643C210.079 236.764 210.079 236.889 210.05 237.009C210.022 237.129 209.966 237.241 209.887 237.336C209.809 237.432 209.709 237.508 209.596 237.558C209.483 237.609 209.36 237.633 209.236 237.629C207.043 237.594 205.442 237.462 202.684 237.462C200.986 237.462 195.861 237.643 193.515 237.643C191.168 237.643 190.862 235.332 191.823 235.116C196.126 234.179 199.37 232.888 200.749 231.646C201.002 231.427 201.326 231.306 201.661 231.306Z" fill="#36444F"/>
<path d="M173.706 231.229L179.805 231.326C179.916 231.327 180.023 231.365 180.109 231.434C180.195 231.504 180.255 231.6 180.278 231.708L181.302 236.678C181.329 236.798 181.327 236.922 181.298 237.041C181.269 237.16 181.214 237.271 181.135 237.366C181.056 237.46 180.957 237.536 180.845 237.586C180.733 237.636 180.61 237.66 180.487 237.656C178.28 237.587 175.105 237.407 172.334 237.365C169.103 237.316 166.304 237.448 162.51 237.365C160.219 237.33 159.62 235.012 160.581 234.818C164.967 233.929 168.539 233.881 172.355 231.618C172.761 231.367 173.228 231.233 173.706 231.229Z" fill="#36444F"/>
<path d="M177.138 65.9128C175.371 69.8241 173.402 73.6421 171.241 77.3517C170.162 79.205 169.034 81.0444 167.808 82.849C166.589 84.6989 165.268 86.4808 163.853 88.1867L163.303 88.8392L163.025 89.1654C162.927 89.2765 162.865 89.3598 162.67 89.5611C161.872 90.4567 160.847 91.1229 159.704 91.4907C158.995 91.712 158.249 91.7899 157.51 91.7198C156.859 91.6641 156.221 91.4999 155.624 91.2339C154.763 90.8441 153.978 90.3061 153.305 89.6444C152.351 88.6953 151.531 87.6211 150.868 86.4515C150.286 85.4483 149.759 84.415 149.287 83.3557C147.568 79.3475 146.279 75.1687 145.444 70.8895L149.455 69.6471C150.311 71.4656 151.195 73.3467 152.121 75.1375C153.047 76.9283 153.994 78.7191 155.018 80.3641C155.498 81.1665 156.021 81.9427 156.584 82.6894C157.026 83.2954 157.541 83.8455 158.116 84.3275C158.325 84.4871 158.485 84.5218 158.402 84.4524C158.285 84.3898 158.157 84.3498 158.026 84.3344C157.809 84.3095 157.589 84.326 157.378 84.383C156.96 84.5149 156.898 84.6121 156.946 84.5218L157.719 83.4599C159.981 80.1885 162.041 76.7834 163.888 73.2634C165.803 69.7165 167.669 66.0099 169.417 62.4214L177.138 65.9128Z" fill="#FFB573"/>
<path d="M179.464 62.4217C180.968 67.5303 170.364 81.4611 170.364 81.4611L159.662 74.6033C161.679 70.1864 164.165 65.9978 167.077 62.1093C171.457 56.5078 177.807 56.8133 179.464 62.4217Z" fill="#1C7ED6"/>
<path opacity="0.2" d="M179.464 62.4217C180.968 67.5303 170.364 81.4611 170.364 81.4611L159.662 74.6033C161.679 70.1864 164.165 65.9978 167.077 62.1093C171.457 56.5078 177.807 56.8133 179.464 62.4217Z" fill="#253039"/>
<path opacity="0.2" d="M172.94 68.4187C170.74 69.3557 167.502 74.6656 165.817 78.5527L170.357 81.461C172.893 78.0805 175.174 74.5168 177.18 70.7994C175.746 69.2308 174.103 67.9258 172.94 68.4187Z" fill="#253039"/>
<path d="M149.357 71.6462L150.75 65.3645L144.393 65.3159C144.393 65.3159 142.694 70.0359 146.112 72.257L149.357 71.6462Z" fill="#FFB573"/>
<path d="M150.005 59.4785L144.908 61.304L144.372 65.316L150.729 65.3646L150.005 59.4785Z" fill="#FFB573"/>
<path opacity="0.2" d="M172.376 218.922L173.037 225.586L178.621 225.676L177.967 219.013L172.376 218.922Z" fill="#253039"/>
<path opacity="0.2" d="M203.638 219.054H198.054L200.296 225.704H205.887L203.638 219.054Z" fill="#253039"/>
<path d="M204.376 60.1587C198.354 81.3222 199.572 103.784 199.029 108.33C194.656 108.018 178.19 106.789 169.215 106.123C165.302 74.4088 173.128 58.1181 173.128 58.1181C173.128 58.1181 175.049 57.7502 177.654 57.4795C178.468 57.3962 179.352 57.3268 180.271 57.2782C180.78 57.2782 181.295 57.2296 181.817 57.2227C186.056 57.2948 190.287 57.6076 194.489 58.1597C195.283 58.2569 196.091 58.3818 196.878 58.5068C197.664 58.6317 198.312 58.7636 198.966 58.8955C202.03 59.4993 204.376 60.1587 204.376 60.1587Z" fill="#1C7ED6"/>
<path opacity="0.2" d="M204.376 60.1587C198.354 81.3222 199.572 103.784 199.029 108.33C194.656 108.018 178.19 106.789 169.215 106.123C165.302 74.4088 173.128 58.1181 173.128 58.1181C173.128 58.1181 175.049 57.7502 177.654 57.4795C178.468 57.3962 179.352 57.3268 180.271 57.2782C180.78 57.2782 181.295 57.2296 181.817 57.2227C186.056 57.2948 190.287 57.6076 194.489 58.1597C195.283 58.2569 196.091 58.3818 196.878 58.5068C197.664 58.6317 198.312 58.7636 198.966 58.8955C202.03 59.4993 204.376 60.1587 204.376 60.1587Z" fill="#253039"/>
<path opacity="0.2" d="M198.013 69.2378C197.476 71.2854 198.089 80.6281 200.234 82.9326C200.526 79.941 200.93 76.8175 201.431 73.6246L198.013 69.2378Z" fill="#253039"/>
<path d="M194.294 43.8193C193.194 47.8244 191.837 55.2166 194.489 58.1388C192.108 60.1726 189.024 62.4909 184.171 62.3035C179.318 62.1161 180.404 58.8329 181.817 57.2018C186.44 56.4521 186.58 53.0788 185.995 49.865L194.294 43.8193Z" fill="#FFB573"/>
<path d="M194.044 57.0073C194.044 57.0073 192.038 60.3043 183.976 62.3103C185.312 63.5458 185.96 66.475 185.96 66.475C185.96 66.475 196.481 63.9484 196.16 58.0485C195.518 57.5857 194.803 57.2338 194.044 57.0073V57.0073Z" fill="#36444F"/>
<path d="M181.107 65.7185C181.107 65.7185 182.165 63.178 183.976 62.3104C183.133 61.4428 181.887 58.8398 182.625 56.8894C182 56.8397 181.372 56.8794 180.759 57.0074C180.759 57.0074 177.57 61.0124 181.107 65.7185Z" fill="#36444F"/>
<path d="M183.628 65.7949C183.537 66.3363 183.217 66.7389 182.931 66.6833C182.646 66.6278 182.472 66.1489 182.569 65.6075C182.667 65.0661 182.987 64.6565 183.265 64.7121C183.544 64.7676 183.739 65.2465 183.628 65.7949Z" fill="#36444F"/>
<path d="M183.154 68.9184C183.105 69.4737 182.827 69.8971 182.527 69.8693C182.228 69.8416 182.026 69.3765 182.075 68.8282C182.124 68.2798 182.402 67.8495 182.701 67.8772C183.001 67.905 183.203 68.3701 183.154 68.9184Z" fill="#36444F"/>
<path opacity="0.2" d="M190.924 46.311L186.051 49.8857C186.196 50.6336 186.271 51.3936 186.273 52.1554C188.035 52.0305 190.562 50.3091 190.883 48.5114C191.024 47.7859 191.039 47.0413 190.924 46.311V46.311Z" fill="#253039"/>
<path d="M183.112 28.6945C178.768 28.5973 177.89 39.0645 180.71 40.89C183.53 42.7155 191.245 28.868 183.112 28.6945Z" fill="#36444F"/>
<path d="M195.234 37.7601C194.489 43.2366 194.329 46.485 191.328 49.1018C186.816 53.0374 180.188 50.0111 179.283 44.4235C178.468 39.3912 179.826 31.2771 185.396 29.4863C186.622 29.085 187.93 29.0029 189.196 29.248C190.463 29.493 191.645 30.057 192.631 30.8862C193.617 31.7155 194.374 32.7824 194.83 33.9856C195.285 35.1887 195.425 36.4881 195.234 37.7601V37.7601Z" fill="#FFB573"/>
<path d="M194.448 43.1254C191.662 44.5899 188.446 29.4306 195.84 30.2219C205.128 31.2075 200.039 40.2032 194.448 43.1254Z" fill="#36444F"/>
<path d="M182.047 30.1871C182.047 33.5813 193.097 36.9547 196.885 35.7955C200.672 34.6363 201.626 31.6309 199.593 29.5485C196.153 25.96 182.047 23.5375 182.047 30.1871Z" fill="#36444F"/>
<path d="M182.493 30.6313C182.748 31.7541 183.298 32.789 184.087 33.6299C183.098 33.5743 182.117 32.1792 181.803 31.3671C181.49 30.555 182.493 30.6313 182.493 30.6313Z" fill="#36444F"/>
<path d="M197.274 44.0136C196.866 44.5696 196.351 45.0398 195.759 45.3971C195.168 45.7544 194.512 45.9919 193.828 46.0959C191.997 46.3597 191.321 44.6661 192.032 43.0696C192.672 41.6328 194.392 39.7657 196.133 40.2376C197.873 40.7096 198.277 42.6323 197.274 44.0136Z" fill="#FFB573"/>
<path d="M170.962 224.288L180.425 224.434C180.425 224.434 177.264 187.167 178.12 169.828C178.378 164.553 179.443 157.175 180.835 149.269C182.604 139.301 183.453 135.331 185.709 122.74C187.339 113.758 188.787 107.601 188.787 107.601L169.187 106.144C169.187 106.144 160.901 151.039 161.096 168.065C161.291 185.716 170.962 224.288 170.962 224.288Z" fill="#36444F"/>
<path opacity="0.2" d="M181.915 119.478C178.392 128.223 178.322 148.713 179.944 154.482C180.223 152.774 180.522 151.011 180.835 149.248C182.604 139.281 183.453 135.31 185.709 122.719C185.751 122.469 185.8 122.226 185.842 121.983C184.687 120.929 183.359 120.081 181.915 119.478V119.478Z" fill="#253039"/>
<path d="M179.791 106.907C179.791 106.907 181.518 153.892 182.834 170.161C184.268 187.986 197.664 224.413 197.664 224.413H207.9C207.9 224.413 201.069 191.096 198.973 173.743C196.585 154.03 199.015 108.316 199.015 108.316L179.791 106.907Z" fill="#36444F"/>
<path d="M196.446 224.635H208.498V221.047L195.026 220.811L196.446 224.635Z" fill="#1C7ED6"/>
<path d="M169.772 224.468L181.044 224.642L181.1 221.012L168.498 220.623L169.772 224.468Z" fill="#1C7ED6"/>
<path d="M186.747 38.6758C186.712 39.127 186.447 39.4741 186.155 39.4463C185.863 39.4185 185.647 39.0437 185.682 38.5995C185.716 38.1552 185.981 37.8082 186.273 37.829C186.566 37.8498 186.782 38.2663 186.747 38.6758Z" fill="#36444F"/>
<path d="M181.65 38.3014C181.65 38.7526 181.351 39.0927 181.058 39.0719C180.766 39.051 180.557 38.6693 180.585 38.2251C180.613 37.7808 180.884 37.4268 181.184 37.4477C181.483 37.4685 181.699 37.8502 181.65 38.3014Z" fill="#36444F"/>
<path d="M183.265 38.6411C182.625 39.9725 181.805 41.2102 180.828 42.3199C181.116 42.557 181.451 42.7293 181.812 42.8252C182.173 42.921 182.55 42.9381 182.917 42.8752L183.265 38.6411Z" fill="#ED893E"/>
<path d="M184.755 44.2148C185.261 44.1949 185.757 44.0711 186.212 43.8514C186.667 43.6316 187.072 43.3206 187.401 42.9377C187.414 42.9254 187.424 42.9108 187.43 42.8947C187.437 42.8787 187.441 42.8614 187.441 42.844C187.441 42.8265 187.437 42.8093 187.43 42.7932C187.424 42.7771 187.414 42.7625 187.401 42.7503C187.376 42.7269 187.342 42.7139 187.307 42.7139C187.273 42.7139 187.239 42.7269 187.213 42.7503C186.84 43.168 186.373 43.492 185.85 43.6959C185.328 43.8997 184.764 43.9776 184.205 43.9233C184.171 43.9213 184.138 43.9325 184.112 43.9545C184.086 43.9765 184.07 44.0076 184.066 44.0413C184.064 44.0587 184.066 44.0762 184.071 44.0929C184.076 44.1097 184.084 44.1253 184.095 44.1388C184.106 44.1524 184.119 44.1636 184.135 44.1719C184.15 44.1802 184.167 44.1853 184.185 44.1871C184.374 44.2093 184.565 44.2186 184.755 44.2148V44.2148Z" fill="#36444F"/>
<path d="M188.439 37.1559C188.484 37.155 188.527 37.1404 188.564 37.1142C188.593 37.0959 188.619 37.072 188.638 37.0437C188.658 37.0155 188.672 36.9836 188.679 36.9499C188.686 36.9163 188.686 36.8815 188.68 36.8477C188.673 36.814 188.66 36.7818 188.641 36.7533C188.42 36.3923 188.114 36.09 187.75 35.8724C187.387 35.6548 186.975 35.5284 186.552 35.5039C186.482 35.5039 186.414 35.5317 186.365 35.5812C186.315 35.6306 186.287 35.6977 186.287 35.7677C186.287 35.8376 186.315 35.9047 186.365 35.9542C186.414 36.0036 186.482 36.0314 186.552 36.0314V36.0314C186.883 36.0584 187.203 36.1638 187.485 36.3389C187.767 36.5139 188.004 36.7536 188.174 37.0379C188.202 37.0811 188.242 37.1153 188.289 37.1362C188.336 37.1572 188.388 37.164 188.439 37.1559V37.1559Z" fill="#36444F"/>
<path d="M179.603 36.3993C179.647 36.3959 179.689 36.3822 179.727 36.3593C179.764 36.3363 179.796 36.3049 179.819 36.2675C179.976 35.9742 180.202 35.7229 180.477 35.5345C180.752 35.3461 181.068 35.2262 181.399 35.1846C181.434 35.1829 181.468 35.1743 181.499 35.1593C181.53 35.1442 181.558 35.1232 181.58 35.0973C181.603 35.0714 181.62 35.0412 181.631 35.0085C181.642 34.9758 181.646 34.9413 181.643 34.907C181.642 34.8727 181.635 34.8388 181.62 34.8076C181.606 34.7763 181.586 34.7481 181.56 34.7248C181.535 34.7015 181.505 34.6835 181.473 34.6719C181.44 34.6603 181.406 34.6553 181.372 34.6571C180.954 34.7059 180.554 34.8527 180.204 35.0856C179.854 35.3185 179.565 35.6307 179.359 35.9968C179.342 36.0268 179.331 36.06 179.326 36.0944C179.322 36.1289 179.324 36.1639 179.333 36.1974C179.342 36.2309 179.358 36.2624 179.379 36.2899C179.4 36.3174 179.427 36.3404 179.457 36.3577C179.501 36.3842 179.552 36.3985 179.603 36.3993V36.3993Z" fill="#36444F"/>
<path d="M199.809 232.284C200.302 232.271 200.793 232.203 201.271 232.083C201.297 232.076 201.321 232.063 201.34 232.043C201.358 232.023 201.371 231.998 201.375 231.972C201.378 231.946 201.373 231.921 201.362 231.897C201.351 231.874 201.334 231.854 201.313 231.84C201.111 231.715 199.308 230.611 198.688 230.924C198.619 230.96 198.562 231.014 198.521 231.08C198.481 231.146 198.459 231.221 198.458 231.298C198.445 231.428 198.464 231.559 198.512 231.679C198.561 231.8 198.638 231.908 198.737 231.993C199.051 232.207 199.429 232.309 199.809 232.284ZM200.888 231.895C199.941 232.083 199.21 232.048 198.904 231.791C198.836 231.734 198.784 231.661 198.753 231.578C198.721 231.496 198.711 231.407 198.723 231.319C198.721 231.288 198.727 231.256 198.742 231.228C198.757 231.2 198.779 231.176 198.806 231.16C199.127 230.993 200.157 231.472 200.888 231.923V231.895Z" fill="#1C7ED6"/>
<path d="M201.243 232.083C201.266 232.089 201.29 232.089 201.313 232.083C201.332 232.07 201.348 232.053 201.359 232.032C201.37 232.011 201.376 231.988 201.375 231.965C201.375 231.896 201.236 230.285 200.589 229.758C200.513 229.691 200.423 229.641 200.325 229.612C200.228 229.583 200.125 229.576 200.025 229.591C199.925 229.589 199.828 229.622 199.75 229.684C199.673 229.746 199.62 229.834 199.6 229.931C199.482 230.556 200.603 231.778 201.181 232.09L201.243 232.083ZM200.115 229.841C200.227 229.84 200.334 229.883 200.415 229.959C200.808 230.459 201.039 231.067 201.076 231.701C200.505 231.264 199.788 230.313 199.858 229.98C199.858 229.945 199.858 229.862 200.053 229.841H200.115V229.841Z" fill="#1C7ED6"/>
<path d="M173.142 231.965C173.165 231.956 173.186 231.941 173.202 231.922C173.218 231.902 173.229 231.879 173.232 231.854C173.235 231.827 173.23 231.801 173.218 231.777C173.205 231.754 173.186 231.734 173.163 231.722C172.912 231.583 170.684 230.417 170.002 230.778C169.937 230.813 169.883 230.864 169.844 230.926C169.805 230.988 169.783 231.059 169.779 231.132V231.132C169.763 231.251 169.776 231.371 169.817 231.484C169.858 231.596 169.926 231.697 170.015 231.777C170.614 232.326 172.223 232.131 173.128 231.965H173.142ZM170.176 230.993C170.593 230.854 171.805 231.333 172.689 231.771C171.45 231.958 170.531 231.889 170.19 231.583C170.132 231.529 170.087 231.461 170.061 231.386C170.034 231.312 170.026 231.232 170.036 231.153C170.036 231.123 170.045 231.095 170.061 231.07C170.077 231.045 170.1 231.026 170.127 231.014L170.176 230.993Z" fill="#1C7ED6"/>
<path d="M173.142 231.965H173.177C173.196 231.953 173.212 231.935 173.222 231.914C173.232 231.893 173.236 231.87 173.232 231.847C173.232 231.785 173.1 230.278 172.397 229.688C172.302 229.604 172.192 229.54 172.073 229.5C171.953 229.459 171.826 229.443 171.7 229.452C171.331 229.452 171.227 229.661 171.199 229.813C171.088 230.438 172.404 231.666 173.072 231.979C173.096 231.979 173.12 231.975 173.142 231.965ZM171.554 229.716H171.693C171.791 229.707 171.888 229.718 171.981 229.75C172.073 229.781 172.158 229.831 172.23 229.897C172.635 230.387 172.878 230.991 172.926 231.625C172.23 231.201 171.352 230.237 171.415 229.862C171.436 229.841 171.443 229.751 171.554 229.716Z" fill="#1C7ED6"/>
<path d="M205.811 63.6294C207.76 67.5303 209.508 71.4312 211.116 75.4293C211.931 77.4283 212.683 79.462 213.421 81.5097C213.783 82.5439 214.117 83.592 214.465 84.6193L214.716 85.4036L214.988 86.306C215.183 86.9237 215.294 87.5415 215.44 88.1523C216.208 92.8264 215.99 97.6088 214.8 102.194C214.283 104.371 213.63 106.513 212.843 108.608C212.446 109.649 212.021 110.69 211.569 111.683C211.116 112.675 210.657 113.675 210.093 114.716L206.242 113.05C206.779 111.155 207.322 109.107 207.705 107.115C208.088 105.123 208.443 103.11 208.665 101.125C208.885 99.176 208.964 97.2136 208.902 95.2531C208.865 93.4175 208.608 91.593 208.136 89.8182C208.004 89.4086 207.9 88.9783 207.739 88.5896C207.656 88.3883 207.607 88.2217 207.503 87.9788L207.21 87.2847C206.82 86.3337 206.396 85.3828 205.992 84.4319C205.177 82.5161 204.293 80.6212 203.443 78.7124L198.187 67.3082L205.811 63.6294Z" fill="#FFB573"/>
<path d="M204.376 60.1587C209.473 61.7552 214.486 78.9899 214.486 78.9899L202.691 84.1333C202.691 84.1333 198.876 75.804 196.676 69.2793C194.287 62.1647 198.194 58.2291 204.376 60.1587Z" fill="#1C7ED6"/>
<path opacity="0.2" d="M204.376 60.1587C209.473 61.7552 214.486 78.9899 214.486 78.9899L202.691 84.1333C202.691 84.1333 198.876 75.804 196.676 69.2793C194.287 62.1647 198.194 58.2291 204.376 60.1587Z" fill="#253039"/>
<path d="M206.556 112.113L203.805 117.062L210.288 118.742C210.288 118.742 212.244 113.945 209.933 112.418L206.556 112.113Z" fill="#FFB573"/>
<path d="M203.325 122.677L209.278 123.17L210.288 118.742L203.805 117.062L203.325 122.677Z" fill="#FFB573"/>
<path opacity="0.19" d="M167.551 149.512H20.2336L30.622 2.65869H177.939L167.551 149.512Z" fill="#1C7ED6"/>
<path opacity="0.2" d="M53.4248 149.512H32.2373L85.0216 2.65869H106.209L53.4248 149.512Z" fill="white"/>
<path opacity="0.2" d="M104.886 149.512H58.1525L110.937 2.65869H157.671L104.886 149.512Z" fill="white"/>
<path d="M31.0119 27.7369L26.695 27.4315L28.6028 0.5H55.6251V4.81737H32.6342L31.0119 27.7369Z" fill="#A5D8FF"/>
<path d="M45.2367 151.67H17.9081L19.8367 124.44L24.1536 124.746L22.5522 147.353H45.2367V151.67Z" fill="#A5D8FF"/>
<path d="M178.329 27.7369L174.019 27.4315L175.613 4.81737H152.929V0.5H180.258L178.329 27.7369Z" fill="#A5D8FF"/>
<path d="M169.563 151.67H142.541V147.353H165.531L167.154 124.44L171.471 124.746L169.563 151.67Z" fill="#A5D8FF"/>
<g opacity="0.3">
<path opacity="0.8" d="M96.1829 127.855C96.0547 127.853 95.9287 127.822 95.8138 127.765C95.7721 127.765 94.7485 127.182 93.0288 126.127C92.3325 125.69 91.4552 125.155 90.5013 124.551C87.4725 122.587 84.5551 120.519 81.8188 118.402C81.1225 117.888 80.4959 117.36 79.8205 116.819C77.3 114.737 74.9466 112.696 72.8996 110.669C72.3704 110.142 71.8482 109.614 71.326 109.073C69.4247 107.121 67.6393 105.061 65.9786 102.902C65.5748 102.382 65.1849 101.847 64.8019 101.306C63.3858 99.3381 62.1219 97.266 61.0212 95.1073C60.7566 94.5867 60.492 94.0384 60.2483 93.49C59.3341 91.4825 58.6204 89.39 58.1177 87.243C57.9924 86.7502 57.881 86.2157 57.7835 85.6188C57.7069 85.2301 57.6443 84.8206 57.5955 84.418C57.3797 82.8285 57.1986 81.2112 57.0246 79.4621C56.9689 78.9415 56.9201 78.4139 56.8714 77.8934C56.6904 75.811 56.5372 73.7773 56.4258 71.7505V71.5839C56.4258 71.1258 56.3701 70.6677 56.3492 70.1957C56.2517 68.1967 56.1821 66.1351 56.1403 64.0667V62.4911C56.1403 60.3046 56.1403 58.2431 56.1403 56.3621C56.1403 55.8346 56.1403 55.307 56.1751 54.7864C56.2239 52.5236 56.3005 50.4621 56.391 48.6575V48.5395C56.391 48.0397 56.4327 47.5538 56.4606 47.0749C56.5859 44.8398 56.7321 42.7228 56.8853 40.9459C56.9341 40.342 56.9758 39.8284 57.0246 39.3703C57.1847 37.6211 57.3031 36.6424 57.3031 36.6424C57.3174 36.4631 57.3954 36.2947 57.523 36.1675C57.6506 36.0403 57.8195 35.9626 57.9994 35.9483C58.1247 35.9483 70.9709 34.9557 84.6526 32.5541C87.4377 32.0682 90.1253 31.5407 92.6737 30.9923C96.4266 30.1733 99.8592 29.2848 102.888 28.3478C103.04 28.2994 103.203 28.2994 103.354 28.3478C106.244 29.2918 109.551 30.1802 113.186 30.9923C115.658 31.5476 118.276 32.0682 120.984 32.5541C134.325 34.9557 147.032 35.9414 147.157 35.9483C147.351 35.9642 147.531 36.0538 147.661 36.1984C147.79 36.3431 147.859 36.5318 147.853 36.7257C147.853 36.7257 147.853 37.6975 147.749 39.4536C147.749 39.9186 147.7 40.4461 147.665 41.0292C147.561 42.813 147.408 44.9301 147.22 47.1582C147.178 47.6024 147.136 48.0466 147.094 48.5117V48.7407C146.934 50.5524 146.711 52.6139 146.447 54.8628C146.384 55.3973 146.321 55.9178 146.252 56.4454C146.015 58.3333 145.73 60.3949 145.395 62.5674L145.159 64.1361C144.824 66.2184 144.462 68.3008 144.086 70.272C144.003 70.7163 143.912 71.1674 143.822 71.6186L143.773 71.8546C143.376 73.8675 142.937 75.936 142.464 77.9836L142.088 79.5662C141.663 81.3153 141.252 82.9326 140.821 84.5152C140.702 84.9247 140.584 85.3273 140.459 85.7299C140.271 86.3199 140.09 86.8474 139.895 87.3472C139.078 89.5136 138.072 91.604 136.887 93.5941C136.574 94.1286 136.239 94.67 135.891 95.1975C134.482 97.3588 132.93 99.4248 131.247 101.382C130.788 101.917 130.328 102.451 129.855 102.972C127.895 105.129 125.826 107.186 123.658 109.135C123.059 109.672 122.46 110.2 121.861 110.718C119.501 112.745 116.89 114.806 114.084 116.861C113.332 117.402 112.594 117.93 111.863 118.443C108.827 120.56 105.596 122.608 102.324 124.586C101.28 125.19 100.354 125.724 99.5389 126.162C97.6729 127.21 96.5728 127.772 96.531 127.793C96.4214 127.84 96.3022 127.862 96.1829 127.855V127.855ZM58.7444 37.4337C58.6956 37.8918 58.626 38.5859 58.5425 39.516C58.4937 39.9741 58.4519 40.4808 58.4102 41.0361C58.257 42.8408 58.1108 44.944 57.9854 47.1721C57.9854 47.6441 57.9367 48.123 57.9088 48.6227V48.7407C57.8114 50.5315 57.7417 52.5792 57.693 54.8281C57.693 55.3417 57.693 55.8623 57.6582 56.3898C57.6582 58.2639 57.6582 60.3116 57.6582 62.4772V64.0528C57.7 66.1004 57.7696 68.1481 57.8671 70.1263C57.8671 70.5844 57.9088 71.0356 57.9367 71.5145V71.7227C58.0481 73.7287 58.1943 75.7763 58.3753 77.8031C58.4241 78.3237 58.4728 78.8443 58.5285 79.3649C58.6956 81.0932 58.8836 82.7035 59.0925 84.2722C59.1412 84.654 59.1969 85.0358 59.2666 85.4106C59.364 85.9797 59.4685 86.4726 59.5869 86.9446C60.0698 88.996 60.753 90.9953 61.6269 92.9139C61.8637 93.4345 62.1074 93.9551 62.365 94.4548C63.4324 96.5475 64.6566 98.5569 66.0274 100.466C66.4034 100.986 66.7793 101.507 67.1762 102.014C68.803 104.126 70.5489 106.144 72.4052 108.059C72.9205 108.587 73.4357 109.107 73.9579 109.621C75.991 111.613 78.2817 113.647 80.7674 115.674C81.4637 116.208 82.0903 116.729 82.7448 117.242C85.4394 119.325 88.315 121.372 91.309 123.309C92.2489 123.906 93.0914 124.433 93.8086 124.864C94.9156 125.558 95.7373 126.016 96.1759 126.252C96.6424 126.009 97.5684 125.558 98.766 124.864C99.5528 124.427 100.465 123.899 101.495 123.295C104.754 121.359 107.929 119.318 110.93 117.222C111.626 116.715 112.385 116.194 113.13 115.653C115.915 113.626 118.484 111.592 120.789 109.593C121.381 109.08 121.973 108.559 122.558 108.025C124.692 106.111 126.727 104.091 128.657 101.972C129.123 101.458 129.576 100.945 130.049 100.424C131.691 98.5189 133.203 96.5061 134.575 94.3993C134.916 93.8857 135.272 93.3651 135.536 92.8514C136.693 90.9425 137.678 88.9357 138.481 86.8543C138.669 86.3754 138.843 85.8756 139.017 85.3134C139.143 84.9316 139.254 84.5429 139.359 84.1612C139.79 82.5925 140.201 80.9891 140.619 79.2538C140.751 78.7332 140.87 78.2127 140.995 77.6921C141.461 75.6583 141.9 73.6107 142.29 71.6117L142.339 71.3687C142.429 70.9245 142.513 70.4803 142.596 70.036C142.972 68.0648 143.334 66.0171 143.662 63.9487L143.905 62.387C144.233 60.2283 144.518 58.1806 144.755 56.2996C144.824 55.779 144.88 55.2654 144.943 54.7517C145.207 52.5028 145.43 50.4552 145.59 48.6505V48.4215C145.632 47.9633 145.674 47.5122 145.709 47.0749C145.897 44.8676 146.05 42.7645 146.147 40.9945C146.182 40.4114 146.21 39.8908 146.238 39.4258C146.273 38.579 146.3 37.9126 146.314 37.4615C143.418 37.2116 132.305 36.1912 120.719 34.1089C117.99 33.6161 115.351 33.0886 112.859 32.5333C109.273 31.7281 106 30.8535 103.111 29.9234C100.096 30.8535 96.6981 31.7281 92.9939 32.5333C90.4317 33.0886 87.7162 33.6161 84.9172 34.1089C72.8926 36.1843 61.5086 37.2046 58.7444 37.4337Z" fill="white"/>
<path opacity="0.8" d="M106.938 67.9936C110.698 64.3753 111.003 58.6093 107.619 55.1148C104.235 51.6204 98.4439 51.7208 94.6841 55.3391C90.9242 58.9574 90.6194 64.7234 94.0033 68.2178C97.3871 71.7123 103.178 71.6118 106.938 67.9936Z" fill="white"/>
<path opacity="0.8" d="M102.818 64.8442H100.583H98.3552L92.047 94.1773H104.977L102.818 64.8442Z" fill="white"/>
<g opacity="0.2">
<path opacity="0.2" d="M120.845 33.3247H84.7849C87.4586 32.8527 90.1671 32.3321 92.8338 31.749H113.026C115.609 32.3321 118.241 32.8527 120.845 33.3247Z" fill="#1C7ED6"/>
<path opacity="0.2" d="M146.906 41.0014H57.6442C57.686 40.4184 57.7278 39.8978 57.7765 39.4258H146.99C146.969 39.8978 146.941 40.4184 146.906 41.0014Z" fill="#1C7ED6"/>
<path opacity="0.2" d="M146.461 47.1025C146.419 47.6162 146.37 48.1437 146.321 48.6851H57.1429C57.1429 48.1437 57.1917 47.6162 57.2195 47.1025H146.461Z" fill="#1C7ED6"/>
<path opacity="0.2" d="M145.674 54.7866C145.611 55.3072 145.548 55.8347 145.479 56.3623H56.8923C56.8923 55.8347 56.8923 55.3072 56.9271 54.7866H145.674Z" fill="#1C7ED6"/>
<path opacity="0.2" d="M141.705 77.8311L141.329 79.3997H57.7765C57.7208 78.8792 57.6721 78.3516 57.6234 77.8311H141.705Z" fill="#1C7ED6"/>
<path opacity="0.2" d="M139.714 85.5078C139.547 86.0353 139.366 86.5629 139.164 87.0834H58.8627C58.7304 86.5629 58.626 86.0353 58.5355 85.5078H139.714Z" fill="#1C7ED6"/>
<path opacity="0.2" d="M130.648 100.869C130.196 101.396 129.743 101.924 129.256 102.437H66.5914C66.1875 101.924 65.8046 101.396 65.4286 100.869H130.648Z" fill="#1C7ED6"/>
<path opacity="0.2" d="M123.115 108.545C122.523 109.08 121.931 109.607 121.332 110.121H73.4357C72.9135 109.607 72.3913 109.08 71.876 108.545H123.115Z" fill="#1C7ED6"/>
<path opacity="0.2" d="M113.604 116.222C112.852 116.764 112.12 117.291 111.389 117.798H82.2922C81.6377 117.291 80.9763 116.764 80.3009 116.222H113.604Z" fill="#1C7ED6"/>
<path opacity="0.2" d="M101.906 123.906C100.869 124.51 99.9497 125.037 99.1629 125.474H93.4326C92.7363 125.037 91.859 124.51 90.9121 123.906H101.906Z" fill="#1C7ED6"/>
</g>
</g>
</g>
<defs>
<clipPath id="clip0_201_1201">
<rect width="270" height="245" fill="white" transform="translate(0 0.5)"/>
</clipPath>
</defs>
</svg>
