<svg width="326" height="326" viewBox="0 0 326 326" fill="none" xmlns="http://www.w3.org/2000/svg">
<path d="M280.585 81.9866C226.622 85.6086 178.156 54.8221 160.668 38.9761L134.061 58.5949C161.342 95.1162 220.626 112.295 246.858 116.32C243.86 189.06 199.641 237.931 177.906 253.274L210.508 271.384C283.358 205.585 287.58 117.703 280.585 81.9866Z" fill="#A5D8FF"/>
<path d="M139.683 94.0598C128.59 86.2122 117.823 72.9318 113.825 67.2725C85.6451 81.1566 52.618 84.1246 39.627 83.8731C22.0142 235.165 151.299 307.981 160.293 306.471C167.488 305.264 184.776 292.386 192.521 286.098C96.8873 239.617 73.4785 153.545 73.7283 116.32C99.2106 114.509 128.315 100.725 139.683 94.0598Z" fill="#A5D8FF"/>
<ellipse cx="18.9903" cy="273.253" rx="18.9903" ry="18.9954" fill="#A5D8FF"/>
<ellipse opacity="0.8" cx="79.1263" cy="312.827" rx="12.6602" ry="12.6636" fill="#A5D8FF"/>
<ellipse cx="240.544" cy="19.981" rx="18.9903" ry="18.9954" fill="#A5D8FF"/>
<ellipse opacity="0.8" cx="313.34" cy="51.6397" rx="12.6602" ry="12.6636" fill="#A5D8FF"/>
<path fill-rule="evenodd" clip-rule="evenodd" d="M163 206.769C187.472 206.769 207.311 186.925 207.311 162.447C207.311 137.968 187.472 118.124 163 118.124C138.528 118.124 118.689 137.968 118.689 162.447C118.689 186.925 138.528 206.769 163 206.769ZM152.458 151.901C154.624 149.733 157.562 148.516 160.626 148.516C163.69 148.516 166.628 149.733 168.795 151.901C170.961 154.068 172.179 157.007 172.179 160.072C172.179 163.116 170.978 166.036 168.839 168.199C168.827 168.211 168.814 168.223 168.802 168.235C168.788 168.249 168.775 168.263 168.761 168.277C166.598 170.423 163.674 171.628 160.626 171.628C157.562 171.628 154.624 170.411 152.458 168.244C150.291 166.076 149.074 163.137 149.074 160.072C149.074 157.007 150.291 154.068 152.458 151.901ZM175.977 160.072C175.977 163.503 174.828 166.816 172.744 169.497L178.587 175.352C179.328 176.094 179.327 177.296 178.584 178.037C177.842 178.778 176.639 178.777 175.899 178.034L170.06 172.184C167.378 174.274 164.062 175.426 160.626 175.426C156.555 175.426 152.65 173.808 149.772 170.929C146.893 168.049 145.276 164.144 145.276 160.072C145.276 156 146.893 152.095 149.772 149.215C152.65 146.336 156.555 144.718 160.626 144.718C164.698 144.718 168.602 146.336 171.481 149.215C174.36 152.095 175.977 156 175.977 160.072Z" fill="#A5D8FF"/>
</svg>
