<svg width="32" height="33" viewBox="0 0 32 33" fill="none" xmlns="http://www.w3.org/2000/svg">
<path d="M19.484 8.39209V13.8691L21.4 15.0741C21.4692 15.0893 21.5408 15.0893 21.61 15.0741L29.848 9.52009C29.842 9.25054 29.7434 8.99127 29.5687 8.78586C29.3941 8.58044 29.1541 8.4414 28.889 8.39209H19.484Z" fill="#0072C6"/>
<path d="M19.484 15.9119L21.231 17.1119C21.3128 17.1617 21.4067 17.188 21.5025 17.188C21.5983 17.188 21.6922 17.1617 21.774 17.1119C21.474 17.2929 29.847 11.7339 29.847 11.7339V21.7999C29.8688 22.0039 29.8458 22.2101 29.7796 22.4043C29.7134 22.5984 29.6055 22.7758 29.4636 22.9239C29.3217 23.072 29.1491 23.1873 28.958 23.2618C28.7668 23.3362 28.5617 23.368 28.357 23.3549H19.483V15.9119H19.484ZM10.44 13.3869C10.1497 13.3855 9.86448 13.4626 9.61449 13.6102C9.3645 13.7577 9.15908 13.9701 9.01999 14.2249C8.6401 14.9003 8.45783 15.6689 8.49399 16.4429C8.45451 17.2153 8.63704 17.9829 9.01999 18.6549C9.1585 18.8992 9.35886 19.1027 9.60095 19.245C9.84304 19.3874 10.1183 19.4635 10.3991 19.4657C10.68 19.4679 10.9564 19.3962 11.2007 19.2577C11.445 19.1193 11.6486 18.9189 11.791 18.6769C12.1698 18.008 12.3485 17.2444 12.306 16.4769C12.3494 15.6853 12.1765 14.8968 11.806 14.1959C11.6736 13.9494 11.4764 13.7438 11.2356 13.6012C10.9949 13.4586 10.7198 13.3845 10.44 13.3869V13.3869Z" fill="#0072C6"/>
<path d="M2.15302 5.61008V27.0371L18.453 30.4551V2.45508L2.15302 5.61008ZM13.061 19.9461C12.7561 20.3759 12.3507 20.7247 11.88 20.9619C11.4094 21.1991 10.8879 21.3176 10.361 21.3071C9.84736 21.3162 9.3391 21.2011 8.87947 20.9717C8.41983 20.7422 8.02241 20.4051 7.72101 19.9891C7.0062 18.9911 6.64862 17.7813 6.70601 16.5551C6.64521 15.2687 7.00925 13.9981 7.74201 12.9391C8.05078 12.501 8.46259 12.1456 8.94111 11.9043C9.41964 11.6629 9.9502 11.543 10.486 11.5551C10.9959 11.5448 11.5006 11.6599 11.9557 11.8903C12.4107 12.1206 12.8023 12.4591 13.096 12.8761C13.8037 13.8957 14.1552 15.1203 14.096 16.3601C14.1584 17.6371 13.7943 18.8987 13.061 19.9461Z" fill="#0072C6"/>
</svg>
