<svg width="27" height="24" viewBox="0 0 27 24" fill="none" xmlns="http://www.w3.org/2000/svg">
<g clip-path="url(#clip0_338_806)">
<path d="M0.736688 0.533051C2.12257 0.0338513 4.86657 -0.546949 7.97898 1.01013C8.81906 1.4775 9.59503 2.05182 10.2875 2.71872C11.3796 2.5214 12.5044 2.42175 13.6462 2.42175C17.0636 2.42175 20.3036 3.31747 22.7696 4.94331C24.0459 5.78613 25.0611 6.78536 25.7855 7.9141C26.5914 9.17222 27.001 10.5241 27 11.9747C27 13.3855 26.5914 14.7393 25.7845 15.9966C25.0601 17.1262 24.0448 18.1245 22.7686 18.9673C20.3036 20.5931 17.0636 21.4879 13.6452 21.4879C12.5033 21.4879 11.3785 21.3881 10.2865 21.1909C9.59407 21.8578 8.81811 22.4321 7.97804 22.8995C4.86448 24.4566 2.12163 23.8758 0.735749 23.3756C0.280432 23.2113 0.140833 22.6334 0.476582 22.2858C1.45399 21.2736 3.07107 19.2723 2.67356 17.4531C1.12836 15.8702 0.290344 13.9614 0.290344 11.936C0.290344 9.94846 1.12826 8.03963 2.6746 6.45563C3.07212 4.63653 1.45503 2.63608 0.477625 1.6239C0.140833 1.27622 0.281476 0.697399 0.736688 0.533051V0.533051ZM13.5067 5.08585C7.51072 5.08585 2.64966 8.23194 2.64966 12.1123C2.64966 13.8029 3.57219 15.355 5.11061 16.5675C5.54401 17.9493 5.29006 19.5073 4.34938 21.2408C4.30452 21.3246 4.26278 21.4081 4.21688 21.4909C5.0239 21.4241 5.83991 21.202 6.66582 20.7966C7.29482 20.4416 7.87662 20.0088 8.39746 19.5084L9.33606 18.6028C10.6203 18.9485 12.0291 19.1397 13.5067 19.1397C19.5026 19.1397 24.3637 15.9947 24.3646 12.1123C24.3646 8.23194 19.5026 5.08585 13.5067 5.08585V5.08585ZM8.3118 10.4974C9.19552 10.4974 9.91188 11.2108 9.91188 12.0904C9.91188 12.9701 9.19552 13.6835 8.3118 13.6835C7.42809 13.6835 6.71173 12.9702 6.71173 12.0904C6.71173 11.2108 7.42809 10.4975 8.3118 10.4975V10.4974ZM13.4628 10.4974C14.3465 10.4974 15.063 11.2108 15.063 12.0904C15.063 12.9701 14.3465 13.6835 13.4629 13.6835C12.5792 13.6835 11.8627 12.9702 11.8627 12.0904C11.8627 11.2108 12.5791 10.4975 13.4629 10.4975L13.4628 10.4974ZM18.6138 10.4974C19.4965 10.4974 20.2139 11.2108 20.2139 12.0904C20.2139 12.9701 19.4975 13.6835 18.6139 13.6835C17.7302 13.6835 17.0137 12.9702 17.0137 12.0904C17.0137 11.2108 17.7301 10.4975 18.6139 10.4975L18.6138 10.4974Z" fill="#F5455C"/>
</g>
<defs>
<clipPath id="clip0_338_806">
<rect width="26.7097" height="24" fill="white" transform="translate(0.290344)"/>
</clipPath>
</defs>
</svg>
