<svg width="24" height="20" viewBox="0 0 24 20" fill="none" xmlns="http://www.w3.org/2000/svg">
<path d="M24 2.38593C23.1013 2.78407 22.148 3.0454 21.1719 3.16124C22.1887 2.55187 22.9693 1.5869 23.3369 0.437151C22.3704 1.0107 21.3129 1.4148 20.2103 1.63199C19.312 0.675088 18.0324 0.0770569 16.6162 0.0770569C13.8968 0.0770569 11.6921 2.28168 11.6921 5.00081C11.6921 5.38677 11.7357 5.76252 11.8196 6.12299C7.72744 5.91759 4.09931 3.95737 1.67072 0.978369C1.24697 1.70559 1.00416 2.55149 1.00416 3.45374C1.00416 5.16206 1.8735 6.66909 3.19462 7.55212C2.4127 7.52763 1.64798 7.31644 0.964313 6.93618C0.964031 6.95681 0.964031 6.97743 0.964031 6.99815C0.964031 9.38381 2.66128 11.3739 4.91372 11.8263C4.18864 12.0235 3.42809 12.0523 2.69016 11.9106C3.31669 13.8668 5.13516 15.2903 7.28972 15.3302C5.60456 16.6507 3.48141 17.438 1.17459 17.438C0.777094 17.438 0.385219 17.4146 0 17.3691C2.17903 18.7662 4.76719 19.5814 7.54781 19.5814C16.6047 19.5814 21.5573 12.0785 21.5573 5.57184C21.5573 5.35827 21.5526 5.14593 21.543 4.93481C22.507 4.23795 23.339 3.37482 24 2.38593Z" fill="#55ACEE"/>
</svg>
